<svg width="123" height="30" viewBox="0 0 123 30" fill="none" xmlns="http://www.w3.org/2000/svg">
<path d="M0 15C0 23.3 6.7 30 15 30C23.3 30 30 23.3 30 15C30 6.7 23.3 0 15 0C6.7 0 0 6.7 0 15ZM5.2 15C5.2 9.8 9.2 5.6 14.3 5.2V10.4C12.1 10.7 10.4 12.6 10.4 14.9C10.4 17.4 12.4 19.5 15 19.5C17.6 19.5 19.6 17.5 19.6 14.9C19.6 12.6 17.9 10.7 15.7 10.4V5.2C20.8 5.5 24.8 9.8 24.8 15C24.8 20.4 20.4 24.8 15 24.8C9.6 24.8 5.2 20.4 5.2 15ZM13 2.6C13 1.5 13.9 0.6 15 0.6C16.1 0.6 17 1.5 17 2.6C17 3.7 16.1 4.6 15 4.6C13.9 4.6 13 3.7 13 2.6Z" fill="#B74746"/>
<path d="M40 18.2996H35.7C35 18.2996 34.6 17.8996 34.6 17.1996V12.8996C34.6 12.0996 35 11.7996 35.7 11.7996H40C40.7 11.7996 41.1 12.1996 41.1 12.8996V17.1996C41.1 17.8996 40.7 18.2996 40 18.2996ZM43.7 12.6996C43.7 10.2996 42.5 9.09961 40.2 9.09961H35.5C33.1 9.09961 32 10.2996 32 12.6996V17.1996C32 19.5996 33.2 20.7996 35.5 20.7996H40.2C42.5 20.7996 43.7 19.5996 43.7 17.1996V12.6996Z" fill="#B74746"/>
<path d="M56.7 9.09961H45V11.6996H49.6V20.8996H52.2V11.6996H56.7V9.09961Z" fill="#B74746"/>
<path d="M69.8 12.7002C69.8 10.4002 68.7 9.2002 66.5 9.2002H58V11.8002H66C66.8 11.8002 67.2 12.1002 67.2 12.8002C67.2 13.5002 66.8 13.8002 66 13.8002H62.6V16.4002H66C66.8 16.4002 67.2 16.7002 67.2 17.4002C67.2 18.1002 66.8 18.4002 66 18.4002H58V21.0002H66C68.5 21.0002 69.8 20.0002 69.8 17.9002C69.8 16.9002 69.6 15.9002 69.1 15.2002C69.6 14.2002 69.8 13.4002 69.8 12.7002Z" fill="#B74746"/>
<path d="M79.1016 18.2996H74.8016C74.1016 18.2996 73.7016 17.8996 73.7016 17.1996V12.8996C73.7016 12.0996 74.1016 11.7996 74.8016 11.7996H79.1016C79.8016 11.7996 80.2016 12.1996 80.2016 12.8996V17.1996C80.2016 17.8996 79.8016 18.2996 79.1016 18.2996ZM82.8016 12.6996C82.8016 10.2996 81.6016 9.09961 79.3016 9.09961H74.6016C72.2016 9.09961 71.1016 10.2996 71.1016 12.6996V17.1996C71.1016 19.5996 72.3016 20.7996 74.6016 20.7996H79.3016C81.6016 20.7996 82.8016 19.5996 82.8016 17.1996V12.6996Z" fill="#B74746"/>
<path d="M93.2992 17.2996C93.2992 16.5996 92.8992 16.2996 92.1992 16.2996H86.7992V18.2996H92.1992C92.8992 18.2996 93.2992 17.8996 93.2992 17.2996ZM93.2992 12.6996C93.2992 11.9996 92.8992 11.6996 92.1992 11.6996H86.7992V13.6996H92.1992C92.8992 13.6996 93.2992 13.3996 93.2992 12.6996ZM95.8992 17.2996C95.8992 19.6996 94.6992 20.7996 92.3992 20.7996H84.1992V9.09961H92.3992C94.6992 9.09961 95.8992 10.2996 95.8992 12.5996C95.8992 13.6996 95.5992 14.4996 95.1992 14.8996C95.5992 15.4996 95.8992 16.2996 95.8992 17.2996Z" fill="#B74746"/>
<path d="M108.899 20.8996H106.299V12.6996L99.7992 20.8996H97.1992V9.09961H99.7992V17.2996L106.299 9.09961H108.899V20.8996Z" fill="#B74746"/>
<path d="M117.499 14.9996L122.199 9.09961H119.199L115.499 13.6996H112.799V9.09961H110.199V20.8996H112.799V16.2996H115.499L119.199 20.8996H122.199L117.499 14.9996Z" fill="#B74746"/>
</svg>
