<svg width="51" height="46" viewBox="0 0 51 46" fill="none" xmlns="http://www.w3.org/2000/svg">
<path fill-rule="evenodd" clip-rule="evenodd" d="M8.20383 27.2673C8.20383 26.5758 8.76989 26.0153 9.4683 26.0153H9.57367C10.2721 26.0153 10.8381 26.5758 10.8381 27.2673C10.8381 27.9589 10.2721 28.5194 9.57367 28.5194H9.4683C8.76989 28.5194 8.20383 27.9589 8.20383 27.2673ZM12.5984 27.2673C12.5984 26.5758 13.1645 26.0153 13.8629 26.0153H13.9681C14.6665 26.0153 15.2326 26.5758 15.2326 27.2673C15.2326 27.9589 14.6665 28.5194 13.9681 28.5194H13.8629C13.1645 28.5194 12.5984 27.9589 12.5984 27.2673ZM51 20.1099V6.01704C51 2.68013 48.298 0 44.9283 0H25.5521C22.1822 0 19.3884 2.68013 19.3884 6.01704V14.4684H6.14248C2.77255 14.4684 0 17.1948 0 20.5316V34.6244C0 37.9613 2.77255 40.6226 6.14248 40.6226H23.9693L29.5128 45.6593C29.7504 45.8741 30.0559 46 30.3655 46C30.5379 46 30.7026 45.9718 30.8665 45.9001C31.325 45.6999 31.6116 45.2572 31.6116 44.7613V30.0233C31.6116 29.3317 31.0455 28.7712 30.3471 28.7712C29.6487 28.7712 29.0826 29.3317 29.0826 30.0233V41.9234L25.3029 38.4727C25.0699 38.2621 24.7749 38.1186 24.4595 38.1186H6.14248C4.16697 38.1186 2.52893 36.5807 2.52893 34.6245V20.5316C2.52893 18.5756 4.16683 16.9725 6.14248 16.9725H19.3884V30.2469C19.3884 30.7428 19.7102 31.1922 20.1685 31.3924C20.6268 31.5924 21.1743 31.5059 21.5443 31.1716L26.1838 26.9844C26.2368 26.9365 26.2881 26.8905 26.3374 26.8463C26.4005 26.7897 26.4603 26.7361 26.5159 26.6854C26.7659 26.4574 27.0252 26.2221 27.131 26.1526C27.2326 26.1415 27.4931 26.1433 27.7245 26.148C27.9453 26.1526 28.2093 26.1544 28.5299 26.1544H44.9282C48.298 26.1544 51 23.4467 51 20.1099ZM44.9282 2.50414C46.9036 2.50414 48.4711 4.06089 48.4711 6.01704V20.1101C48.4711 22.0661 46.9036 23.6504 44.9282 23.6504H28.5299C28.2303 23.6504 27.9842 23.6489 27.7777 23.6445C26.2635 23.6137 25.9664 23.783 24.8055 24.8422C24.7586 24.8851 24.7032 24.9302 24.6451 24.9775C24.584 25.0273 24.52 25.0794 24.4596 25.134L21.9174 27.409V15.7321V6.01704C21.9174 4.06089 23.5766 2.50414 25.5521 2.50414H44.9282ZM36.2869 7.87819C36.1971 7.6018 35.8061 7.6018 35.7163 7.87819L34.7218 10.9387C34.6817 11.0623 34.5665 11.146 34.4365 11.146H31.2185C30.9279 11.146 30.8071 11.5179 31.0422 11.6887L33.6456 13.5802C33.7508 13.6566 33.7948 13.792 33.7546 13.9156L32.7602 16.9761C32.6704 17.2525 32.9867 17.4823 33.2218 17.3115L35.8252 15.42C35.9304 15.3436 36.0728 15.3436 36.1779 15.42L38.7813 17.3115C39.0164 17.4823 39.3328 17.2525 39.243 16.9761L38.2486 13.9156C38.2084 13.792 38.2524 13.6566 38.3575 13.5802L40.9609 11.6887C41.1961 11.5179 41.0752 11.146 40.7846 11.146H37.5666C37.4367 11.146 37.3215 11.0623 37.2813 10.9387L36.2869 7.87819Z" fill="#283C80"/>
</svg>
