<svg xmlns="http://www.w3.org/2000/svg" xmlns:xlink="http://www.w3.org/1999/xlink" version="1.1" id="Layer_1" x="0px" y="0px" width="200px" height="40px" viewBox="0 0 200 40" enable-background="new 0 0 200 40" xml:space="preserve">
<path fill="#000" d="M124.303,5.679h-3.914c-1.682,0-2.859,0.841-3.574,1.934l-5.344,10.263l-5.455-10.263  c-0.713-1.093-1.892-1.934-3.574-1.934H98.53c-1.051,0-1.346,0.966-0.715,1.934l10.218,16.991v8.623  c0,1.051,0.884,1.896,1.935,1.896h3.058c1.053,0,1.936-0.845,1.936-1.896v-8.623l10.057-16.991  C125.646,6.646,125.352,5.679,124.303,5.679z M62.655,5.679H38.8c-1.093,0-1.935,0.841-1.935,1.934v1.284  c0,1.094,0.841,1.936,1.935,1.936h8.519v22.394c0,1.053,0.883,1.896,1.935,1.896h3.056c1.051,0,1.935-0.844,1.935-1.896V10.833h8.41  c1.093,0,1.935-0.841,1.935-1.936V7.613C64.589,6.52,63.748,5.679,62.655,5.679z M17.779,5.048C7.265,5.048,1.25,9.463,1.25,20.399  c0,10.935,6.015,15.351,16.529,15.351c10.514,0,16.53-4.416,16.53-15.351C34.309,9.463,28.294,5.048,17.779,5.048z M17.779,30.197  c-6.309,0-8.791-3.489-8.791-9.798s2.482-9.8,8.791-9.8c6.309,0,8.79,3.492,8.79,9.8S24.088,30.197,17.779,30.197z M92.174,29.967  H77.548l14.416-16.978c0.842-0.799,1.935-1.808,1.935-3.659V7.613c0-1.093-0.841-1.934-1.935-1.934H70.049  c-1.093,0-1.934,0.841-1.934,1.934v1.338c0,1.092,0.841,1.936,1.934,1.936H85.11L70.06,27.654c-0.883,0.882-1.934,1.974-1.934,3.908  v1.623c0,1.092,0.841,1.937,1.934,1.937h22.114c1.093,0,1.935-0.845,1.935-1.937v-1.287C94.109,30.809,93.268,29.967,92.174,29.967z   M158.637,5.679h-4.502c-1.092,0-1.975,0.882-2.438,1.934l-7.243,18.954l-7.302-18.954c-0.461-1.052-1.344-1.934-2.439-1.934h-4.499  c-0.925,0-1.767,0.841-1.347,1.724l11.439,25.613c0.59,1.262,1.473,2.105,2.943,2.105h2.24c1.473,0,2.355-0.844,2.943-2.105  l11.549-25.613C160.402,6.52,159.563,5.679,158.637,5.679z"/>
<path fill="#000" d="M177.167,7.954h-2.533V10h2.533c0.682,0,1.546-0.244,1.546-1.023S177.849,7.954,177.167,7.954z   M181.02,0.988c-9.332,0-16.897,4.046-16.897,9.037c0,2.964,2.671,5.596,6.797,7.244c0.037,0.659,0.026,1.346-0.082,1.973  c-0.446,2.634-3.588,4.138-3.588,4.138s3.614-0.379,6.414-2c1.26-0.731,2.334-1.746,3.114-2.607  c1.355,0.187,2.777,0.288,4.242,0.288c9.334,0,16.9-4.045,16.9-9.035C197.92,5.034,190.354,0.988,181.02,0.988z M180.941,14.797  h-1.425c-0.305,0-0.719-0.244-0.913-0.56l-1.011-1.583c-0.305-0.475-0.743-0.974-1.51-0.974h-1.449v2.557  c0,0.304-0.243,0.56-0.56,0.56h-1.121c-0.304,0-0.56-0.256-0.56-0.56V6.834c0-0.317,0.243-0.56,0.548-0.56h4.907  c1.777,0,3.104,1.022,3.104,2.703c0,1.315-1.011,1.924-2.24,2.167c0.499,0.183,0.864,0.609,1.352,1.376l1.084,1.717  C181.343,14.554,181.258,14.797,180.941,14.797z M190.687,11.424c0,2.155-1.267,3.422-3.75,3.422h-1.071  c-2.484,0-3.751-1.267-3.751-3.422v-4.59c0-0.317,0.256-0.56,0.572-0.56h1.108c0.305,0,0.56,0.243,0.56,0.56v4.603  c0,1.169,0.487,1.729,1.571,1.729h0.949c1.084,0,1.571-0.56,1.571-1.729V6.834c0-0.317,0.256-0.56,0.56-0.56h1.108  c0.316,0,0.572,0.243,0.572,0.56V11.424z"/>
</svg>