<svg width="29" height="36" viewBox="0 0 29 36" fill="none" xmlns="http://www.w3.org/2000/svg">
<path d="M9.58641 24.4404C9.88168 24.4404 10.1211 24.201 10.1211 23.9057C10.1211 23.6104 9.88168 23.371 9.58641 23.371H7.176L13.6133 16.9335L16.3485 19.6689C16.549 19.8694 16.904 19.8694 17.1045 19.6689L23.8949 12.8785C24.1037 12.6697 24.1037 12.3313 23.8949 12.1226C23.6861 11.9136 23.3478 11.9138 23.139 12.1226L16.7266 18.5351L13.9912 15.7996C13.891 15.6994 13.755 15.6429 13.6132 15.6429C13.4713 15.6429 13.3354 15.6994 13.2351 15.7996L6.37868 22.6563V20.1634C6.37868 19.8682 6.13927 19.6288 5.84401 19.6288C5.54874 19.6288 5.30933 19.8682 5.30933 20.1634V23.9057C5.30933 24.201 5.54874 24.4404 5.84401 24.4404H9.58641Z" fill="white"/>
<path d="M14.3652 31.3688C21.7349 31.3688 27.7303 25.3733 27.7303 18.0037C27.7303 10.6341 21.7347 4.63854 14.3652 4.63854C6.99558 4.63854 1 10.6341 1 18.0037C1 25.3733 6.99542 31.3688 14.3652 31.3688ZM14.3652 5.70758C21.1451 5.70758 26.6611 11.2236 26.6611 18.0035C26.6611 24.7835 21.1451 30.2995 14.3652 30.2995C7.58518 30.2995 2.06919 24.7835 2.06919 18.0035C2.06919 11.2236 7.58518 5.70758 14.3652 5.70758Z" fill="white"/>
<path d="M24.572 30.2104C18.944 35.8384 9.78667 35.8384 4.15867 30.2104C3.94988 30.0016 3.61154 30.0016 3.40275 30.2104C3.1938 30.4192 3.19395 30.7576 3.40275 30.9663C6.42508 33.989 10.3952 35.5001 14.3653 35.5001C18.3355 35.5001 22.3056 33.9888 25.3279 30.9663C25.5367 30.7576 25.5367 30.4192 25.3279 30.2104C25.1191 30.0015 24.7808 30.0015 24.572 30.2104Z" fill="white"/>
<path d="M4.15862 5.79704C6.88491 3.07074 10.5098 1.56919 14.3653 1.56919C18.2208 1.56919 21.8456 3.07074 24.5719 5.79704C24.6764 5.90151 24.8132 5.95367 24.95 5.95367C25.0867 5.95367 25.2235 5.90151 25.328 5.79704C25.5368 5.58825 25.5368 5.2499 25.328 5.04111C22.3998 2.11264 18.5063 0.5 14.3653 0.5C10.2242 0.5 6.3307 2.11264 3.40269 5.04096C3.1939 5.24975 3.1939 5.58809 3.40269 5.79689C3.61148 6.00583 3.94982 6.00583 4.15862 5.79704Z" fill="white"/>
<path fill-rule="evenodd" clip-rule="evenodd" d="M3.04913 4.6874C6.07093 1.6653 10.0916 0 14.3653 0C18.6389 0 22.6596 1.66531 25.6816 4.68758C26.0856 5.09163 26.0856 5.74654 25.6816 6.15059C25.4796 6.35258 25.214 6.45367 24.95 6.45367C24.686 6.45367 24.4204 6.35258 24.2184 6.15059C21.5858 3.51806 18.0882 2.06919 14.3653 2.06919C10.6424 2.06919 7.14471 3.51806 4.51217 6.15059C4.10809 6.55467 3.45307 6.55467 3.049 6.15031C2.64509 5.74625 2.64514 5.09142 3.04913 4.6874ZM14.3653 1C10.3568 1 6.59049 2.55997 3.75626 5.39449C3.74273 5.40802 3.74271 5.4298 3.75624 5.44333C3.76976 5.45686 3.79155 5.45699 3.80506 5.44349C6.62512 2.62343 10.3772 1.06919 14.3653 1.06919C18.3534 1.06919 22.1054 2.62343 24.9255 5.44349C24.9296 5.44759 24.9333 5.4498 24.9367 5.45119C24.9405 5.45272 24.945 5.45367 24.95 5.45367C24.9549 5.45367 24.9594 5.45272 24.9632 5.45119C24.9666 5.4498 24.9703 5.44759 24.9745 5.44349C24.988 5.42996 24.988 5.40819 24.9745 5.39466C22.1401 2.55998 18.3737 1 14.3653 1ZM0.5 18.0037C0.5 10.358 6.71944 4.13854 14.3652 4.13854C22.0109 4.13854 28.2303 10.358 28.2303 18.0037C28.2303 25.6494 22.011 31.8688 14.3652 31.8688C6.71928 31.8688 0.5 25.6494 0.5 18.0037ZM14.3652 5.13854C7.27172 5.13854 1.5 10.9103 1.5 18.0037C1.5 25.0971 7.27157 30.8688 14.3652 30.8688C21.4587 30.8688 27.2303 25.0971 27.2303 18.0037C27.2303 10.9103 21.4586 5.13854 14.3652 5.13854ZM14.3652 6.20758C7.86132 6.20758 2.56919 11.4997 2.56919 18.0035C2.56919 24.5074 7.86132 29.7995 14.3652 29.7995C20.869 29.7995 26.1611 24.5074 26.1611 18.0035C26.1611 11.4997 20.869 6.20758 14.3652 6.20758ZM1.56919 18.0035C1.56919 10.9474 7.30904 5.20758 14.3652 5.20758C21.4213 5.20758 27.1611 10.9474 27.1611 18.0035C27.1611 25.0597 21.4213 30.7995 14.3652 30.7995C7.30904 30.7995 1.56919 25.0597 1.56919 18.0035ZM24.2485 11.769C23.8442 11.3646 23.1893 11.3652 22.7854 11.769H24.2485ZM24.2485 11.769C24.6524 12.1731 24.6525 12.828 24.2485 13.232L17.458 20.0225C17.0623 20.4182 16.3907 20.4182 15.995 20.0225L13.6133 17.6407L8.38308 22.871H9.58641C10.1578 22.871 10.6211 23.3343 10.6211 23.9057C10.6211 24.4771 10.1578 24.9404 9.58641 24.9404H5.84401C5.2726 24.9404 4.80933 24.4771 4.80933 23.9057V20.1634C4.80933 19.592 5.2726 19.1288 5.84401 19.1288C6.41541 19.1288 6.87868 19.592 6.87868 20.1634V21.4492L12.8816 15.446C13.0752 15.2527 13.3383 15.1429 13.6132 15.1429C13.8878 15.1429 14.151 15.2522 14.3448 15.446L16.7266 17.828L22.7854 11.769M23.5412 12.476C23.5279 12.4626 23.5062 12.4624 23.4925 12.4761L16.7266 19.2422L13.6376 16.1531C13.6311 16.1466 13.6222 16.1429 13.6132 16.1429C13.6043 16.1429 13.5954 16.1464 13.5884 16.1534L5.87868 23.8635V20.1634C5.87868 20.1443 5.86312 20.1288 5.84401 20.1288C5.82489 20.1288 5.80933 20.1443 5.80933 20.1634V23.9057C5.80933 23.9248 5.82489 23.9404 5.84401 23.9404H9.58641C9.60553 23.9404 9.62109 23.9248 9.62109 23.9057C9.62109 23.8866 9.60554 23.871 9.58641 23.871H5.96891L13.6133 16.2264L16.7009 19.3142L16.7039 19.3155C16.7087 19.3174 16.7166 19.3193 16.7265 19.3193C16.7364 19.3193 16.7443 19.3174 16.7491 19.3155L16.7521 19.3142L23.5413 12.5249C23.5549 12.5114 23.5547 12.4895 23.5412 12.476ZM24.2184 29.8569C24.6225 29.4527 25.2774 29.4527 25.6815 29.8569C26.0855 30.2609 26.0855 30.9158 25.6815 31.3199C22.5613 34.4402 18.4622 36.0001 14.3653 36.0001C10.2685 36.0001 6.16937 34.4404 3.04919 31.3199C2.64535 30.9161 2.64477 30.2611 3.04919 29.8569M3.04919 29.8569C3.45326 29.4529 4.10822 29.4529 4.51223 29.8569C9.94496 35.2896 18.7857 35.2896 24.2184 29.8569M24.9742 30.5638C24.9607 30.5503 24.9392 30.5503 24.9257 30.5638C19.1024 36.3871 9.62838 36.3872 3.80512 30.564C3.79159 30.5504 3.76983 30.5504 3.7563 30.564C3.74295 30.5773 3.7426 30.5991 3.7563 30.6128C6.68077 33.5376 10.5219 35.0001 14.3653 35.0001C18.2087 35.0001 22.0499 33.5374 24.9743 30.6128C24.9879 30.5993 24.9878 30.5774 24.9742 30.5638Z" fill="white"/>
</svg>
