<svg width="35" height="36" viewBox="0 0 35 36" fill="none" xmlns="http://www.w3.org/2000/svg">
<path d="M17.5 0.5C7.85019 0.5 0 8.35019 0 18C0 27.6498 7.85019 35.5 17.5 35.5C27.1498 35.5 35 27.6498 35 18C35 8.35019 27.1498 0.5 17.5 0.5ZM17.5 34.0417C8.65519 34.0417 1.45831 26.8448 1.45831 18C1.45831 9.15519 8.65519 1.95831 17.5 1.95831C26.3448 1.95831 33.5417 9.15519 33.5417 18C33.5417 26.8448 26.3448 34.0417 17.5 34.0417Z" fill="#0062D9"/>
<path d="M10.9375 12.167C9.73144 12.167 8.75 13.1484 8.75 14.3545C8.75 15.5606 9.73144 16.542 10.9375 16.542C12.1436 16.542 13.125 15.5606 13.125 14.3545C13.125 13.1484 12.1436 12.167 10.9375 12.167ZM10.9375 15.0836C10.5364 15.0836 10.2083 14.7569 10.2083 14.3544C10.2083 13.9519 10.5364 13.6253 10.9375 13.6253C11.3386 13.6253 11.6667 13.952 11.6667 14.3545C11.6667 14.757 11.3386 15.0836 10.9375 15.0836Z" fill="#0062D9"/>
<path d="M24.0625 12.167C22.8564 12.167 21.875 13.1484 21.875 14.3545C21.875 15.5606 22.8564 16.542 24.0625 16.542C25.2686 16.542 26.25 15.5606 26.25 14.3545C26.25 13.1484 25.2686 12.167 24.0625 12.167ZM24.0625 15.0836C23.6614 15.0836 23.3333 14.7569 23.3333 14.3544C23.3333 13.9519 23.6614 13.6253 24.0625 13.6253C24.4636 13.6253 24.7917 13.952 24.7917 14.3545C24.7917 14.757 24.4636 15.0836 24.0625 15.0836Z" fill="#0062D9"/>
<path d="M26.0914 23.4985C24.2 26.4473 20.9887 28.209 17.4975 28.209C14.0062 28.209 10.795 26.4473 8.90495 23.4985C8.6862 23.1587 8.78683 22.7081 9.12514 22.4909C9.46058 22.275 9.91264 22.3713 10.1314 22.711C11.7531 25.2398 14.5064 26.7506 17.4975 26.7506C20.4885 26.7506 23.2418 25.2398 24.8635 22.711C25.0035 22.4937 25.2383 22.3756 25.4775 22.3756C25.6116 22.3756 25.7487 22.412 25.8712 22.4908C26.2095 22.7082 26.3087 23.1588 26.0914 23.4985Z" fill="#0062D9"/>
<path d="M30.6914 22.7725C29.4853 22.7725 28.5039 23.7539 28.5039 24.96C28.5039 26.166 29.4853 27.1475 30.6914 27.1475C31.8975 27.1475 32.8789 26.166 32.8789 24.96C32.8789 23.754 31.8974 22.7725 30.6914 22.7725ZM30.6914 25.6891C30.2903 25.6891 29.9622 25.3625 29.9622 24.96C29.9622 24.5575 30.2903 24.2308 30.6914 24.2308C31.0925 24.2308 31.4206 24.5575 31.4206 24.96C31.4206 25.3625 31.0924 25.6891 30.6914 25.6891Z" fill="#0062D9"/>
<path d="M29.9547 25.0846C29.8876 24.6879 29.5041 24.4167 29.1161 24.4852L21.8245 25.7C21.4278 25.7657 21.158 26.1419 21.2251 26.5386C21.2849 26.8959 21.594 27.1482 21.9426 27.1482C21.982 27.1482 22.0243 27.1452 22.0636 27.138L29.3553 25.9232C29.752 25.8575 30.0218 25.4812 29.9547 25.0846Z" fill="#0062D9"/>
<path d="M11.5865 9.65219C11.4057 9.29201 10.9696 9.14763 10.6079 9.32701L7.69126 10.7853C7.33107 10.9647 7.1867 11.4036 7.36607 11.7639C7.49438 12.0191 7.75107 12.1664 8.01795 12.1664C8.12732 12.1664 8.23813 12.1416 8.34463 12.0891L11.2613 10.6308C11.6215 10.4514 11.7659 10.0124 11.5865 9.65219Z" fill="#0062D9"/>
<path d="M27.4145 10.8545L24.4978 8.66696C24.1784 8.42634 23.7205 8.49053 23.477 8.81277C23.2364 9.13509 23.302 9.59152 23.6243 9.83358L26.541 12.0211C26.6722 12.1188 26.8268 12.1669 26.9785 12.1669C27.1987 12.1669 27.4189 12.0663 27.5618 11.8752C27.8024 11.553 27.7368 11.0965 27.4145 10.8545Z" fill="#0062D9"/>
</svg>
