<svg width="32" height="30" viewBox="0 0 32 30" fill="none" xmlns="http://www.w3.org/2000/svg">
<path d="M16 21.0566C15.1054 21.0566 14.3555 21.8065 14.3555 22.7012C14.3555 23.5958 15.1054 24.3457 16 24.3457C16.8617 24.3457 17.6445 23.5958 17.605 22.7406C17.6445 21.8 16.9012 21.0566 16 21.0566Z" fill="white"/>
<path d="M31.2213 26.8847C32.2541 25.1021 32.2606 22.9773 31.2345 21.2013L20.9332 3.36147C19.9136 1.56565 18.0717 0.5 16.0062 0.5C13.9407 0.5 12.0988 1.57223 11.0792 3.35489L0.764735 21.2144C-0.261448 23.0102 -0.25487 25.1481 0.784469 26.9308C1.81065 28.6937 3.64594 29.7528 5.6983 29.7528H26.2746C28.3335 29.7528 30.182 28.6805 31.2213 26.8847ZM28.9847 25.5954C28.4125 26.5821 27.3994 27.1676 26.268 27.1676H5.69173C4.57345 27.1676 3.567 26.5953 3.00786 25.6283C2.44215 24.6482 2.43557 23.4773 3.00129 22.4906L13.3157 4.63762C13.8749 3.65748 14.8747 3.07861 16.0062 3.07861C17.131 3.07861 18.1375 3.66406 18.6966 4.6442L29.0045 22.4971C29.557 23.4575 29.5505 24.6153 28.9847 25.5954Z" fill="white"/>
<path d="M15.5899 9.51225C14.8071 9.7359 14.3203 10.4463 14.3203 11.3081C14.3598 11.8277 14.3927 12.354 14.4321 12.8737C14.544 14.8537 14.6558 16.7942 14.7676 18.7742C14.8071 19.4452 15.3268 19.9319 15.9977 19.9319C16.6687 19.9319 17.1949 19.4123 17.2278 18.7347C17.2278 18.3269 17.2278 17.9519 17.2673 17.5375C17.3397 16.2679 17.4186 14.9984 17.491 13.7288C17.5304 12.9065 17.6028 12.0843 17.6422 11.262C17.6422 10.966 17.6028 10.7029 17.491 10.4398C17.1555 9.70301 16.3727 9.32806 15.5899 9.51225Z" fill="white"/>
</svg>
