<svg width="35" height="35" viewBox="0 0 35 35" fill="none" xmlns="http://www.w3.org/2000/svg">
<path d="M26.3263 33.3049L22.7599 29.738C22.6353 29.6135 22.4664 29.5435 22.2903 29.5435C22.29 29.5435 22.2896 29.5435 22.2894 29.5435L20.3759 29.5462C20.3717 29.5462 20.3675 29.5462 20.3633 29.5462C19.307 29.5462 18.2489 29.352 17.2586 28.9814L18.4068 28.2114C18.8768 27.8962 19.1929 27.4163 19.2968 26.86C19.4007 26.3036 19.2791 25.742 18.9545 25.2783C18.5509 24.7019 17.9009 24.389 17.2391 24.389C17.2284 24.389 17.2176 24.3891 17.2068 24.3892L19.8517 21.7443C20.6541 20.9419 20.6541 19.6362 19.8517 18.8337C19.6565 18.6385 19.4289 18.4874 19.1811 18.3853C19.3647 18.073 19.463 17.7163 19.463 17.3445C19.463 16.7948 19.2489 16.2779 18.8602 15.8892C18.4714 15.5004 17.9546 15.2863 17.4048 15.2863C17.033 15.2863 16.6764 15.3846 16.3641 15.5683C16.2619 15.3204 16.1109 15.0929 15.9156 14.8976C15.5269 14.5088 15.01 14.2947 14.4602 14.2947C13.9105 14.2947 13.3936 14.5088 13.0049 14.8976L12.0552 15.8473C11.9542 15.6247 11.8133 15.4197 11.6354 15.2416C11.2466 14.8529 10.7298 14.6388 10.18 14.6388C9.6302 14.6388 9.11335 14.8529 8.7246 15.2416L8.30365 15.6626L6.59228 13.9608C6.09515 13.4637 6.09515 12.6548 6.59228 12.1577C7.05799 11.692 7.79723 11.6626 8.29747 12.0694L9.95486 13.7268C10.0846 13.8565 10.2545 13.9213 10.4244 13.9213C10.5944 13.9213 10.7644 13.8564 10.894 13.7268C11.1533 13.4675 11.1533 13.047 10.894 12.7877L8.03477 9.92846C7.53765 9.43127 7.53765 8.62236 8.03477 8.12524C8.53189 7.62805 9.34086 7.62812 9.83799 8.12524L14.8475 13.1444C14.9772 13.2741 15.1472 13.3389 15.3171 13.3389C15.487 13.3389 15.657 13.274 15.7867 13.1444C16.046 12.8851 16.046 12.4646 15.7867 12.2053L11.9789 8.38788C11.5722 7.88757 11.6016 7.14839 12.0673 6.68275C12.5645 6.18563 13.3734 6.18563 13.8705 6.68275L15.2656 8.07789C15.525 8.33728 15.9454 8.33728 16.2047 8.07789C16.464 7.81857 16.4641 7.39808 16.2047 7.13877L14.8096 5.74362C13.7946 4.72866 12.1431 4.72872 11.1281 5.74362C10.7927 6.07904 10.5689 6.48413 10.4552 6.91265C10.0155 6.59536 9.48928 6.42369 8.93638 6.42369C8.24103 6.42369 7.58732 6.6945 7.09564 7.18611C6.18201 8.09974 6.0913 9.52889 6.82244 10.5456C6.39385 10.6593 5.98864 10.8831 5.65315 11.2186C4.69529 12.1765 4.6419 13.701 5.49198 14.7227C5.07288 14.8385 4.67716 15.0601 4.34838 15.3888C3.33348 16.4038 3.33348 18.0553 4.34838 19.0703L4.64476 19.3667C3.52414 20.7122 2.91512 22.3911 2.91764 24.1639L2.91924 25.2639L0.19449 27.9888C-0.0648299 28.2482 -0.0648299 28.6687 0.19449 28.928C0.324182 29.0577 0.494118 29.1225 0.664054 29.1225C0.833989 29.1225 1.00399 29.0577 1.13362 28.928L4.05327 26.0083C4.17805 25.8835 4.24804 25.7142 4.24778 25.5378L4.24578 24.1621C4.24339 22.5117 4.88495 20.9598 6.05205 19.7927L9.34757 16.4971C9.34757 16.4971 9.34757 16.497 9.34764 16.497L9.66373 16.1809C9.80159 16.043 9.98488 15.9671 10.1799 15.9671C10.375 15.9671 10.5582 16.043 10.6961 16.1809C10.834 16.3188 10.9099 16.5021 10.9099 16.6971C10.9099 16.8645 10.8536 17.0232 10.7504 17.152L9.87258 18.0299C9.61326 18.2892 9.61326 18.7097 9.87258 18.969C9.87318 18.9696 9.87385 18.9701 9.87438 18.9707C9.87497 18.9713 9.87544 18.9719 9.87604 18.9725C10.0057 19.1021 10.1757 19.167 10.3456 19.167C10.5155 19.167 10.6855 19.1021 10.8152 18.9725L13.9439 15.8368C14.0817 15.6989 14.265 15.623 14.46 15.623C14.6551 15.623 14.8384 15.699 14.9762 15.8368C15.2412 16.1018 15.2592 16.5213 15.0307 16.8077L11.844 20.0014C11.5847 20.2607 11.5847 20.6812 11.844 20.9406C11.9737 21.0702 12.1436 21.1351 12.3136 21.1351C12.4835 21.1351 12.6535 21.0702 12.7831 20.9406L16.8884 16.8284C17.0262 16.6905 17.2095 16.6146 17.4045 16.6146C17.5996 16.6146 17.7829 16.6906 17.9207 16.8284C18.2053 17.113 18.2053 17.5762 17.9207 17.8608L13.8086 21.9659C13.5493 22.2252 13.5492 22.6457 13.8086 22.9051C14.068 23.1644 14.4885 23.1644 14.7477 22.9051L17.9415 19.7184C18.2278 19.4899 18.6473 19.5079 18.9123 19.773C19.1969 20.0575 19.1969 20.5207 18.9123 20.8053L14.4288 25.2889C14.113 25.6046 14.0838 26.0889 14.3594 26.4403C14.635 26.7917 15.1124 26.8788 15.4943 26.6472L16.8488 25.8261C17.1903 25.619 17.6372 25.7131 17.8663 26.0403C17.9845 26.2091 18.0288 26.4137 17.9909 26.6163C17.9531 26.8189 17.838 26.9937 17.6668 27.1084L14.5332 29.2098C13.5135 29.8936 12.3261 30.2548 11.0985 30.2548C11.0956 30.2548 11.0926 30.2548 11.0898 30.2548L8.96135 30.2517C8.96101 30.2517 8.96075 30.2517 8.96042 30.2517C8.78431 30.2517 8.61537 30.3217 8.49085 30.4462L5.57113 33.366C5.31181 33.6253 5.31181 34.0458 5.57113 34.3051C5.70083 34.4348 5.87076 34.4997 6.0407 34.4997C6.21063 34.4997 6.38064 34.4348 6.51026 34.3051L9.23507 31.5803L11.0879 31.583C11.0914 31.583 11.0948 31.583 11.0984 31.583C12.5902 31.583 14.0336 31.1439 15.2728 30.313L15.9438 29.863C17.3151 30.5247 18.8407 30.8746 20.363 30.8746C20.3677 30.8746 20.3727 30.8746 20.3774 30.8746L22.0153 30.8722L25.3872 34.2441C25.5169 34.3737 25.6868 34.4386 25.8568 34.4386C26.0267 34.4386 26.1967 34.3737 26.3263 34.2441C26.5856 33.9848 26.5856 33.5643 26.3263 33.3049ZM6.92989 17.0366C6.92982 17.0367 6.92982 17.0367 6.92976 17.0367L5.56137 18.4051L5.28758 18.1313C4.79045 17.6341 4.79045 16.8252 5.28758 16.3281C5.75329 15.8624 6.49253 15.833 6.99278 16.2398L7.35974 16.6067L6.92989 17.0366Z" fill="white"/>
<path d="M33.8093 25.8254C33.6858 25.7013 33.5145 25.6309 33.3399 25.6309C33.1652 25.6309 32.9939 25.7013 32.8704 25.8254C32.7468 25.9489 32.6758 26.1196 32.6758 26.2949C32.6758 26.4696 32.7468 26.6409 32.8704 26.7644C32.9939 26.8879 33.1652 26.959 33.3399 26.959C33.5145 26.959 33.6858 26.8879 33.8093 26.7644C33.9329 26.6402 34.0039 26.4696 34.0039 26.2949C34.0039 26.1195 33.9329 25.9489 33.8093 25.8254Z" fill="white"/>
<path d="M32.0237 24.04L30.4375 22.4538L30.4414 19.7689C30.4442 17.7403 29.8486 15.7775 28.7188 14.0926L25.7959 9.73378C25.3966 9.13838 24.7887 8.73801 24.084 8.60639C23.3793 8.47477 22.6679 8.62877 22.0807 9.03996C21.1186 9.71366 20.7361 10.9292 21.0763 12.0067L19.3407 10.2711C19.0814 10.0118 18.6609 10.0118 18.4015 10.2711C18.1422 10.5304 18.1422 10.9509 18.4015 11.2103L22.1299 14.9386C22.4748 15.2836 23.0039 15.3155 23.3877 15.0143C23.7715 14.7132 23.8666 14.1919 23.6137 13.7747L22.4715 11.8905C22.1129 11.299 22.2758 10.5248 22.8425 10.128C23.1349 9.92324 23.4895 9.84654 23.8402 9.91209C24.1911 9.97763 24.4939 10.177 24.6927 10.4736L27.6156 14.8324C28.5979 16.2972 29.1157 18.0035 29.1132 19.767L29.109 22.7276C29.1087 22.904 29.1787 23.0734 29.3035 23.1981L31.0846 24.9792C31.2143 25.1089 31.3842 25.1737 31.5542 25.1737C31.7241 25.1737 31.8941 25.1089 32.0237 24.9792C32.283 24.7199 32.283 24.2994 32.0237 24.04Z" fill="white"/>
<path d="M17.7781 8.7102C17.6552 8.58668 17.4839 8.51562 17.3093 8.51562C17.134 8.51562 16.9633 8.58668 16.8391 8.7102C16.7156 8.83371 16.6445 9.00505 16.6445 9.1797C16.6445 9.35501 16.7156 9.52568 16.8391 9.64919C16.9633 9.77271 17.134 9.84377 17.3093 9.84377C17.4839 9.84377 17.6546 9.77271 17.7781 9.64919C17.9023 9.52568 17.9733 9.35435 17.9733 9.1797C17.9733 9.00505 17.9023 8.83371 17.7781 8.7102Z" fill="white"/>
<path d="M23.9363 19.0155C24.1956 18.7562 24.1956 18.3357 23.9363 18.0763C23.6769 17.817 23.2565 17.817 22.9971 18.0763L22.7074 18.3659C21.4673 19.6061 21.4673 21.6239 22.7074 22.864C22.8371 22.9936 23.007 23.0585 23.177 23.0585C23.3469 23.0585 23.5169 22.9936 23.6465 22.864C23.9059 22.6047 23.9059 22.1842 23.6465 21.9248C22.9243 21.2026 22.9243 20.0273 23.6465 19.3051L23.9363 19.0155Z" fill="white"/>
<path d="M31.6954 4.08594C31.2733 4.08594 30.8606 4.20574 30.5038 4.42481C30.147 4.20574 29.7344 4.08594 29.3122 4.08594C28.0416 4.08594 27.0078 5.13862 27.0078 6.43243C27.0078 7.1657 27.535 8.04632 28.6196 9.12477C29.3498 9.85087 30.0701 10.4035 30.1005 10.4267C30.2195 10.5177 30.3616 10.5632 30.5038 10.5632C30.646 10.5632 30.7881 10.5177 30.9072 10.4267C30.9375 10.4035 31.6578 9.8508 32.388 9.12477C33.4726 8.04639 33.9998 7.1657 33.9998 6.43243C33.9998 5.13856 32.9661 4.08594 31.6954 4.08594ZM30.5036 9.0496C29.3938 8.12787 28.336 6.9518 28.336 6.43243C28.336 5.87089 28.7739 5.41408 29.3122 5.41408C29.58 5.41408 29.8298 5.52504 30.0157 5.72666C30.1415 5.86292 30.3184 5.94042 30.5038 5.94042C30.6892 5.94042 30.8662 5.86292 30.9919 5.72666C31.1778 5.52511 31.4277 5.41408 31.6954 5.41408C32.2337 5.41408 32.6717 5.87089 32.6717 6.43243C32.6717 6.95047 31.6135 8.12687 30.5036 9.0496Z" fill="white"/>
<path d="M4.68761 0.5C4.26546 0.5 3.8528 0.619798 3.496 0.838875C3.13919 0.619798 2.72654 0.5 2.30439 0.5C1.03376 0.499934 0 1.55255 0 2.84643C0 3.57969 0.527205 4.46032 1.61176 5.53877C2.34198 6.26486 3.06236 6.81757 3.09264 6.84074C3.21164 6.93179 3.35382 6.97728 3.496 6.97728C3.63818 6.97728 3.78029 6.93179 3.89935 6.84074C3.9297 6.81757 4.65002 6.26486 5.38023 5.53883C6.46479 4.46038 6.992 3.57976 6.992 2.84649C6.992 1.55262 5.95824 0.5 4.68761 0.5ZM3.4958 5.46359C2.38594 4.54186 1.32814 3.36586 1.32814 2.84643C1.32814 2.28489 1.76609 1.82807 2.30439 1.82807C2.57214 1.82807 2.82197 1.93904 3.00791 2.14065C3.13368 2.27692 3.31059 2.35442 3.496 2.35442C3.68141 2.35442 3.85838 2.27692 3.98409 2.14065C4.17003 1.93911 4.41985 1.82807 4.68761 1.82807C5.2259 1.82807 5.66386 2.28489 5.66386 2.84643C5.66386 3.3644 4.60566 4.54087 3.4958 5.46359Z" fill="white"/>
</svg>
