<svg width="29" height="36" viewBox="0 0 29 36" fill="none" xmlns="http://www.w3.org/2000/svg">
<path d="M28.9628 9.38637C28.9451 8.45457 28.9281 7.57432 28.9281 6.72274C28.9281 6.05559 28.3874 5.51471 27.7201 5.51471C22.5538 5.51471 18.6203 4.02996 15.3415 0.842054C14.8725 0.385902 14.1261 0.386063 13.6572 0.842054C10.3788 4.02996 6.44591 5.51471 1.2799 5.51471C0.612741 5.51471 0.0718657 6.05559 0.0718657 6.72274C0.0718657 7.57448 0.0551144 8.45506 0.0372355 9.38701C-0.128345 18.0584 -0.355131 29.9343 14.1037 34.946C14.2319 34.9905 14.3656 35.0127 14.4993 35.0127C14.633 35.0127 14.7668 34.9905 14.8949 34.946C29.3548 29.9341 29.1284 18.0579 28.9628 9.38637ZM14.4994 32.5227C2.0991 28.018 2.28659 18.1501 2.45297 9.43308C2.46296 8.90992 2.47262 8.40287 2.47939 7.90581C7.31795 7.70157 11.1872 6.23534 14.4994 3.34992C17.812 6.23534 21.6819 7.70173 26.5208 7.90581C26.5275 8.40271 26.5372 8.90944 26.5472 9.43227C26.7134 18.1496 26.9008 28.0179 14.4994 32.5227Z" fill="white"/>
<path d="M18.6581 13.5598L12.8275 19.3901L10.3395 16.902C9.86771 16.4304 9.10279 16.4304 8.63118 16.902C8.1594 17.374 8.1594 18.1387 8.63118 18.6105L11.9734 21.9527C12.2092 22.1885 12.5185 22.3064 12.8275 22.3064C13.1366 22.3064 13.4459 22.1885 13.6817 21.9527L20.3663 15.2683C20.8382 14.7965 20.8382 14.0316 20.3665 13.56C19.8948 13.0882 19.1299 13.088 18.6581 13.5598Z" fill="white"/>
</svg>
