<svg width="51" height="46" viewBox="0 0 51 46" fill="none" xmlns="http://www.w3.org/2000/svg">
<path d="M39.0199 10.8442C39.0199 12.3741 37.8951 13.3045 37.0738 13.9873C36.7627 14.2459 36.1837 14.7178 36.1853 14.8941C36.1909 15.5855 35.6295 16.1377 34.9311 16.1377C34.9276 16.1377 34.924 16.1377 34.9205 16.1377C34.227 16.1377 33.662 15.6025 33.6563 14.9145C33.6452 13.5585 34.6446 12.7465 35.4477 12.0789C36.0778 11.555 36.491 11.1863 36.491 10.8489C36.491 10.166 35.9299 9.61035 35.2402 9.61035C34.5502 9.61035 33.9889 10.166 33.9889 10.8489C33.9889 11.5405 33.4228 12.101 32.7244 12.101C32.026 12.101 31.46 11.5405 31.46 10.8489C31.46 8.78523 33.1556 7.1062 35.2399 7.1062C37.3243 7.10606 39.0199 8.78036 39.0199 10.8442ZM34.9555 17.2935C34.2571 17.2935 33.719 17.854 33.719 18.5455V18.5551C33.719 19.2467 34.2572 19.8025 34.9555 19.8025C35.6538 19.8025 36.22 19.2371 36.22 18.5455C36.22 17.854 35.6539 17.2935 34.9555 17.2935ZM9.4683 26.0153C8.76989 26.0153 8.20383 26.5758 8.20383 27.2673C8.20383 27.9589 8.76989 28.5194 9.4683 28.5194H9.57367C10.2721 28.5194 10.8381 27.9589 10.8381 27.2673C10.8381 26.5758 10.2721 26.0153 9.57367 26.0153H9.4683ZM13.8629 26.0153C13.1645 26.0153 12.5984 26.5758 12.5984 27.2673C12.5984 27.9589 13.1645 28.5194 13.8629 28.5194H13.9681C14.6665 28.5194 15.2326 27.9589 15.2326 27.2673C15.2326 26.5758 14.6665 26.0153 13.9681 26.0153H13.8629ZM51 6.01704V20.1099C51 23.4467 48.298 26.1544 44.9282 26.1544H28.5299C28.2093 26.1544 27.9453 26.1526 27.7245 26.148C27.4931 26.1433 27.2326 26.1415 27.131 26.1526C27.0252 26.2221 26.7659 26.4574 26.5159 26.6854C26.4169 26.7757 26.3048 26.875 26.1838 26.9844L21.5443 31.1716C21.1743 31.5059 20.6268 31.5924 20.1685 31.3924C19.7102 31.1922 19.3884 30.7428 19.3884 30.2469V16.9725H6.14248C4.16683 16.9725 2.52893 18.5756 2.52893 20.5316V34.6245C2.52893 36.5807 4.16697 38.1186 6.14248 38.1186H24.4595C24.7749 38.1186 25.0699 38.2621 25.3029 38.4727L29.0826 41.9234V30.0233C29.0826 29.3317 29.6487 28.7712 30.3471 28.7712C31.0455 28.7712 31.6116 29.3317 31.6116 30.0233V44.7613C31.6116 45.2572 31.325 45.6999 30.8665 45.9001C30.7026 45.9718 30.5379 46 30.3655 46C30.0559 46 29.7504 45.8741 29.5128 45.6593L23.9693 40.6226H6.14248C2.77255 40.6226 0 37.9613 0 34.6244V20.5316C0 17.1948 2.77255 14.4684 6.14248 14.4684H19.3884V6.01704C19.3884 2.68013 22.1822 0 25.5521 0H44.9283C48.298 0 51 2.68013 51 6.01704ZM48.4711 6.01704C48.4711 4.06089 46.9036 2.50414 44.9282 2.50414H25.5521C23.5766 2.50414 21.9174 4.06089 21.9174 6.01704V15.7321V27.409L24.4596 25.134C24.5774 25.0275 24.7093 24.9301 24.8055 24.8422C25.9664 23.783 26.2635 23.6137 27.7777 23.6445C27.9842 23.6489 28.2303 23.6504 28.5299 23.6504H44.9282C46.9036 23.6504 48.4711 22.0661 48.4711 20.1101V6.01704Z" fill="white"/>
</svg>
