<svg width="22" height="29" viewBox="0 0 22 29" fill="none" xmlns="http://www.w3.org/2000/svg">
<path d="M7.65179 12.947C7.49736 12.7683 7.29561 12.6189 7.04653 12.4981C6.79745 12.3791 6.49045 12.3193 6.1268 12.3193H3.37695V17.6546H5.0215V16.0406H5.99292C6.29679 16.0406 6.57701 16.002 6.83418 15.9235C7.09011 15.8469 7.31242 15.7292 7.49861 15.5729C7.68479 15.416 7.82988 15.2199 7.932 14.9826C8.03413 14.746 8.08519 14.4658 8.08519 14.1414C8.08519 13.9514 8.05156 13.7509 7.98431 13.5355C7.91706 13.3225 7.80684 13.1257 7.65179 12.947ZM6.45309 14.5187C6.40078 14.5966 6.33353 14.6538 6.25134 14.6912C6.16914 14.7279 6.07574 14.751 5.97112 14.7578C5.86651 14.7647 5.76189 14.769 5.65728 14.769H5.02213V13.6855H5.75442C5.85405 13.6855 5.9512 13.6893 6.04585 13.698C6.1405 13.7055 6.22394 13.726 6.29617 13.7615C6.3684 13.7958 6.42569 13.8481 6.46804 13.9184C6.50976 13.9875 6.53155 14.0828 6.53155 14.2018C6.53155 14.3363 6.5054 14.4421 6.45309 14.5187Z" fill="white"/>
<path d="M13.2024 13.145C13.0131 12.8984 12.7658 12.6986 12.4601 12.5466C12.1537 12.3947 11.7776 12.3193 11.3343 12.3193H8.63672V17.6546H11.0129C11.4762 17.6546 11.8797 17.5924 12.2241 17.4672C12.5672 17.3433 12.8518 17.1646 13.0747 16.9335C13.2989 16.7013 13.4658 16.4204 13.5766 16.0904C13.6862 15.7585 13.741 15.3886 13.741 14.9801C13.741 14.6476 13.6986 14.3182 13.614 13.9975C13.5287 13.6762 13.3923 13.3922 13.2024 13.145ZM12.056 15.3749C12.0286 15.5294 11.9731 15.6738 11.8916 15.8077C11.8088 15.9428 11.6911 16.0555 11.5366 16.1483C11.3822 16.2411 11.178 16.2859 10.9245 16.2859H10.2819V13.6862H10.805C11.1032 13.6862 11.3392 13.736 11.5111 13.8356C11.6823 13.9352 11.8125 14.0548 11.8997 14.1943C11.9868 14.3344 12.0423 14.4739 12.0641 14.6165C12.0865 14.7591 12.0989 14.8718 12.0989 14.9571C12.0971 15.081 12.0834 15.2205 12.056 15.3749Z" fill="white"/>
<path d="M14.4512 17.6546H16.0957V15.6228H18.2254V14.3518H16.0957V13.6862H18.5759V12.3193H14.4512V17.6546Z" fill="white"/>
<path d="M17.5925 0H0V28.057H21.6071V3.8925L17.5925 0ZM19.739 26.1883H1.8681V1.8681H16.6298V4.83215H19.7383L19.739 26.1883Z" fill="white"/>
</svg>
