<svg width="20" height="29" viewBox="0 0 20 29" fill="none" xmlns="http://www.w3.org/2000/svg">
<path d="M16.59 11.5127C13.8067 7.88691 11.1698 5.43892 10.9308 0.63531C10.9208 0.433929 10.9218 0.364593 10.8061 0.164496C10.6905 -0.0356012 10.4001 -0.0331851 10.2754 0.0656513C10.1508 0.164488 9.99655 0.325296 9.75883 0.581424C3.8143 6.98624 -6.23973 23.2446 6.40492 27.9097C12.1181 30.0266 18.5792 27.1552 19.7126 20.9352C20.3217 17.5942 18.5715 14.0608 16.59 11.5127ZM6.25713 25.4142C4.89243 24.6136 4.13684 23.2511 3.71279 21.8346C3.52774 21.1264 3.52133 19.665 3.56759 18.9645C3.85286 17.7405 4.23066 16.5627 4.65472 15.3849C4.89373 16.4241 5.36405 17.4556 6.01941 18.2101C7.5306 19.8574 9.6496 20.5721 10.4977 22.6429C11.2071 24.375 10.1726 25.6516 9.07133 25.8376C7.97008 26.0236 7.00501 25.8838 6.25713 25.4142Z" fill="white"/>
</svg>
