<svg width="364" height="211" viewBox="0 0 364 211" fill="none" xmlns="http://www.w3.org/2000/svg">
<g filter="url(#filter0_d)">
<path d="M28.355 51.6768L27.4639 26.4048C27.4163 25.5493 27.6302 24.8483 28.1055 24.3018C28.3193 24.0404 29.3293 23.8621 31.1353 23.7671L40.4385 23.4463C41.2227 23.5651 41.7098 23.7077 41.8999 23.874C42.4702 24.4206 42.6247 25.1335 42.3633 26.0127L40.5454 51.8906L28.355 51.6768ZM56.6924 67.6099C58.3558 60.3621 59.4014 55.8947 59.8291 54.2075C60.0905 53.1619 58.2132 52.5322 54.1973 52.3184C52.2012 52.1995 50.1694 52.1995 48.1021 52.3184C49.2427 37.8467 49.8368 27.5098 49.8843 21.3076C49.908 19.7868 49.7298 18.6937 49.3496 18.0283L49.314 17.9214L49.2427 17.7788C49.1714 17.66 49.0882 17.5531 48.9932 17.458C48.6605 17.1966 48.1971 17.054 47.603 17.0303C44.7515 17.0065 40.5454 17.054 34.9849 17.1729C28.854 17.3392 24.5885 17.5293 22.1885 17.7432C21.4993 17.7907 21.0241 17.8976 20.7627 18.064C20.6676 18.1353 20.5726 18.2184 20.4775 18.3135L20.3706 18.4561L20.2637 18.5986C19.7884 19.2402 19.6221 19.9531 19.7646 20.7373L21.5825 52.1045L11.2456 53.2808C10.8416 53.661 10.5802 53.9461 10.4614 54.1362C10.2951 54.4214 10.2238 54.6353 10.2476 54.7778C10.2713 54.8491 10.3188 55.0036 10.3901 55.2412L10.4258 55.3838L10.4971 55.5977C10.5446 55.7878 10.5921 55.966 10.6396 56.1323C10.8298 56.7264 11.1268 57.5225 11.5308 58.5205L11.9941 59.7324L12.4575 60.98C13.1704 62.9761 13.4318 64.8534 13.2417 66.6118L12.3149 67.0396V68.9287L24.0776 69.1426V66.6118L22.8301 66.3979C22.5924 66.7069 22.3073 66.7069 21.9746 66.3979C21.6657 66.1366 21.3687 65.6257 21.0835 64.8652C20.7033 63.9385 20.3468 62.6434 20.0142 60.98C19.729 59.5542 29.8521 59.4116 50.3833 60.5522L48.9932 66.7544L47.104 67.1821L47.7456 69.3208H58.6885L58.9023 67.6099H56.6924ZM98.8599 59.8037L97.7192 60.5879C89.022 60.6117 80.5742 60.6235 72.376 60.6235C72.2334 58.7463 72.2572 56.3105 72.4473 53.3164L72.4829 52.4966L72.5542 51.6768C72.578 51.0589 72.6017 50.548 72.6255 50.144C72.673 49.0509 72.673 48.1479 72.6255 47.4351C80.2297 47.1974 86.3962 47.3281 91.125 47.8271C91.1725 47.8509 91.2319 47.9103 91.3032 48.0054C91.3507 48.1004 91.3983 48.2074 91.4458 48.3262C91.4696 48.445 91.4696 48.54 91.4458 48.6113C91.4458 48.6826 91.3983 48.6945 91.3032 48.647C92.4676 49.1222 93.0498 49.0628 93.0498 48.4688C93.0498 45.0706 93.2043 42.1003 93.5132 39.5576L92.6221 39.2368L91.7666 39.8784C85.3981 39.4744 79.1009 39.2843 72.875 39.3081C72.875 38.619 72.8631 37.6447 72.8394 36.3853L72.8037 34.8882V33.3555C72.7799 30.8841 72.875 28.4722 73.0889 26.1196C78.5068 25.3592 85.4575 25.3711 93.9409 26.1553C94.1785 26.179 94.3211 26.2503 94.3687 26.3691V26.4761L94.4043 26.5474C94.4281 26.6187 94.4756 26.6899 94.5469 26.7612C94.8083 26.9751 95.236 27.0583 95.8301 27.0107C95.64 21.6403 95.7826 18.658 96.2578 18.064L95.0815 17.7788L94.8677 18.4561C87.8338 18.1947 80.5623 18.0402 73.0532 17.9927C72.3166 17.9214 71.2829 17.9451 69.9521 18.064L69.1323 18.1353L68.3838 18.2065C67.8135 18.2541 67.362 18.2778 67.0293 18.2778C65.8649 18.8244 65.2827 19.561 65.2827 20.4878C65.259 21.5809 65.3065 24.4919 65.4253 29.2207C65.4966 31.5495 65.5441 33.5218 65.5679 35.1377C65.5916 37.4665 65.6035 39.617 65.6035 41.5894C65.6035 43.2765 65.5798 45.2251 65.5322 47.4351L65.4609 50.3223L65.4253 51.7124L65.3896 53.1025C65.2708 57.5462 65.2471 60.7542 65.3184 62.7266C65.4372 65.3405 66.2808 67.099 67.8491 68.002C68.966 68.6436 70.5106 68.8574 72.4829 68.6436C75.9761 68.2871 80.2178 68.0732 85.208 68.002C90.4596 67.9069 94.7607 68.0138 98.1113 68.3228C98.2301 68.3465 98.2896 68.4535 98.2896 68.6436V68.8931C98.2896 68.9644 98.3133 69 98.3608 69C98.6935 69.1663 99.0143 69.1901 99.3232 69.0713C99.4421 67.9069 99.4896 64.9484 99.4658 60.1958L98.8599 59.8037ZM105.597 18.0996C105.502 22.6859 105.407 26.2028 105.312 28.6504C105.312 28.8167 105.656 28.8167 106.345 28.6504L106.737 27.3672C108.638 27.082 110.599 26.88 112.619 26.7612C116.658 26.5474 119.011 26.8325 119.676 27.6167C120.437 28.5197 120.853 35.2922 120.924 47.9341C120.971 54.2313 120.948 60.4453 120.853 66.5762L119.284 67.3604L119.676 68.7861L131.403 69C131.617 67.8118 131.534 67.0396 131.154 66.6831C130.94 66.4692 130.334 66.4692 129.336 66.6831C128.48 40.4725 128.385 27.1771 129.051 26.7969C131.475 25.4899 136.548 25.3473 144.271 26.3691L144.77 27.7236L146.445 27.9019V18.2065L144.913 18.4917V19.2402C127.542 18.86 115.149 18.86 107.735 19.2402C107.545 19.2402 107.379 19.062 107.236 18.7056L107.165 18.4561L107.094 18.2422C107.022 18.0996 106.963 18.0046 106.916 17.957C106.725 17.7669 106.286 17.8145 105.597 18.0996ZM117.431 31.0029L117.466 30.9316C117.514 30.8604 117.573 30.8128 117.645 30.7891C117.716 30.7653 117.787 30.7653 117.858 30.7891H117.894L117.93 30.8247C118.049 30.8722 118.132 30.9673 118.179 31.1099L118.215 31.2524L118.25 31.395L118.286 31.502L118.322 31.6445L118.357 31.7871L118.393 32.001H118.357C118.714 34.9951 118.892 38.6309 118.892 42.9082C118.892 43.6449 118.892 44.5122 118.892 45.5103V46.7578L118.856 48.0054C118.856 50.0015 118.856 51.5579 118.856 52.6748C118.88 53.3164 118.892 54.0174 118.892 54.7778L118.928 55.7759V56.7026C118.951 58.1997 118.975 59.2453 118.999 59.8394C119.023 60.7899 119.047 61.479 119.07 61.9067C119.094 62.1444 119.118 62.3226 119.142 62.4414V62.5127C119.308 62.6077 119.415 62.7503 119.462 62.9404C119.51 63.083 119.51 63.2375 119.462 63.4038V63.4395C119.344 63.8197 119.165 64.0573 118.928 64.1523C118.761 64.1761 118.607 64.1761 118.464 64.1523C117.894 64.0098 117.68 63.6771 117.823 63.1543V63.0474C117.87 62.9285 117.942 62.8216 118.037 62.7266C118.084 62.6553 118.155 62.584 118.25 62.5127C118.227 62.3939 118.215 62.2513 118.215 62.085C118.215 61.8473 118.215 61.6097 118.215 61.3721C118.191 60.7067 118.179 60.0889 118.179 59.5186C118.132 57.8076 118.108 56.6195 118.108 55.9541C118.084 55.0036 118.084 53.1738 118.108 50.4648C118.108 49.1104 118.108 48.0291 118.108 47.2212C118.108 45.9855 118.096 44.8687 118.072 43.8706C118.025 38.3576 117.823 34.3654 117.466 31.894H117.538H117.466V31.8584L117.431 31.7871L117.395 31.5732C117.395 31.3594 117.407 31.193 117.431 31.0742V31.0029ZM183.729 32.7495C183.872 31.3237 183.528 29.9574 182.696 28.6504C181.983 27.486 180.949 26.6305 179.595 26.084C177.908 25.3711 175.757 25.1453 173.143 25.4067C170.41 25.6681 168.177 26.8444 166.442 28.9355C164.85 30.8366 163.769 33.3079 163.198 36.3496C162.652 39.2249 162.616 42.2428 163.091 45.4033C163.543 48.5638 164.422 51.3678 165.729 53.8154C167.036 56.2393 168.652 58.0452 170.577 59.2334C172.24 60.2552 174.034 60.7424 175.959 60.6948C177.646 60.6711 179.203 60.2552 180.628 59.4473C181.983 58.6631 182.886 57.7126 183.337 56.5957C183.528 56.1442 183.599 55.8115 183.551 55.5977C183.504 55.4313 183.385 55.3481 183.195 55.3481C182.981 55.3481 182.731 55.4194 182.446 55.562L182.125 53.9937L193.853 53.0669C194.066 53.3521 194.221 53.6491 194.316 53.958C194.506 54.6234 194.316 55.0749 193.746 55.3125C193.603 55.3838 193.401 55.6333 193.14 56.061C192.902 56.465 192.783 56.7026 192.783 56.7739C192.807 56.8927 192.783 57.1423 192.712 57.5225C192.617 57.9977 192.462 58.5086 192.249 59.0552C191.678 60.5998 190.847 62.0256 189.753 63.3325C186.403 67.3722 181.413 69.3683 174.783 69.3208C170.434 69.297 166.573 67.8831 163.198 65.0791C160.109 62.4889 157.745 58.9958 156.105 54.5996C154.489 50.3223 153.788 45.8073 154.002 41.0547C154.216 36.1357 155.38 31.6564 157.495 27.6167C159.206 24.3374 161.725 21.8779 165.052 20.2383C167.998 18.7887 171.266 18.0877 174.854 18.1353C178.181 18.159 181.163 18.8006 183.801 20.0601C186.486 21.3195 188.173 22.8997 188.862 24.8008C189.932 26.5355 190.751 28.591 191.322 30.9673C191.417 31.4425 191.607 31.7752 191.892 31.9653C192.106 32.1317 192.367 32.203 192.676 32.1792C193.056 32.1792 193.401 32.0841 193.71 31.894V34.2466L182.054 36.5991L182.339 34.4248C182.601 34.4961 182.862 34.4723 183.124 34.3535C183.599 34.1396 183.801 33.605 183.729 32.7495ZM191.963 63.3682C191.654 63.3682 191.393 63.5107 191.179 63.7959C190.965 64.0573 190.858 64.3662 190.858 64.7227C190.858 64.9128 190.894 65.1029 190.965 65.293C188.922 68.097 185.797 69.9386 181.591 70.8179C178.026 71.5783 174.296 71.5783 170.398 70.8179C166.24 70.0099 162.569 67.7406 159.384 64.0098C156.628 60.8018 154.549 56.9403 153.146 52.4253C151.507 47.0786 151.186 41.3993 152.184 35.3872C153.348 28.4009 156.105 23.5651 160.454 20.8799C160.596 20.7848 160.679 20.666 160.703 20.5234C160.703 20.4046 160.679 20.2858 160.632 20.167C160.561 20.0482 160.465 19.9769 160.347 19.9531C160.204 19.9056 160.073 19.9175 159.955 19.9888C157.293 21.6522 155.107 24.5156 153.396 28.5791C151.59 32.8327 150.711 37.4427 150.758 42.4092C150.782 47.2568 151.673 51.8669 153.432 56.2393C155.143 60.4691 157.578 63.986 160.739 66.79C164.113 69.7842 167.939 71.5664 172.216 72.1367C175.947 72.6357 179.488 72.4456 182.838 71.5664C186.736 70.5208 189.682 68.6673 191.678 66.0059C191.797 66.0534 191.892 66.0771 191.963 66.0771C192.272 66.0771 192.534 65.9465 192.748 65.6851C192.985 65.4237 193.104 65.1029 193.104 64.7227C193.104 64.3662 192.985 64.0573 192.748 63.7959C192.534 63.5107 192.272 63.3682 191.963 63.3682ZM199.199 18.0996C199.104 22.6859 199.009 26.2028 198.914 28.6504C198.914 28.8167 199.259 28.8167 199.948 28.6504L200.34 27.3672C202.241 27.082 204.201 26.88 206.221 26.7612C210.261 26.5474 212.613 26.8325 213.279 27.6167C214.039 28.5197 214.455 35.2922 214.526 47.9341C214.574 54.2313 214.55 60.4453 214.455 66.5762L212.887 67.3604L213.279 68.7861L225.006 69C225.22 67.8118 225.137 67.0396 224.756 66.6831C224.542 66.4692 223.937 66.4692 222.938 66.6831C222.083 40.4725 221.988 27.1771 222.653 26.7969C225.077 25.4899 230.151 25.3473 237.874 26.3691L238.373 27.7236L240.048 27.9019V18.2065L238.515 18.4917V19.2402C221.144 18.86 208.752 18.86 201.338 19.2402C201.148 19.2402 200.981 19.062 200.839 18.7056L200.768 18.4561L200.696 18.2422C200.625 18.0996 200.566 18.0046 200.518 17.957C200.328 17.7669 199.888 17.8145 199.199 18.0996ZM211.033 31.0029L211.069 30.9316C211.116 30.8604 211.176 30.8128 211.247 30.7891C211.318 30.7653 211.39 30.7653 211.461 30.7891H211.497L211.532 30.8247C211.651 30.8722 211.734 30.9673 211.782 31.1099L211.817 31.2524L211.853 31.395L211.889 31.502L211.924 31.6445L211.96 31.7871L211.996 32.001H211.96C212.316 34.9951 212.495 38.6309 212.495 42.9082C212.495 43.6449 212.495 44.5122 212.495 45.5103V46.7578L212.459 48.0054C212.459 50.0015 212.459 51.5579 212.459 52.6748C212.483 53.3164 212.495 54.0174 212.495 54.7778L212.53 55.7759V56.7026C212.554 58.1997 212.578 59.2453 212.602 59.8394C212.625 60.7899 212.649 61.479 212.673 61.9067C212.697 62.1444 212.72 62.3226 212.744 62.4414V62.5127C212.91 62.6077 213.017 62.7503 213.065 62.9404C213.112 63.083 213.112 63.2375 213.065 63.4038V63.4395C212.946 63.8197 212.768 64.0573 212.53 64.1523C212.364 64.1761 212.209 64.1761 212.067 64.1523C211.497 64.0098 211.283 63.6771 211.425 63.1543V63.0474C211.473 62.9285 211.544 62.8216 211.639 62.7266C211.687 62.6553 211.758 62.584 211.853 62.5127C211.829 62.3939 211.817 62.2513 211.817 62.085C211.817 61.8473 211.817 61.6097 211.817 61.3721C211.794 60.7067 211.782 60.0889 211.782 59.5186C211.734 57.8076 211.71 56.6195 211.71 55.9541C211.687 55.0036 211.687 53.1738 211.71 50.4648C211.71 49.1104 211.71 48.0291 211.71 47.2212C211.71 45.9855 211.699 44.8687 211.675 43.8706C211.627 38.3576 211.425 34.3654 211.069 31.894H211.14H211.069V31.8584L211.033 31.7871L210.998 31.5732C210.998 31.3594 211.009 31.193 211.033 31.0742V31.0029ZM256.979 44.7261C257.811 44.8449 259.771 44.6785 262.86 44.2271L263.787 44.1201L264.785 43.9775C265.522 43.8587 266.187 43.7756 266.781 43.728C268.302 43.5617 269.645 43.4666 270.809 43.4429C277.439 43.4429 280.564 46.2944 280.184 51.9976C280.041 54.2313 278.793 56.0848 276.441 57.5581C274.587 58.7225 272.069 59.6255 268.884 60.2671C265.272 60.98 261.672 61.277 258.084 61.1582L256.979 44.7261ZM255.945 24.9434C256.254 25.0146 257.383 24.9671 259.332 24.8008C260.353 24.7057 261.197 24.6463 261.862 24.6226C262.86 24.575 263.751 24.575 264.536 24.6226C269.027 24.884 270.904 26.7018 270.167 30.0762C269.573 32.7852 267.173 34.7812 262.967 36.0645C260.852 36.7061 258.809 37.0744 256.836 37.1694L255.945 24.9434ZM274.124 36.4565C275.882 35.1258 277.011 33.2961 277.51 30.9673C278.033 28.4959 277.641 26.2147 276.334 24.1235C274.789 21.7235 272.223 20.0125 268.635 18.9907C264.405 17.8263 259.023 17.7194 252.488 18.6699C251.965 18.7412 251.454 19.062 250.955 19.6323C250.646 19.9888 250.456 20.262 250.385 20.4521C250.29 20.7373 250.23 21.3789 250.207 22.377C250.111 24.8245 250.04 27.3434 249.993 29.9336C249.945 33.498 249.933 37.015 249.957 40.4844C250.028 49.847 250.385 58.1403 251.026 65.3643C251.145 66.6475 252.714 67.6217 255.731 68.2871C258.749 68.9762 262.219 69.1426 266.14 68.7861C270.536 68.3822 274.421 67.3841 277.795 65.792C281.764 63.9622 284.58 61.5028 286.243 58.4136C287.479 56.1086 288.156 53.7085 288.275 51.2134C288.394 48.7183 287.954 46.4132 286.956 44.2983C285.887 42.0646 284.306 40.2824 282.215 38.9517C279.958 37.5021 277.261 36.6704 274.124 36.4565ZM247.569 20.0244L247.498 19.9175C247.426 19.8462 247.343 19.7987 247.248 19.7749C247.153 19.7511 247.058 19.763 246.963 19.8105H246.927L246.856 19.8462C246.713 19.9412 246.606 20.0838 246.535 20.2739L246.5 20.4521L246.464 20.6304L246.428 20.8086V20.9512H246.393V21.165L246.321 21.4146H246.357C246.143 25.5256 246.131 31.2406 246.321 38.5596C246.393 41.221 246.5 44.1201 246.642 47.2568C246.69 48.4212 246.737 49.6807 246.785 51.0352C246.808 51.5342 246.832 52.0807 246.856 52.6748L246.892 53.459L246.927 54.1719C246.975 55.0036 247.022 55.8947 247.07 56.8452L247.141 58.1284L247.212 59.3047C247.307 61.2057 247.367 62.5365 247.391 63.2969C247.462 64.5088 247.486 65.388 247.462 65.9346C247.462 66.2435 247.45 66.4811 247.426 66.6475V66.7188C247.212 66.8613 247.07 67.0514 246.999 67.2891C246.951 67.5029 246.963 67.7049 247.034 67.895H247.07V67.9307C247.26 68.4059 247.521 68.6792 247.854 68.7505C248.092 68.7743 248.306 68.7505 248.496 68.6792H248.531C248.84 68.5604 249.066 68.3703 249.208 68.1089C249.375 67.8475 249.41 67.5861 249.315 67.3247L249.28 67.1821C249.208 67.0633 249.102 66.9445 248.959 66.8257C248.888 66.7306 248.793 66.6475 248.674 66.5762C248.674 66.4098 248.662 66.2197 248.638 66.0059C248.638 65.7207 248.626 65.4237 248.603 65.1147C248.579 64.283 248.543 63.4989 248.496 62.7622C248.401 60.576 248.329 59.0671 248.282 58.2354C248.163 55.9541 248.044 53.2926 247.925 50.251C247.759 46.5439 247.628 43.0151 247.533 39.6646C247.296 30.6821 247.319 24.5156 247.604 21.165L247.498 21.1294H247.604C247.604 21.1294 247.616 21.0819 247.64 20.9868V20.8799V20.7373C247.664 20.4759 247.652 20.262 247.604 20.0957L247.569 20.0244ZM326.272 42.3379C326.272 47.946 325.618 51.8312 324.312 53.9937C323.218 55.8234 322.078 57.0472 320.89 57.665C319.82 58.2354 318.299 58.5205 316.327 58.5205C311.456 58.5205 308.01 56.8096 305.99 53.3877C304.778 51.3441 303.958 49.7876 303.531 48.7183C302.818 46.936 302.461 45.0588 302.461 43.0864C302.461 36.5278 303.293 32.0604 304.957 29.6841C306.002 28.187 307.677 26.9632 309.982 26.0127C312.026 25.181 314.01 24.7651 315.935 24.7651C318.074 24.7651 319.808 25.181 321.139 26.0127C322.541 26.9157 323.801 28.4722 324.917 30.6821C325.559 31.9416 325.963 33.7594 326.129 36.1357C326.201 37.0387 326.248 38.0843 326.272 39.2725V40.8408V42.3379ZM330.656 23.6958C328.898 21.6284 326.438 20.0957 323.278 19.0977C320.711 18.3135 317.824 17.9214 314.616 17.9214C308.509 17.9214 303.745 19.7511 300.323 23.4106C296.354 27.6405 294.37 34.2228 294.37 43.1577C294.37 45.8667 294.762 48.4212 295.546 50.8213C296.14 52.5798 297.15 54.766 298.576 57.3799C300.501 60.9443 303.222 63.7959 306.739 65.9346C310.256 68.0495 313.808 68.9762 317.396 68.7148C320.391 68.501 322.921 67.598 324.989 66.0059C327.104 64.39 329.1 61.7642 330.977 58.1284C333.306 53.661 334.47 48.1955 334.47 41.7319C334.47 36.4565 334.363 33.0822 334.149 31.6089C333.698 28.591 332.534 25.9533 330.656 23.6958ZM337.144 11.7192C337.072 11.9569 336.977 12.2183 336.858 12.5034C336.692 12.3608 336.395 12.2183 335.967 12.0757C335.753 12.0282 335.504 11.9688 335.219 11.8975C335.955 11.3984 336.645 10.8994 337.286 10.4004C337.334 10.8281 337.286 11.2677 337.144 11.7192ZM335.254 14.5708C335.088 14.4282 334.862 14.2856 334.577 14.1431L334.185 13.9292L333.793 13.7153C333.555 13.6203 333.282 13.5133 332.973 13.3945L334.542 12.3608C334.755 12.3846 334.957 12.4202 335.147 12.4678C335.409 12.5153 335.635 12.5628 335.825 12.6104C336.015 12.6579 336.193 12.7292 336.359 12.8242C336.502 12.8955 336.561 12.9549 336.538 13.0024L336.609 12.9668C336.252 13.5609 335.801 14.0955 335.254 14.5708ZM329.943 15.9253C329.729 15.854 329.468 15.7471 329.159 15.6045L330.193 15.0342L330.442 15.1055L330.728 15.1768C331.322 15.3431 331.821 15.5094 332.225 15.6758C332.391 15.7471 332.557 15.8302 332.724 15.9253C331.773 16.1629 330.846 16.1629 329.943 15.9253ZM330.442 11.1846C330.656 11.541 330.621 12.1589 330.335 13.0381L330.157 13.6084C330.11 13.7747 330.05 13.9411 329.979 14.1074L329.872 14.3213L329.801 14.4639L329.765 14.5352V14.5708L329.729 14.6777L328.803 15.1055C328.826 14.4876 328.91 13.9292 329.052 13.4302C329.337 12.5034 329.801 11.7549 330.442 11.1846ZM330.834 10.8638C331.381 10.4598 332.058 10.1746 332.866 10.0083C332.914 10.3885 332.795 10.9351 332.51 11.6479L332.296 12.2183C332.248 12.3846 332.177 12.5509 332.082 12.7173C332.035 12.8599 331.987 12.9787 331.939 13.0737L331.904 13.1807L331.868 13.2163L331.761 13.5015H331.797C331.393 13.7629 330.965 14.0124 330.514 14.25C330.656 13.8936 330.775 13.5371 330.87 13.1807C331.013 12.6816 331.096 12.2777 331.12 11.9688C331.143 11.5173 331.06 11.137 330.87 10.8281L330.834 10.8638ZM331.654 14.8916C331.417 14.8203 331.155 14.7371 330.87 14.6421L332.403 13.751C332.569 13.8223 332.736 13.8936 332.902 13.9648C333.139 14.0599 333.353 14.1431 333.543 14.2144C334.019 14.4282 334.446 14.6659 334.827 14.9272C334.351 15.2599 333.864 15.5332 333.365 15.7471C333.223 15.6045 332.914 15.4144 332.438 15.1768C332.201 15.0817 331.939 14.9867 331.654 14.8916ZM334.648 9.83008L334.577 9.86572V9.93701V10.0796C334.553 10.1984 334.53 10.3291 334.506 10.4717C334.458 10.6143 334.399 10.7806 334.328 10.9707C334.256 11.1133 334.185 11.2677 334.114 11.4341L334.042 11.6479L333.971 11.7905L333.9 11.8975V11.9331L333.722 12.2539L332.581 13.0024C332.652 12.8361 332.724 12.6579 332.795 12.4678C332.89 12.2539 332.973 12.04 333.044 11.8262C333.33 10.9232 333.448 10.2816 333.401 9.90137L333.757 9.86572C334.042 9.84196 334.34 9.83008 334.648 9.83008ZM336.716 10.0083C336.003 10.5786 335.326 11.0895 334.684 11.541C334.827 11.1846 334.945 10.8757 335.041 10.6143C335.112 10.3291 335.147 10.1034 335.147 9.93701V9.83008C335.67 9.85384 336.193 9.91325 336.716 10.0083ZM337.75 9.65186L337.571 9.61621L337.536 9.58057H337.5L337.393 9.54492H337.25C336.965 9.47363 336.68 9.41423 336.395 9.3667C335.444 9.24788 334.542 9.236 333.686 9.33105C332.498 9.42611 331.488 9.74691 330.656 10.2935C329.611 10.9826 328.898 11.9688 328.518 13.252C328.351 13.8698 328.256 14.5708 328.232 15.355C327.781 15.5688 327.401 15.7827 327.092 15.9966C326.83 16.2104 326.7 16.3768 326.7 16.4956C326.7 16.6382 326.842 16.6619 327.127 16.5669C327.484 16.4956 327.959 16.2936 328.553 15.9609C328.981 16.1748 329.397 16.3411 329.801 16.46C331.916 17.054 333.852 16.5788 335.611 15.0342C336.656 14.1312 337.346 13.0856 337.678 11.8975C337.892 11.137 337.928 10.436 337.785 9.79443L337.75 9.65186ZM350.011 62.6909C348.918 61.3602 347.445 61.2057 345.591 62.2275C343.429 63.4157 342.859 64.9365 343.88 66.79C344.973 68.7861 346.577 69.2733 348.692 68.2515C349.025 69.2495 348.835 70.1763 348.122 71.0317C347.979 71.1981 347.968 71.3644 348.086 71.5308C348.181 71.6971 348.324 71.7684 348.514 71.7446C350.178 71.4357 351.188 70.1287 351.544 67.8237C351.924 65.5187 351.413 63.8078 350.011 62.6909Z" fill="white"/>
<path d="M11.0207 114.769C11.2375 111.316 11.3923 107.863 11.4853 104.41C11.5627 101.793 11.6711 99.269 11.8104 96.838C11.9343 94.5927 12.0272 93.3772 12.0891 93.1914C12.1975 92.8507 14.6363 92.6417 19.4056 92.5643C20.9075 92.5333 22.6728 92.5178 24.7012 92.5178C25.0419 92.5178 25.4058 92.5178 25.7929 92.5178C25.9477 92.5178 26.1103 92.5178 26.2806 92.5178H26.722C27.3723 92.5178 27.7826 92.5178 27.953 92.5178C28.913 92.5023 29.4395 96.1102 29.5324 103.341C29.5634 105.602 29.5479 108.087 29.4859 110.797C29.455 112.16 29.4163 113.29 29.3698 114.188C29.664 114.173 29.8885 114.134 30.0434 114.072C30.1208 114.026 30.1905 114.033 30.2524 114.095C30.2989 114.157 30.3221 114.243 30.3221 114.351C30.3531 114.614 30.2989 114.831 30.1595 115.001C30.0201 115.187 29.1762 115.419 27.6278 115.698C26.0639 115.977 25.1271 116.062 24.8174 115.954C24.709 115.923 24.6935 115.59 24.7709 114.955C24.8638 114.955 24.9567 114.932 25.0496 114.885C25.1271 114.854 25.1967 114.815 25.2587 114.769C25.3361 114.707 25.3903 114.637 25.4213 114.56C25.4832 114.436 25.4832 111.881 25.4213 106.895C25.4058 106.136 25.3903 105.153 25.3748 103.945V103.225C25.3748 102.931 25.3748 102.699 25.3748 102.529C25.3593 101.987 25.3516 101.538 25.3516 101.181C25.3206 99.2149 25.3051 97.9529 25.3051 97.3954C25.3051 97.3335 25.2819 97.1167 25.2354 96.7451C25.1735 96.358 25.1348 96.1412 25.1193 96.0947C25.0729 95.9709 24.7864 95.9244 24.2599 95.9554C24.167 95.9709 24.0586 95.9863 23.9348 96.0018H23.7722L23.6328 96.0251C23.416 96.056 23.2767 96.0715 23.2147 96.0715C23.0909 96.0715 22.8896 96.0715 22.6108 96.0715H22.425H22.216C22.0457 96.0715 21.9063 96.0715 21.7979 96.0715C21.0082 96.087 20.3424 96.0947 19.8004 96.0947C18.0507 96.1102 16.9203 96.1489 16.4093 96.2109C16.2854 96.2264 16.177 96.2418 16.0841 96.2573C15.9448 96.2883 15.8674 96.3193 15.8519 96.3502C15.7899 96.4122 15.7357 96.5825 15.6893 96.8612L15.3409 114.49C15.8054 114.568 16.0841 114.676 16.177 114.815C16.27 114.97 16.2158 115.241 16.0145 115.628L10.2542 115.814C10.1458 115.35 10.1304 115.055 10.2078 114.932C10.3007 114.823 10.5717 114.769 11.0207 114.769ZM9.62712 90.3577C9.51873 90.1255 9.4955 89.901 9.55744 89.6842C9.60389 89.4674 9.72003 89.3125 9.90584 89.2196C10.1071 89.1267 10.3084 89.1267 10.5097 89.2196C10.7265 89.3125 10.8891 89.4751 10.9975 89.7074C11.1059 89.9397 11.1291 90.1642 11.0672 90.381C11.0052 90.5978 10.8814 90.7526 10.6955 90.8455C10.5097 90.9384 10.3084 90.9384 10.0917 90.8455C9.89036 90.7526 9.73551 90.59 9.62712 90.3577ZM47.4866 103.04C47.4866 104.418 47.4402 105.447 47.3472 106.129C47.2079 107.166 46.9369 108.033 46.5343 108.73C45.9924 109.613 45.4349 110.209 44.862 110.519C44.3355 110.797 43.5923 110.937 42.6322 110.937C41.6103 110.937 40.6812 110.751 39.845 110.379C38.8695 109.946 38.1263 109.295 37.6153 108.428C37.0269 107.437 36.6243 106.678 36.4075 106.152C36.0668 105.285 35.8965 104.371 35.8965 103.411C35.8965 101.925 35.9662 100.74 36.1055 99.8575C36.2759 98.6032 36.6088 97.62 37.1043 96.9077C37.6153 96.1644 38.4359 95.5683 39.5663 95.1192C40.5573 94.7166 41.5173 94.5153 42.4464 94.5153C43.4994 94.5153 44.3433 94.7166 44.9781 95.1192C45.6594 95.5528 46.2711 96.3038 46.813 97.3722C47.1227 97.9916 47.324 98.8819 47.4169 100.043C47.4479 100.477 47.4711 100.988 47.4866 101.576C47.4866 101.778 47.4866 102.025 47.4866 102.319V102.691V103.04ZM49.5306 94.0043C48.6944 92.9824 47.5021 92.2314 45.9536 91.7513C44.6994 91.3642 43.2903 91.1707 41.7264 91.1707C38.7689 91.1707 36.4539 92.0688 34.7816 93.865C32.8615 95.9244 31.9015 99.1219 31.9015 103.458C31.9015 104.774 32.0951 106.013 32.4822 107.174C32.7609 108.041 33.2487 109.109 33.9455 110.379C34.8745 112.113 36.1984 113.492 37.9172 114.513C39.6205 115.551 41.347 116.008 43.0968 115.884C44.5523 115.775 45.7833 115.334 46.7898 114.56C47.8118 113.77 48.7873 112.493 49.7164 110.728C50.2583 109.69 50.6764 108.444 50.9706 106.988C51.2648 105.594 51.4119 104.185 51.4119 102.761C51.4119 100.19 51.3577 98.549 51.2493 97.8367C51.0171 96.3657 50.4441 95.0882 49.5306 94.0043ZM60.6794 100.183C60.7258 99.1607 60.8807 97.2251 61.1439 94.376C61.2058 93.6172 61.4071 93.0675 61.7478 92.7269C61.9181 92.5411 62.251 92.4327 62.7465 92.4017C62.9788 92.3707 63.2033 92.363 63.4201 92.3785L73.5237 92.0765C73.725 92.092 73.8953 92.1849 74.0347 92.3552C74.1276 92.4791 74.1663 92.7965 74.1508 93.3075C74.1044 94.3605 74.0579 95.9941 74.0115 98.2084C73.9495 100.655 73.8953 103.009 73.8489 105.269C73.7405 111.37 73.7405 114.544 73.8489 114.792C73.9573 115.071 74.1199 115.272 74.3366 115.396C74.445 115.458 74.5457 115.497 74.6386 115.512L74.5225 116.372L69.1339 116.465C69.0564 116.294 68.9868 116.132 68.9248 115.977C68.8319 115.652 68.8474 115.481 68.9713 115.466C69.1571 115.45 69.3119 115.342 69.4358 115.141C69.5132 115.032 69.5674 114.932 69.5984 114.839L69.97 96.0251L64.6976 96.2109C64.6047 98.9361 64.4421 101.7 64.2098 104.503C63.9156 108.188 63.1259 110.952 61.8407 112.795C60.4161 114.87 58.3025 115.915 55.4998 115.93C55.314 116.054 55.1979 116.24 55.1514 116.488C55.1514 116.534 55.105 116.557 55.012 116.557C54.9501 116.557 54.8572 116.534 54.7333 116.488C54.6095 116.457 54.4778 116.41 54.3385 116.348L54.6172 111.959L54.6869 111.657L55.1979 111.54L55.4998 112.144C55.7011 112.222 55.9489 112.237 56.2431 112.191C56.4908 112.16 56.7463 112.075 57.0095 111.935C57.3192 111.78 57.6134 111.556 57.8922 111.262C58.6044 110.503 59.1929 109.342 59.6574 107.778C60.2148 105.827 60.5555 103.295 60.6794 100.183ZM63.1878 88.1048C63.1569 88.1977 63.1182 88.3061 63.0717 88.4299C63.0098 88.368 62.8936 88.3061 62.7233 88.2441C62.6304 88.2286 62.5298 88.2132 62.4214 88.1977C62.7156 87.9964 62.9943 87.7873 63.2575 87.5705C63.2575 87.7564 63.2343 87.9344 63.1878 88.1048ZM62.4446 89.2429C62.3826 89.1964 62.2897 89.1422 62.1659 89.0803L62.0265 88.9874L61.8639 88.9177C61.7555 88.8712 61.6471 88.8248 61.5387 88.7783C61.74 88.639 61.9491 88.4996 62.1659 88.3603C62.2433 88.3757 62.3207 88.3912 62.3981 88.4067C62.491 88.4222 62.5762 88.4454 62.6536 88.4764C62.731 88.4919 62.8007 88.5151 62.8627 88.5461C62.9246 88.577 62.9556 88.6003 62.9556 88.6157H62.9788C62.8394 88.848 62.6614 89.0571 62.4446 89.2429ZM60.331 89.7771C60.2381 89.7461 60.1374 89.7074 60.029 89.6609L60.4239 89.4287C60.4548 89.4442 60.4858 89.4519 60.5168 89.4519C60.5632 89.4674 60.6019 89.4829 60.6329 89.4984C60.8652 89.5603 61.0665 89.6222 61.2368 89.6842C61.2987 89.7151 61.3607 89.7461 61.4226 89.7771C61.051 89.8855 60.6871 89.8855 60.331 89.7771ZM60.5168 87.8957C60.6097 88.0351 60.6019 88.2828 60.4935 88.639C60.4781 88.7164 60.4548 88.7938 60.4239 88.8712C60.3929 88.9332 60.3619 88.9951 60.331 89.0571C60.331 89.088 60.3232 89.119 60.3077 89.15C60.2922 89.1654 60.2845 89.1809 60.2845 89.1964L60.2613 89.2196V89.2429L60.2381 89.2893C60.1451 89.3358 60.0213 89.39 59.8664 89.4519C59.8819 89.2042 59.9206 88.9796 59.9826 88.7783C60.091 88.4222 60.269 88.128 60.5168 87.8957ZM60.6794 87.7796C60.8961 87.6093 61.1671 87.4931 61.4923 87.4312C61.5078 87.586 61.4613 87.8028 61.3529 88.0815C61.322 88.159 61.291 88.2364 61.26 88.3138C61.2445 88.3757 61.2213 88.4454 61.1903 88.5228C61.1594 88.6003 61.1284 88.6622 61.0974 88.7087L61.051 88.8248H61.0742C60.9039 88.9177 60.7336 89.0183 60.5632 89.1267C60.6252 88.9719 60.6716 88.8248 60.7026 88.6854C60.7645 88.4996 60.7955 88.337 60.7955 88.1977C60.811 88.0273 60.78 87.8802 60.7026 87.7564L60.6794 87.7796ZM61.0045 89.359C60.9116 89.328 60.811 89.2971 60.7026 89.2661C60.9039 89.1577 61.1052 89.0416 61.3065 88.9177C61.3684 88.9487 61.4381 88.9719 61.5155 88.9874C61.5929 89.0338 61.6704 89.0725 61.7478 89.1035C61.9336 89.1809 62.1039 89.2738 62.2588 89.3822C62.0884 89.5216 61.8949 89.63 61.6781 89.7074C61.6317 89.6455 61.5078 89.568 61.3065 89.4751C61.2291 89.4442 61.1284 89.4055 61.0045 89.359ZM62.1891 87.3615L62.1659 87.3847C62.1659 87.3847 62.1659 87.3925 62.1659 87.408C62.1659 87.4234 62.1659 87.4389 62.1659 87.4544C62.1659 87.5009 62.1581 87.5551 62.1426 87.617C62.1272 87.6635 62.1039 87.7254 62.073 87.8028C62.042 87.8648 62.011 87.9267 61.9801 87.9886C61.9801 88.0196 61.9723 88.0506 61.9568 88.0815C61.9413 88.097 61.9336 88.1125 61.9336 88.128L61.9104 88.1512V88.1744V88.1977H61.8871L61.8407 88.3138C61.7013 88.4222 61.5465 88.5228 61.3762 88.6157C61.4071 88.5538 61.4381 88.4841 61.4691 88.4067C61.5 88.3138 61.531 88.2286 61.562 88.1512C61.6858 87.7951 61.7323 87.5396 61.7013 87.3847H61.8407C61.9491 87.3692 62.0652 87.3615 62.1891 87.3615ZM63.0253 87.4312C62.731 87.648 62.4601 87.857 62.2123 88.0583C62.2743 87.9035 62.3207 87.7718 62.3517 87.6635C62.3826 87.5551 62.3981 87.4699 62.3981 87.408V87.3847V87.3615C62.5994 87.377 62.8085 87.4002 63.0253 87.4312ZM63.4201 87.2918L63.3504 87.2686H63.3272C63.3117 87.2686 63.2962 87.2609 63.2807 87.2454C63.2653 87.2454 63.2498 87.2454 63.2343 87.2454C63.1259 87.2144 63.0098 87.1912 62.8859 87.1757C62.5143 87.1292 62.1581 87.1215 61.8175 87.1525C61.3529 87.1989 60.9503 87.3305 60.6097 87.5473C60.1916 87.8106 59.9129 88.2054 59.7735 88.7319C59.6961 88.9796 59.6574 89.2584 59.6574 89.568C59.4716 89.6455 59.3167 89.7306 59.1929 89.8235C59.0845 89.901 59.0303 89.9629 59.0303 90.0093C59.0303 90.0558 59.0922 90.0635 59.2161 90.0326C59.3554 90.0016 59.5413 89.9242 59.7735 89.8003C59.9438 89.8777 60.1064 89.9397 60.2613 89.9861C60.6948 90.11 61.1207 90.11 61.5387 89.9861C61.9104 89.8932 62.2588 89.7074 62.5839 89.4287C62.9865 89.0725 63.2575 88.6545 63.3969 88.1744C63.4898 87.8802 63.5053 87.6093 63.4433 87.3615L63.4201 87.2918ZM77.24 93.354L77.9136 93.5398C77.8516 93.3695 77.8361 93.3927 77.8671 93.6095C77.8671 93.7488 77.9136 94.1514 78.0065 94.8173C78.0374 95.0031 78.0607 95.1579 78.0761 95.2818C78.0916 95.4676 78.1071 95.6457 78.1226 95.816C78.1845 96.2186 78.2387 96.6135 78.2852 97.0006C78.3936 98.0071 78.4942 98.9748 78.5871 99.9039C78.8349 102.474 78.9742 104.867 79.0052 107.081C79.0362 109.93 78.8891 112.439 78.5639 114.606C78.5484 114.699 78.502 114.777 78.4245 114.839C78.3626 114.885 78.2852 114.916 78.1923 114.932C78.0839 114.963 77.9832 114.978 77.8903 114.978L77.9368 115.675L83.5576 115.768C83.6196 115.659 83.6738 115.543 83.7202 115.419C83.7512 115.311 83.7744 115.218 83.7899 115.141C83.8054 115.032 83.7976 114.955 83.7667 114.908C83.6738 114.769 83.3796 114.661 82.8841 114.583C82.8531 109.922 82.8376 107.344 82.8376 106.849C82.8376 106.524 83.186 106.314 83.8828 106.222C84.4248 106.16 85.2764 106.167 86.4377 106.245C86.639 106.26 86.8868 106.276 87.181 106.291L87.9475 106.338C88.6133 106.384 89.1166 106.423 89.4572 106.454C90.6186 106.516 91.4779 106.508 92.0354 106.431C92.376 106.384 92.647 107.731 92.8483 110.472C92.9102 111.463 92.9567 112.439 92.9877 113.399C93.0032 114.312 92.9877 114.831 92.9412 114.955C92.9102 115.079 92.8406 115.172 92.7322 115.234C92.6548 115.295 92.5541 115.334 92.4302 115.35C92.2754 115.365 92.136 115.365 92.0122 115.35L92.0354 116L97.9117 115.884L97.842 115.117C97.6872 115.102 97.5246 115.079 97.3543 115.048C97.2149 115.017 97.1065 114.986 97.0291 114.955C96.9362 114.908 96.8898 114.862 96.8898 114.815C96.8588 114.088 96.8201 112.322 96.7736 109.52C96.7581 108.204 96.7427 107.104 96.7272 106.222C96.6962 104.967 96.673 103.837 96.6575 102.83C96.5181 97.3025 96.3091 94.1282 96.0304 93.3075C95.9994 93.2146 96.2549 93.083 96.7968 92.9127L96.8898 92.2391L91.1992 92.7733C91.2612 93.1759 91.3463 93.4314 91.4547 93.5398C91.5631 93.6482 91.8263 93.7566 92.2444 93.865C92.3683 94.5153 92.4535 95.3515 92.4999 96.3735C92.5928 98.4329 92.4767 100.415 92.1515 102.319C92.0586 102.815 88.8378 102.892 82.4892 102.552L82.3499 93.4004C82.4737 93.4159 82.5976 93.4082 82.7215 93.3772C82.8454 93.3462 82.9383 93.3153 83.0002 93.2843C83.0931 93.2224 83.155 93.1527 83.186 93.0753C83.2015 92.9978 83.2015 92.9204 83.186 92.843C83.1705 92.7811 83.1473 92.7269 83.1163 92.6804C83.0854 92.6185 83.0467 92.5643 83.0002 92.5178C80.5691 92.6572 78.5562 92.7578 76.9613 92.8198L77.24 93.354ZM115.773 103.04C115.773 104.418 115.727 105.447 115.634 106.129C115.494 107.166 115.223 108.033 114.821 108.73C114.279 109.613 113.721 110.209 113.148 110.519C112.622 110.797 111.879 110.937 110.919 110.937C109.897 110.937 108.968 110.751 108.131 110.379C107.156 109.946 106.413 109.295 105.902 108.428C105.313 107.437 104.911 106.678 104.694 106.152C104.353 105.285 104.183 104.371 104.183 103.411C104.183 101.925 104.253 100.74 104.392 99.8575C104.562 98.6032 104.895 97.62 105.391 96.9077C105.902 96.1644 106.722 95.5683 107.853 95.1192C108.844 94.7166 109.804 94.5153 110.733 94.5153C111.786 94.5153 112.63 94.7166 113.265 95.1192C113.946 95.5528 114.558 96.3038 115.099 97.3722C115.409 97.9916 115.61 98.8819 115.703 100.043C115.734 100.477 115.758 100.988 115.773 101.576C115.773 101.778 115.773 102.025 115.773 102.319V102.691V103.04ZM117.817 94.0043C116.981 92.9824 115.789 92.2314 114.24 91.7513C112.986 91.3642 111.577 91.1707 110.013 91.1707C107.055 91.1707 104.74 92.0688 103.068 93.865C101.148 95.9244 100.188 99.1219 100.188 103.458C100.188 104.774 100.381 106.013 100.769 107.174C101.047 108.041 101.535 109.109 102.232 110.379C103.161 112.113 104.485 113.492 106.204 114.513C107.907 115.551 109.633 116.008 111.383 115.884C112.839 115.775 114.07 115.334 115.076 114.56C116.098 113.77 117.074 112.493 118.003 110.728C118.545 109.69 118.963 108.444 119.257 106.988C119.551 105.594 119.698 104.185 119.698 102.761C119.698 100.19 119.644 98.549 119.536 97.8367C119.304 96.3657 118.731 95.0882 117.817 94.0043ZM127.27 102.97C127.41 101.808 127.781 100.632 128.385 99.4394C128.912 98.4174 129.562 97.6045 130.336 97.0006C131.296 96.2573 132.419 95.8702 133.704 95.8392C136.182 95.7773 137.877 96.3657 138.791 97.6045C139.162 98.1 139.464 98.7658 139.697 99.602C139.789 99.9271 139.89 100.33 139.998 100.81L140.115 101.437L140.254 102.064C139.495 102.11 135.167 102.412 127.27 102.97ZM137.955 92.6107C134.656 91.9914 131.738 92.4017 129.198 93.8417C126.628 95.2818 124.909 97.5116 124.042 100.531C123.175 103.597 123.283 106.531 124.367 109.334C124.893 110.681 125.621 111.858 126.55 112.864C127.51 113.902 128.625 114.676 129.895 115.187C131.103 115.683 132.434 115.954 133.89 116C135.067 116.031 136.298 115.923 137.583 115.675C139.054 115.396 140.316 115.024 141.369 114.56L142.321 115.257L142.832 114.421C141.717 112.965 140.904 111.633 140.393 110.426C140.393 110.302 140.068 110.286 139.418 110.379L139.534 111.262C139.162 111.479 138.69 111.695 138.117 111.912C137.606 112.098 137.095 112.253 136.584 112.377C135.965 112.516 135.353 112.593 134.749 112.609C133.247 112.671 131.923 112.322 130.777 111.564C129.353 110.635 128.269 109.102 127.526 106.965L142.577 105.989C142.716 105.989 142.855 105.927 142.995 105.803C143.119 105.695 143.219 105.54 143.297 105.339C143.374 105.107 143.413 104.812 143.413 104.456C143.413 104.379 143.428 104.077 143.459 103.551C143.459 103.303 143.467 103.086 143.482 102.9C143.482 102.621 143.482 102.366 143.482 102.134C143.482 100.74 143.366 99.5013 143.134 98.4174C142.437 95.0573 140.711 93.1217 137.955 92.6107ZM173.561 103.04C173.561 104.418 173.515 105.447 173.422 106.129C173.282 107.166 173.011 108.033 172.609 108.73C172.067 109.613 171.509 110.209 170.936 110.519C170.41 110.797 169.667 110.937 168.707 110.937C167.685 110.937 166.756 110.751 165.919 110.379C164.944 109.946 164.201 109.295 163.69 108.428C163.101 107.437 162.699 106.678 162.482 106.152C162.141 105.285 161.971 104.371 161.971 103.411C161.971 101.925 162.041 100.74 162.18 99.8575C162.35 98.6032 162.683 97.62 163.179 96.9077C163.69 96.1644 164.51 95.5683 165.641 95.1192C166.632 94.7166 167.592 94.5153 168.521 94.5153C169.574 94.5153 170.418 94.7166 171.053 95.1192C171.734 95.5528 172.345 96.3038 172.887 97.3722C173.197 97.9916 173.398 98.8819 173.491 100.043C173.522 100.477 173.546 100.988 173.561 101.576C173.561 101.778 173.561 102.025 173.561 102.319V102.691V103.04ZM175.605 94.0043C174.769 92.9824 173.577 92.2314 172.028 91.7513C170.774 91.3642 169.365 91.1707 167.801 91.1707C164.843 91.1707 162.528 92.0688 160.856 93.865C158.936 95.9244 157.976 99.1219 157.976 103.458C157.976 104.774 158.169 106.013 158.557 107.174C158.835 108.041 159.323 109.109 160.02 110.379C160.949 112.113 162.273 113.492 163.992 114.513C165.695 115.551 167.421 116.008 169.171 115.884C170.627 115.775 171.858 115.334 172.864 114.56C173.886 113.77 174.862 112.493 175.791 110.728C176.333 109.69 176.751 108.444 177.045 106.988C177.339 105.594 177.486 104.185 177.486 102.761C177.486 100.19 177.432 98.549 177.324 97.8367C177.091 96.3657 176.519 95.0882 175.605 94.0043ZM181.365 91.8443C181.319 94.0121 181.28 95.6844 181.249 96.8612C181.249 96.9386 181.412 96.9386 181.737 96.8612L181.923 96.2341C182.821 96.1102 183.75 96.0173 184.71 95.9554C185.546 95.9089 186.235 95.9089 186.777 95.9554C187.458 96.0173 187.884 96.1489 188.054 96.3502C188.411 96.7993 188.612 100.012 188.658 105.989C188.674 108.993 188.658 111.943 188.612 114.839L187.869 115.21L188.054 115.907L193.861 116C193.877 115.861 193.884 115.706 193.884 115.535C193.9 115.21 193.853 114.994 193.745 114.885C193.637 114.792 193.35 114.792 192.886 114.885C192.777 111.773 192.692 108.653 192.63 105.525C192.584 102.784 192.56 100.624 192.56 99.0445C192.576 97.0625 192.638 96.0405 192.746 95.9786C193.304 95.6689 194.31 95.5063 195.766 95.4908C196.881 95.4754 198.197 95.5683 199.714 95.7696L199.97 96.4199L200.759 96.5128V91.9139L200.039 92.0301V92.4017C197.98 92.3552 195.696 92.3165 193.188 92.2856C191.004 92.2701 189.069 92.2623 187.381 92.2623C185.26 92.2778 183.595 92.3165 182.387 92.3785C182.31 92.394 182.232 92.3088 182.155 92.123L182.108 92.0301L182.085 91.9139C182.054 91.852 182.031 91.8133 182.016 91.7978C181.923 91.6894 181.706 91.7049 181.365 91.8443ZM198.019 105.083C197.941 105.052 197.794 105.022 197.577 104.991C197.407 104.975 197.19 104.967 196.927 104.967C197.082 104.812 197.244 104.634 197.415 104.433C197.477 104.449 197.546 104.456 197.624 104.456C197.717 104.472 197.81 104.487 197.903 104.503C198.104 104.518 198.29 104.557 198.46 104.619C198.336 104.789 198.189 104.944 198.019 105.083ZM196.393 105.548L196.718 105.2C196.795 105.2 196.873 105.2 196.95 105.2C197.183 105.2 197.392 105.207 197.577 105.223C197.639 105.223 197.709 105.231 197.786 105.246C197.461 105.447 197.113 105.556 196.741 105.571C196.633 105.571 196.517 105.563 196.393 105.548ZM196.532 104.433C196.532 104.511 196.532 104.588 196.532 104.665C196.532 104.743 196.532 104.812 196.532 104.874C196.517 104.905 196.509 104.936 196.509 104.967C196.509 104.983 196.509 105.006 196.509 105.037V105.06V105.083L196.486 105.13C196.408 105.207 196.315 105.3 196.207 105.409C196.13 105.161 196.091 104.936 196.091 104.735C196.075 104.348 196.161 104.007 196.346 103.713C196.47 103.821 196.532 104.061 196.532 104.433ZM197.206 103.62C197.19 103.713 197.183 103.798 197.183 103.876C197.183 103.953 197.175 104.031 197.159 104.108C197.159 104.154 197.159 104.201 197.159 104.247C197.144 104.263 197.136 104.278 197.136 104.294V104.317L197.113 104.433H197.159C197.02 104.572 196.881 104.72 196.741 104.874C196.757 104.72 196.764 104.565 196.764 104.41C196.749 104.209 196.726 104.046 196.695 103.922C196.648 103.752 196.571 103.62 196.463 103.527V103.551C196.617 103.318 196.842 103.125 197.136 102.97C197.198 103.109 197.221 103.326 197.206 103.62ZM197.786 102.691L197.763 102.714C197.763 102.714 197.771 102.722 197.786 102.738C197.786 102.753 197.786 102.769 197.786 102.784C197.802 102.83 197.81 102.885 197.81 102.947C197.81 103.117 197.794 103.326 197.763 103.574L197.74 103.713C197.616 103.852 197.5 104 197.392 104.154C197.392 104.077 197.399 104 197.415 103.922C197.415 103.814 197.415 103.721 197.415 103.643C197.415 103.256 197.384 103.001 197.322 102.877L197.461 102.807C197.554 102.761 197.663 102.722 197.786 102.691ZM198.553 103.388C198.46 103.388 198.359 103.396 198.251 103.411C198.468 103.132 198.669 102.854 198.855 102.575C198.932 102.73 198.971 102.908 198.971 103.109C198.971 103.202 198.963 103.31 198.948 103.434C198.87 103.403 198.739 103.388 198.553 103.388ZM198.297 103.62C198.406 103.605 198.499 103.597 198.576 103.597C198.654 103.597 198.723 103.605 198.785 103.62C198.863 103.636 198.901 103.651 198.901 103.667V103.643C198.839 103.907 198.739 104.162 198.599 104.41C198.522 104.379 198.421 104.356 198.297 104.34L198.112 104.294L197.926 104.271C197.817 104.255 197.701 104.24 197.577 104.224C197.732 104.054 197.895 103.868 198.065 103.667C198.143 103.651 198.22 103.636 198.297 103.62ZM197.972 102.621C198.174 102.559 198.383 102.521 198.599 102.505C198.398 102.8 198.205 103.078 198.019 103.341C198.034 103.187 198.034 103.047 198.019 102.923C198.019 102.815 198.011 102.73 197.995 102.668L197.972 102.621ZM199.18 103.086C199.18 102.792 199.11 102.529 198.971 102.296L198.948 102.25H198.878H198.855H198.832C198.801 102.25 198.77 102.25 198.739 102.25C198.63 102.265 198.514 102.281 198.39 102.296C198.019 102.358 197.678 102.459 197.368 102.598C196.919 102.784 196.571 103.032 196.323 103.341C195.998 103.729 195.843 104.193 195.859 104.735C195.874 104.983 195.928 105.262 196.021 105.571C195.866 105.695 195.742 105.819 195.65 105.943C195.572 106.067 195.541 106.152 195.557 106.198C195.572 106.245 195.634 106.237 195.742 106.175C195.866 106.098 196.021 105.958 196.207 105.757C196.408 105.788 196.586 105.803 196.741 105.803C197.175 105.788 197.577 105.656 197.949 105.409C198.29 105.192 198.568 104.905 198.785 104.549C199.064 104.069 199.196 103.581 199.18 103.086ZM203.407 93.0288C203.531 93.1217 203.655 93.2301 203.779 93.354C204.011 93.5863 204.12 93.803 204.104 94.0043C204.027 95.3515 204.151 99.4239 204.476 106.222C204.646 109.628 204.824 112.903 205.01 116.046C204.917 116.046 204.824 116.062 204.731 116.093C204.654 116.108 204.592 116.139 204.545 116.186C204.499 116.248 204.476 116.317 204.476 116.395C204.491 116.736 204.561 116.937 204.685 116.999C207.565 116.674 209.408 116.503 210.213 116.488C210.46 116.488 210.577 116.333 210.561 116.023C210.546 115.915 210.515 115.806 210.468 115.698C210.422 115.59 210.383 115.528 210.352 115.512C210.213 115.419 209.88 115.373 209.353 115.373L208.703 106.175C208.92 106.129 209.175 106.051 209.469 105.943C210.058 105.711 210.546 105.432 210.933 105.107C211.753 105.107 212.559 105.385 213.348 105.943C214.154 106.531 214.703 107.251 214.997 108.103C215.028 108.165 215.059 108.25 215.09 108.358L215.137 108.498L215.206 108.637C215.284 108.885 215.354 109.094 215.415 109.264C215.601 109.791 215.787 110.263 215.973 110.681C216.468 111.873 217.003 112.864 217.576 113.654C219.186 115.884 221.098 116.557 223.313 115.675C223.405 115.768 223.514 115.845 223.638 115.907C223.731 115.954 223.816 115.992 223.893 116.023C223.986 116.039 224.125 116.008 224.311 115.93C224.497 115.837 224.575 115.752 224.544 115.675C224.42 115.396 224.296 114.994 224.172 114.467C224.079 114.049 223.986 113.569 223.893 113.027C223.862 112.81 223.824 112.586 223.777 112.353C223.762 112.183 223.738 112.013 223.707 111.842C223.707 111.78 223.7 111.719 223.684 111.657C223.684 111.61 223.676 111.571 223.661 111.54C223.661 111.525 223.661 111.51 223.661 111.494C223.351 111.556 223.165 111.626 223.104 111.703C223.057 111.75 223.042 111.881 223.057 112.098C222.98 112.144 222.864 112.183 222.709 112.214C222.585 112.245 222.461 112.261 222.337 112.261C222.167 112.261 222.004 112.245 221.849 112.214C220.905 112.013 220.123 111.208 219.503 109.798C219.364 109.473 219.194 109.055 218.992 108.544L218.876 108.242L218.76 107.964C218.652 107.731 218.567 107.53 218.505 107.36C218.133 106.462 217.785 105.749 217.459 105.223C217.041 104.526 216.561 103.961 216.019 103.527C215.415 103.016 214.688 102.637 213.836 102.389C215.323 101.274 216.321 100.337 216.832 99.5787C217.266 98.9439 217.761 98.0845 218.319 97.0006C218.427 96.7219 218.598 96.4277 218.83 96.118C219.031 95.8547 219.263 95.6379 219.527 95.4676C219.867 95.2508 220.231 95.1192 220.618 95.0728L220.827 95.3283C220.936 95.2973 221.044 95.2508 221.152 95.1889C221.245 95.127 221.323 95.0728 221.385 95.0263C221.447 94.9644 221.47 94.9102 221.454 94.8637C221.423 94.7553 221.346 94.5773 221.222 94.3295C221.191 94.2985 221.152 94.2443 221.106 94.1669L221.06 94.074L221.013 93.9811C220.92 93.8263 220.843 93.6869 220.781 93.563C220.378 92.7733 220.131 92.0223 220.038 91.31C220.022 91.2171 219.836 91.2326 219.48 91.3565L219.364 91.8907C218.853 91.9836 218.28 92.2314 217.645 92.634C216.406 93.4237 215.501 94.5618 214.928 96.0483C214.355 97.5658 213.054 99.1219 211.026 100.717C210.282 101.259 209.686 101.669 209.237 101.948C209.051 102.056 208.904 102.134 208.796 102.18C208.703 102.211 208.664 102.203 208.68 102.157C208.757 101.894 208.494 99.1607 207.89 93.9579C207.936 93.834 207.998 93.7179 208.076 93.6095C208.246 93.3927 208.424 93.2921 208.61 93.3075C208.811 93.323 208.873 93.1991 208.796 92.9359C208.749 92.812 208.695 92.6804 208.633 92.5411C206.636 92.8972 205.444 93.0675 205.056 93.052C204.669 93.0366 204.174 92.9049 203.57 92.6572L203.407 93.0288ZM239.502 99.5323C239.362 100.492 238.859 101.228 237.992 101.739C237.311 102.157 236.412 102.428 235.298 102.552C234.028 102.676 232.789 102.629 231.581 102.412C231.411 101.251 231.287 100.082 231.21 98.9052C231.148 97.8677 231.148 97.0393 231.21 96.4199C231.303 95.6457 231.488 95.2276 231.767 95.1657C232.247 95.0418 232.897 94.9721 233.718 94.9566C234.74 94.9566 235.661 95.0728 236.482 95.305C237.52 95.5992 238.302 96.056 238.828 96.6754C239.447 97.4187 239.672 98.371 239.502 99.5323ZM227.191 92.5178C227.145 92.7811 227.129 93.0366 227.145 93.2843C227.176 93.5011 227.222 93.7101 227.284 93.9114C227.346 94.1282 227.424 94.3063 227.517 94.4456L227.935 115.024L226.866 115.28L227.261 115.954L232.719 116L232.859 114.885L231.674 114.513L231.395 106.407C233.346 106.593 235.112 106.493 236.691 106.105C238.224 105.734 239.517 105.122 240.57 104.271C241.592 103.434 242.32 102.405 242.753 101.181C243.202 99.9426 243.303 98.5877 243.055 97.1167C242.668 94.6392 240.787 93.0675 237.411 92.4017C236.172 92.1539 234.709 92.0223 233.021 92.0068C232.402 92.0068 231.713 92.0223 230.954 92.0533C230.675 92.0533 230.358 92.061 230.002 92.0765C229.878 92.092 229.731 92.0997 229.561 92.0997L229.351 92.123H229.142C228.988 92.1385 228.825 92.1462 228.655 92.1462C228.546 92.1462 228.415 92.1462 228.26 92.1462C227.966 92.1462 227.772 92.1462 227.679 92.1462C227.524 92.1617 227.408 92.2004 227.331 92.2623C227.253 92.3088 227.207 92.394 227.191 92.5178ZM251.44 112.307C250.852 112.199 250.581 111.084 250.627 108.962C250.643 107.894 250.72 106.841 250.859 105.803C251.819 105.602 252.803 105.571 253.809 105.711C254.692 105.834 255.42 106.09 255.993 106.477C256.689 106.988 257.107 107.7 257.247 108.614C257.556 110.673 256.86 111.928 255.156 112.377C254.568 112.516 253.871 112.562 253.066 112.516C252.772 112.501 252.462 112.47 252.137 112.423C252.013 112.408 251.889 112.384 251.765 112.353C251.672 112.338 251.564 112.322 251.44 112.307ZM248.583 115.954C249.775 116.124 250.914 116.232 251.998 116.279C253.438 116.325 254.723 116.248 255.853 116.046C258.857 115.535 260.506 114.181 260.8 111.982C261.249 108.668 260.599 106.175 258.849 104.503C257.1 102.83 254.367 102.079 250.65 102.25L250.093 93.4004L251.138 93.0985L250.999 92.0301L246.005 92.4946L245.68 93.1449L246.632 93.4237L246.586 113.91C246.617 114.606 246.725 115.063 246.911 115.28C247.081 115.497 247.244 115.636 247.399 115.698C247.615 115.791 248.01 115.876 248.583 115.954ZM262.519 92.7733L263.866 93.3308C263.773 95.6534 263.704 98.2393 263.657 101.088C263.58 106.771 263.657 110.929 263.89 113.561C263.905 113.762 263.773 113.894 263.495 113.956L263.402 113.979H263.332C263.255 113.995 263.201 114.01 263.17 114.026C263.046 114.057 262.961 114.111 262.914 114.188C262.697 114.56 262.666 115.086 262.821 115.768C263.642 115.799 264.517 115.853 265.446 115.93C265.585 115.93 265.755 115.946 265.957 115.977H266.189L266.421 116C266.746 116.031 267.002 116.054 267.188 116.07C267.668 116.085 268.016 116.054 268.233 115.977C268.481 115.899 268.667 115.737 268.79 115.489C268.883 115.257 268.93 115.055 268.93 114.885C268.93 114.73 268.891 114.599 268.814 114.49C268.721 114.366 268.605 114.289 268.465 114.258L267.954 114.328C267.799 112.253 267.676 109.837 267.583 107.081C267.505 104.681 267.482 102.451 267.513 100.392C267.528 97.8367 267.621 95.6302 267.792 93.7721C267.807 93.6482 267.892 93.5243 268.047 93.4004C268.109 93.354 268.187 93.3075 268.279 93.2611L268.396 93.1914L268.512 93.1217C268.697 93.0288 268.814 92.9437 268.86 92.8662C268.938 92.7578 268.922 92.634 268.814 92.4946C268.519 92.1075 266.483 91.9991 262.705 92.1694L262.519 92.7733ZM271.763 91.8443C271.717 94.0121 271.678 95.6844 271.647 96.8612C271.647 96.9386 271.81 96.9386 272.135 96.8612L272.321 96.2341C273.219 96.1102 274.148 96.0173 275.108 95.9554C275.944 95.9089 276.633 95.9089 277.175 95.9554C277.857 96.0173 278.282 96.1489 278.453 96.3502C278.809 96.7993 279.01 100.012 279.057 105.989C279.072 108.993 279.057 111.943 279.01 114.839L278.267 115.21L278.453 115.907L284.259 116C284.275 115.861 284.283 115.706 284.283 115.535C284.298 115.21 284.252 114.994 284.143 114.885C284.035 114.792 283.748 114.792 283.284 114.885C283.175 111.773 283.09 108.653 283.028 105.525C282.982 102.784 282.959 100.624 282.959 99.0445C282.974 97.0625 283.036 96.0405 283.144 95.9786C283.702 95.6689 284.708 95.5063 286.164 95.4908C287.279 95.4754 288.595 95.5683 290.112 95.7696L290.368 96.4199L291.158 96.5128V91.9139L290.438 92.0301V92.4017C288.378 92.3552 286.094 92.3165 283.586 92.2856C281.402 92.2701 279.467 92.2623 277.779 92.2623C275.658 92.2778 273.993 92.3165 272.785 92.3785C272.708 92.394 272.631 92.3088 272.553 92.123L272.507 92.0301L272.483 91.9139C272.452 91.852 272.429 91.8133 272.414 91.7978C272.321 91.6894 272.104 91.7049 271.763 91.8443ZM288.417 105.083C288.34 105.052 288.192 105.022 287.976 104.991C287.805 104.975 287.589 104.967 287.325 104.967C287.48 104.812 287.643 104.634 287.813 104.433C287.875 104.449 287.945 104.456 288.022 104.456C288.115 104.472 288.208 104.487 288.301 104.503C288.502 104.518 288.688 104.557 288.858 104.619C288.734 104.789 288.587 104.944 288.417 105.083ZM286.791 105.548L287.116 105.2C287.194 105.2 287.271 105.2 287.349 105.2C287.581 105.2 287.79 105.207 287.976 105.223C288.038 105.223 288.107 105.231 288.185 105.246C287.86 105.447 287.511 105.556 287.139 105.571C287.031 105.571 286.915 105.563 286.791 105.548ZM286.93 104.433C286.93 104.511 286.93 104.588 286.93 104.665C286.93 104.743 286.93 104.812 286.93 104.874C286.915 104.905 286.907 104.936 286.907 104.967C286.907 104.983 286.907 105.006 286.907 105.037V105.06V105.083L286.884 105.13C286.807 105.207 286.714 105.3 286.605 105.409C286.528 105.161 286.489 104.936 286.489 104.735C286.474 104.348 286.559 104.007 286.745 103.713C286.869 103.821 286.93 104.061 286.93 104.433ZM287.604 103.62C287.589 103.713 287.581 103.798 287.581 103.876C287.581 103.953 287.573 104.031 287.558 104.108C287.558 104.154 287.558 104.201 287.558 104.247C287.542 104.263 287.534 104.278 287.534 104.294V104.317L287.511 104.433H287.558C287.418 104.572 287.279 104.72 287.139 104.874C287.155 104.72 287.163 104.565 287.163 104.41C287.147 104.209 287.124 104.046 287.093 103.922C287.047 103.752 286.969 103.62 286.861 103.527V103.551C287.016 103.318 287.24 103.125 287.534 102.97C287.596 103.109 287.619 103.326 287.604 103.62ZM288.185 102.691L288.161 102.714C288.161 102.714 288.169 102.722 288.185 102.738C288.185 102.753 288.185 102.769 288.185 102.784C288.2 102.83 288.208 102.885 288.208 102.947C288.208 103.117 288.192 103.326 288.161 103.574L288.138 103.713C288.014 103.852 287.898 104 287.79 104.154C287.79 104.077 287.798 104 287.813 103.922C287.813 103.814 287.813 103.721 287.813 103.643C287.813 103.256 287.782 103.001 287.72 102.877L287.86 102.807C287.952 102.761 288.061 102.722 288.185 102.691ZM288.951 103.388C288.858 103.388 288.758 103.396 288.649 103.411C288.866 103.132 289.067 102.854 289.253 102.575C289.331 102.73 289.369 102.908 289.369 103.109C289.369 103.202 289.361 103.31 289.346 103.434C289.269 103.403 289.137 103.388 288.951 103.388ZM288.696 103.62C288.804 103.605 288.897 103.597 288.974 103.597C289.052 103.597 289.121 103.605 289.183 103.62C289.261 103.636 289.3 103.651 289.3 103.667V103.643C289.238 103.907 289.137 104.162 288.998 104.41C288.92 104.379 288.82 104.356 288.696 104.34L288.51 104.294L288.324 104.271C288.216 104.255 288.1 104.24 287.976 104.224C288.13 104.054 288.293 103.868 288.463 103.667C288.541 103.651 288.618 103.636 288.696 103.62ZM288.37 102.621C288.572 102.559 288.781 102.521 288.998 102.505C288.796 102.8 288.603 103.078 288.417 103.341C288.432 103.187 288.432 103.047 288.417 102.923C288.417 102.815 288.409 102.73 288.394 102.668L288.37 102.621ZM289.578 103.086C289.578 102.792 289.509 102.529 289.369 102.296L289.346 102.25H289.276H289.253H289.23C289.199 102.25 289.168 102.25 289.137 102.25C289.029 102.265 288.912 102.281 288.789 102.296C288.417 102.358 288.076 102.459 287.767 102.598C287.318 102.784 286.969 103.032 286.721 103.341C286.396 103.729 286.241 104.193 286.257 104.735C286.272 104.983 286.327 105.262 286.419 105.571C286.265 105.695 286.141 105.819 286.048 105.943C285.97 106.067 285.939 106.152 285.955 106.198C285.97 106.245 286.032 106.237 286.141 106.175C286.265 106.098 286.419 105.958 286.605 105.757C286.807 105.788 286.985 105.803 287.139 105.803C287.573 105.788 287.976 105.656 288.347 105.409C288.688 105.192 288.967 104.905 289.183 104.549C289.462 104.069 289.594 103.581 289.578 103.086ZM298.265 93.9114C298.048 96.327 297.901 98.8355 297.824 101.437C297.746 103.713 297.762 105.594 297.87 107.081C298.01 108.924 298.281 110.1 298.683 110.611C299.256 111.742 300.208 112.322 301.54 112.353C302.779 112.431 303.909 111.881 304.931 110.704C305.938 109.543 306.603 108.219 306.929 106.733C307.161 105.571 307.44 103.876 307.765 101.646C308.074 99.3542 308.268 96.9309 308.345 94.376L307.533 93.865V93.0056C308.709 93.1449 309.484 93.1759 309.855 93.0985C310.227 93.0366 311.055 93.0211 312.34 93.052L312.294 93.6095L311.783 93.865C311.551 102.939 311.706 108.366 312.248 110.147C312.526 111.107 312.991 111.502 313.641 111.331C313.966 111.254 314.26 111.084 314.524 110.82L314.57 109.961L315.476 109.798L315.592 114.815L315.778 116.139L314.826 116.07C314.81 115.915 314.748 115.768 314.64 115.628C314.439 115.334 314.129 115.203 313.711 115.234C313.169 115.295 312.557 115.195 311.876 114.932C311.133 114.653 310.629 114.312 310.366 113.91C309.886 113.166 309.584 112.206 309.46 111.029C309.197 111.587 308.841 112.199 308.392 112.864C307.509 114.165 306.588 115.032 305.628 115.466C305.365 115.59 305.063 115.714 304.722 115.837C304.289 115.992 303.847 116.116 303.398 116.209C302.221 116.488 301.13 116.588 300.123 116.511C297.243 116.263 295.462 114.599 294.781 111.517C293.744 106.748 293.829 101.019 295.037 94.3295L294.177 93.9114L294.27 93.052C295.323 93.1914 296.082 93.2069 296.546 93.0985C297.026 93.0056 297.824 92.9437 298.939 92.9127L298.985 93.7024L298.265 93.9114ZM318.24 92.7733C318.457 92.7733 318.658 92.8585 318.844 93.0288C319.185 93.354 319.216 94.345 318.937 96.0018C318.55 98.3245 318.364 101.987 318.379 106.988C318.379 109.357 318.449 111.293 318.588 112.795C318.759 114.529 318.999 115.52 319.308 115.768C320.052 116.325 322.645 114.204 327.089 109.404C329.304 107.004 331.448 104.549 333.523 102.041C333.693 104.193 333.856 106.338 334.011 108.475C334.29 112.779 334.352 114.932 334.197 114.932C334.011 114.916 333.825 115.017 333.639 115.234L333.988 116.325L339.376 115.489C339.423 115.396 339.454 115.295 339.469 115.187C339.485 115.094 339.485 115.009 339.469 114.932C339.469 114.854 339.446 114.8 339.399 114.769C339.291 114.676 338.981 114.614 338.47 114.583C338.316 111.719 338.161 108.676 338.006 105.455C337.882 102.621 337.789 100.214 337.727 98.2316C337.665 95.7541 337.657 94.0121 337.704 93.0056C336.372 93.0056 335.567 93.0753 335.288 93.2146C334.932 93.354 334.321 94.0121 333.453 95.1889C333.128 95.6225 332.679 96.2418 332.106 97.047C331.998 97.1864 331.866 97.3645 331.711 97.5812L331.526 97.86L331.317 98.1387C330.991 98.6032 330.72 98.9903 330.504 99.3C329.048 101.328 327.763 103.032 326.648 104.41C325.069 106.376 323.567 108.033 322.142 109.38L322.63 93.6559C322.769 93.594 322.916 93.5398 323.071 93.4933C323.211 93.4624 323.334 93.4392 323.443 93.4237C323.567 93.4237 323.667 93.4469 323.745 93.4933C323.807 93.5398 323.869 93.5166 323.931 93.4237C323.992 93.3308 324.031 93.2146 324.047 93.0753C324.078 92.9359 324.078 92.812 324.047 92.7036C324.016 92.5798 323.954 92.5178 323.861 92.5178C323.737 92.5178 322.831 92.4327 321.143 92.2623L320.656 92.2159C320.47 92.2004 320.323 92.1849 320.214 92.1694C319.874 92.1385 319.595 92.1075 319.378 92.0765C318.836 92.0301 318.542 92.0068 318.495 92.0068L318.24 92.7733ZM326.091 88.1977C326.4 88.6622 326.555 89.0725 326.555 89.4287C326.555 89.8003 326.586 90.1874 326.648 90.59L326.602 91.5191H327.089L327.229 91.1242C328.173 91.1087 329.017 90.8532 329.76 90.3577C330.504 89.8777 331.27 89.1112 332.06 88.0583L332.222 87.826L332.803 88.128L333.337 87.3151C332.486 86.6647 331.99 86.1073 331.851 85.6427C331.727 85.1782 331.557 84.8917 331.34 84.7833L330.968 85.1085L331.154 85.5034C329.977 86.9279 328.839 87.8183 327.74 88.1744C327.322 88.2983 327.058 88.3448 326.95 88.3138C326.904 88.2983 326.865 88.2286 326.834 88.1048L326.811 88.0351L326.787 87.9654C326.772 87.9189 326.749 87.888 326.718 87.8725C326.532 87.8106 326.323 87.9189 326.091 88.1977ZM347.854 111.889C347.142 111.022 346.182 110.921 344.974 111.587C343.565 112.361 343.193 113.352 343.859 114.56C344.571 115.861 345.617 116.178 346.995 115.512C347.211 116.163 347.088 116.766 346.623 117.324C346.53 117.432 346.522 117.541 346.6 117.649C346.662 117.757 346.755 117.804 346.879 117.788C347.962 117.587 348.621 116.736 348.853 115.234C349.101 113.732 348.768 112.617 347.854 111.889Z" fill="white"/>
<path d="M81.3433 148.825C83.1157 148.547 84.8369 148.481 86.5068 148.628C87.9863 148.76 89.0996 149.074 89.8467 149.573C90.7842 150.188 91.1211 151.074 90.8574 152.231C90.4473 154.121 88.7554 155.11 85.7817 155.198C84.3022 155.241 82.8594 155.102 81.4531 154.78C81.4238 153.301 81.4092 152.304 81.4092 151.792C81.4092 151.264 81.3872 150.276 81.3433 148.825ZM88.8359 135.818C88.7188 135.613 88.5356 135.547 88.2866 135.62C88.1548 135.649 88.0376 135.7 87.9351 135.774L87.8032 136.323C87.5103 136.426 86.9023 136.528 85.9795 136.631C85.1592 136.719 84.1924 136.792 83.0791 136.85C81.6875 136.924 80.1128 136.968 78.355 136.982C78.106 136.982 77.8936 137.063 77.7178 137.224C77.6006 137.341 77.5347 137.429 77.52 137.488C77.5054 137.575 77.5054 137.795 77.52 138.147C77.5786 139.011 77.6299 140.447 77.6738 142.453C77.6885 143.757 77.7178 145.713 77.7617 148.32C77.8203 153.681 77.8789 156.78 77.9375 157.615C77.9521 157.761 78.1792 157.915 78.6187 158.076C79.0728 158.252 79.6587 158.398 80.3765 158.515C82.1196 158.838 83.9067 158.926 85.7378 158.779C88.0083 158.603 89.854 158.098 91.2749 157.263C93.0181 156.223 94.0142 154.736 94.2632 152.802C94.5708 150.429 94.1094 148.591 92.8789 147.287C91.8975 146.247 90.4473 145.573 88.5283 145.266C87.1514 145.031 85.584 145.002 83.8262 145.178C83.5332 145.207 83.2329 145.237 82.9253 145.266C82.6909 145.295 82.4492 145.332 82.2002 145.376L81.4751 145.486C81.1968 145.486 81.0137 143.655 80.9258 139.992C81.7314 140.066 82.647 140.095 83.6724 140.08C85.7231 140.036 87.2832 139.765 88.3525 139.267C88.4258 139.238 88.521 139.326 88.6382 139.531L88.7041 139.663L88.77 139.773C88.8286 139.846 88.8799 139.883 88.9238 139.883C89.0996 139.927 89.3779 139.721 89.7588 139.267C89.334 137.304 89.0264 136.155 88.8359 135.818ZM100.613 146.518C100.745 145.42 101.097 144.306 101.668 143.178C102.166 142.212 102.781 141.443 103.514 140.871C104.422 140.168 105.484 139.802 106.7 139.773C109.043 139.714 110.647 140.271 111.512 141.443C111.863 141.911 112.149 142.541 112.369 143.332C112.457 143.64 112.552 144.021 112.654 144.475L112.764 145.068L112.896 145.661C112.178 145.705 108.084 145.991 100.613 146.518ZM110.721 136.719C107.601 136.133 104.839 136.521 102.437 137.883C100.005 139.245 98.3794 141.355 97.5591 144.211C96.7388 147.112 96.8413 149.887 97.8667 152.539C98.3647 153.813 99.0532 154.927 99.9321 155.879C100.84 156.86 101.895 157.593 103.096 158.076C104.239 158.545 105.499 158.801 106.875 158.845C107.989 158.874 109.153 158.772 110.369 158.537C111.761 158.274 112.955 157.922 113.951 157.483L114.852 158.142L115.335 157.351C114.28 155.974 113.511 154.714 113.028 153.572C113.028 153.454 112.72 153.44 112.105 153.528L112.215 154.363C111.863 154.568 111.417 154.773 110.875 154.978C110.391 155.154 109.908 155.3 109.424 155.417C108.838 155.549 108.26 155.622 107.688 155.637C106.268 155.696 105.015 155.366 103.931 154.648C102.583 153.769 101.558 152.319 100.855 150.298L115.093 149.375C115.225 149.375 115.357 149.316 115.489 149.199C115.606 149.096 115.701 148.95 115.774 148.76C115.848 148.54 115.884 148.261 115.884 147.925C115.884 147.851 115.899 147.566 115.928 147.068C115.928 146.833 115.936 146.628 115.95 146.452C115.95 146.189 115.95 145.947 115.95 145.727C115.95 144.409 115.84 143.237 115.621 142.212C114.961 139.033 113.328 137.202 110.721 136.719ZM125.135 148.935C124.856 149.111 124.651 149.206 124.52 149.221C124.446 149.236 124.41 149.221 124.41 149.177C124.058 148.108 123.758 147.309 123.509 146.782C123.479 146.709 123.714 146.65 124.212 146.606C125.999 146.079 127.369 145.376 128.321 144.497C129.141 143.72 129.588 142.885 129.661 141.992C129.72 141.186 129.463 140.498 128.892 139.927C128.321 139.341 127.588 139.033 126.695 139.004C125.347 138.974 124.278 139.538 123.487 140.696C123.077 141.267 122.806 141.845 122.674 142.431L123.113 142.563L123.157 142.981C121.385 143.025 120.198 142.915 119.598 142.651L119.795 142.234H120.191C120.206 142.014 120.25 141.736 120.323 141.399C120.484 140.725 120.726 140.088 121.048 139.487C121.502 138.667 122.095 137.986 122.828 137.444C123.736 136.77 124.834 136.338 126.124 136.147C127.017 136.015 127.918 136.081 128.826 136.345C129.749 136.609 130.555 137.033 131.243 137.619C131.99 138.264 132.51 139.026 132.803 139.905C133.125 140.871 133.155 141.919 132.891 143.047C132.671 143.955 132.056 144.936 131.045 145.991C131.001 146.035 130.936 146.086 130.848 146.145L130.76 146.211C130.716 146.24 130.687 146.262 130.672 146.277C130.54 146.365 130.489 146.467 130.518 146.584C130.533 146.599 130.54 146.621 130.54 146.65V146.672C130.54 146.687 130.547 146.694 130.562 146.694L130.584 146.672H130.628C130.643 146.672 130.672 146.679 130.716 146.694C130.804 146.709 130.914 146.738 131.045 146.782C131.485 146.943 131.939 147.17 132.408 147.463C133.462 148.152 134.209 149.038 134.649 150.122C135.235 151.557 135.228 153.249 134.627 155.198C134.539 155.461 134.385 155.769 134.166 156.12C133.711 156.853 133.14 157.49 132.452 158.032C131.5 158.794 130.394 159.321 129.134 159.614C127.537 159.966 125.735 159.944 123.729 159.548C122.352 159.284 121.202 158.662 120.279 157.68C119.986 157.358 119.708 156.999 119.444 156.604C119.4 156.531 119.349 156.457 119.29 156.384C119.275 156.355 119.253 156.318 119.224 156.274L119.202 156.23L119.18 156.186C119.092 156.054 119.034 155.967 119.004 155.923L118.323 155.967L118.147 155.615C120.521 154.414 121.875 153.711 122.212 153.506C122.256 153.476 122.293 153.484 122.322 153.528C122.352 153.557 122.374 153.601 122.388 153.659C122.417 153.733 122.439 153.813 122.454 153.901L122.256 154.319C122.33 154.509 122.447 154.729 122.608 154.978C122.769 155.183 122.945 155.366 123.135 155.527C123.37 155.747 123.626 155.915 123.904 156.032C124.476 156.281 125.091 156.45 125.75 156.538C126.497 156.655 127.2 156.648 127.859 156.516C128.621 156.384 129.266 156.106 129.793 155.681C130.394 155.198 130.818 154.546 131.067 153.725C131.448 152.51 131.412 151.491 130.958 150.671C130.577 149.997 129.939 149.485 129.046 149.133C128.313 148.855 127.515 148.708 126.651 148.694C125.889 148.694 125.384 148.774 125.135 148.935ZM150.118 128.852C152.359 128.955 154.732 128.962 157.237 128.874C159.434 128.786 161.294 128.625 162.818 128.391C164.708 128.083 166.019 127.666 166.751 127.138L166.487 126.655L167.652 126.369C167.842 127.087 168.084 127.82 168.377 128.567C168.626 129.226 168.868 129.753 169.102 130.149C169.38 130.647 169.637 130.932 169.871 131.006L168.97 131.95L168.641 131.533C167.366 132.002 165.865 132.448 164.136 132.873C160.65 133.738 157.728 134.067 155.369 133.862C155.574 135.971 155.633 140.124 155.545 146.321C155.457 152.781 155.245 156.26 154.908 156.758L156.27 157.307L156.116 158.296L148.47 158.647L148.184 157.68L149.415 157.065C150.367 146.987 150.608 139.326 150.14 134.082C150.125 133.965 150.103 133.767 150.074 133.489L150.052 133.137L150.008 132.741C149.935 132.068 149.891 131.504 149.876 131.05C149.788 129.658 149.869 128.926 150.118 128.852ZM189.888 137.246C189.712 138.506 189.061 139.48 187.933 140.168C187.039 140.71 185.86 141.054 184.395 141.201C182.74 141.377 181.114 141.318 179.517 141.025C179.297 139.516 179.136 137.986 179.034 136.433C178.96 135.085 178.968 134.001 179.056 133.181C179.158 132.17 179.393 131.621 179.759 131.533C180.389 131.357 181.246 131.269 182.33 131.269C183.663 131.269 184.871 131.423 185.955 131.731C189.002 132.58 190.313 134.419 189.888 137.246ZM173.76 128.083C173.584 129.035 173.731 129.878 174.2 130.61L174.749 157.549L173.343 157.878L173.848 158.779L181.011 158.845L181.187 157.373L179.627 156.889L179.275 146.255C184.417 146.738 188.423 145.808 191.294 143.464C192.642 142.365 193.602 141.018 194.173 139.421C194.744 137.795 194.876 136.023 194.568 134.104C194.056 130.852 191.58 128.786 187.142 127.907C185.53 127.585 183.626 127.417 181.429 127.402C180.608 127.402 179.7 127.417 178.704 127.446C178.323 127.461 177.906 127.475 177.452 127.49L176.88 127.534L176.309 127.556C176.119 127.571 175.914 127.578 175.694 127.578H175.167C174.786 127.578 174.537 127.585 174.419 127.6C174.039 127.629 173.819 127.79 173.76 128.083ZM171.651 130.632L171.695 130.566C171.724 130.508 171.768 130.471 171.827 130.456C171.871 130.442 171.922 130.434 171.98 130.434V130.456H172.002L172.024 130.478C172.112 130.522 172.178 130.595 172.222 130.698L172.266 130.83L172.288 130.918C172.303 130.991 172.317 131.057 172.332 131.115L172.354 131.247L172.398 131.401H172.376C172.669 133.745 172.83 136.594 172.859 139.948C172.874 140.534 172.881 141.216 172.881 141.992V142.981V143.948C172.896 145.515 172.911 146.731 172.925 147.595C172.94 148.108 172.955 148.664 172.969 149.265L172.991 150.034L173.013 150.759C173.042 151.946 173.064 152.766 173.079 153.22C173.108 153.952 173.138 154.494 173.167 154.846C173.182 155.036 173.196 155.176 173.211 155.263L173.233 155.329C173.35 155.403 173.431 155.505 173.475 155.637C173.504 155.769 173.504 155.893 173.475 156.01V156.032C173.387 156.34 173.255 156.523 173.079 156.582C172.947 156.611 172.83 156.611 172.728 156.582C172.303 156.479 172.134 156.223 172.222 155.813L172.244 155.725C172.273 155.637 172.317 155.556 172.376 155.483C172.42 155.425 172.471 155.373 172.53 155.329C172.53 155.227 172.53 155.102 172.53 154.956C172.515 154.795 172.508 154.612 172.508 154.406C172.493 153.908 172.479 153.425 172.464 152.956C172.42 151.623 172.391 150.7 172.376 150.188C172.361 149.426 172.347 147.983 172.332 145.859C172.317 144.804 172.303 143.962 172.288 143.332C172.288 142.365 172.273 141.487 172.244 140.696C172.156 136.374 171.966 133.247 171.673 131.313H171.761H171.673C171.673 131.313 171.673 131.284 171.673 131.225L171.651 131.159V131.072C171.622 130.91 171.622 130.779 171.651 130.676V130.632ZM197.732 128.501C198.025 128.501 198.282 128.611 198.501 128.83C198.692 129.006 198.809 129.358 198.853 129.885C198.897 130.559 198.824 131.482 198.633 132.654C198.135 135.642 197.894 140.366 197.908 146.826C197.923 153.769 198.326 157.541 199.117 158.142C199.644 158.552 200.918 157.878 202.94 156.12C204.566 154.714 206.631 152.656 209.136 149.946C212.007 146.855 214.776 143.691 217.442 140.454C218.35 151.528 218.636 157.065 218.299 157.065C218.064 157.065 217.83 157.197 217.596 157.461L218.057 158.889L225 157.812C225.176 157.314 225.184 156.992 225.022 156.845C224.876 156.743 224.48 156.67 223.836 156.626C222.986 141.86 222.649 132.588 222.825 128.808C221.126 128.808 220.086 128.889 219.705 129.05C219.266 129.255 218.482 130.105 217.354 131.599C216.929 132.17 216.343 132.976 215.596 134.016L215.113 134.697L214.607 135.4C214.183 136.001 213.831 136.506 213.553 136.916C211.678 139.524 210.022 141.721 208.587 143.508C206.551 146.042 204.61 148.181 202.764 149.924L203.401 129.643C204.09 129.321 204.566 129.248 204.83 129.424C204.917 129.482 204.998 129.453 205.071 129.336C205.145 129.233 205.196 129.087 205.225 128.896C205.254 128.706 205.254 128.545 205.225 128.413C205.181 128.252 205.108 128.171 205.005 128.171C204.83 128.171 203.65 128.061 201.468 127.842L200.853 127.776L200.281 127.732C199.842 127.688 199.483 127.651 199.205 127.622C198.516 127.549 198.135 127.512 198.062 127.512L197.732 128.501ZM224.473 133.071L224.517 133.005C224.532 132.961 224.568 132.925 224.627 132.895C224.671 132.881 224.715 132.873 224.759 132.873H224.781L224.825 132.895C224.898 132.939 224.949 133.005 224.979 133.093L225.022 133.225L225.044 133.313C225.074 133.371 225.088 133.43 225.088 133.489H225.11L225.132 133.598C225.396 139.765 225.616 144.292 225.792 147.177C225.821 147.661 225.85 148.181 225.879 148.738L225.923 149.463L225.967 150.166C226.026 151.279 226.07 152.055 226.099 152.495C226.143 153.183 226.187 153.689 226.231 154.011C226.246 154.187 226.268 154.326 226.297 154.428V154.472C226.414 154.531 226.495 154.626 226.539 154.758C226.568 154.875 226.575 154.992 226.561 155.11L226.539 155.132C226.48 155.425 226.37 155.608 226.209 155.681C226.092 155.725 225.982 155.732 225.879 155.703C225.499 155.63 225.337 155.395 225.396 155L225.418 154.934C225.447 154.846 225.491 154.765 225.55 154.692C225.594 154.634 225.638 154.575 225.682 154.516C225.682 154.472 225.674 154.428 225.66 154.385V154.187C225.645 154.011 225.63 153.835 225.616 153.659C225.586 153.176 225.557 152.722 225.528 152.297C225.455 151.023 225.403 150.144 225.374 149.66C225.33 148.752 225.271 147.478 225.198 145.837L225.154 144.782L225.088 143.728L225 141.552C224.839 137.993 224.678 135.385 224.517 133.73C224.517 133.716 224.517 133.686 224.517 133.642L224.473 133.489C224.458 133.342 224.458 133.218 224.473 133.115V133.071ZM238.58 133.357L238.558 133.313C238.528 133.254 238.484 133.218 238.426 133.203C238.396 133.188 238.353 133.188 238.294 133.203H238.272L238.25 133.225C238.177 133.283 238.125 133.357 238.096 133.445L238.074 133.554L238.052 133.642C238.052 133.701 238.045 133.76 238.03 133.818L238.008 133.95L237.986 134.082H238.008C237.627 140.278 237.481 144.819 237.569 147.705C237.583 148.159 237.598 148.664 237.613 149.221L237.635 149.924L237.657 150.583C237.701 151.667 237.723 152.422 237.723 152.846C237.752 153.506 237.759 153.996 237.745 154.319C237.745 154.494 237.737 154.626 237.723 154.714V154.758C237.62 154.831 237.554 154.934 237.525 155.066C237.496 155.183 237.496 155.293 237.525 155.395V155.417H237.547C237.635 155.696 237.759 155.864 237.92 155.923C238.023 155.952 238.125 155.952 238.228 155.923C238.58 155.805 238.711 155.564 238.624 155.198L238.58 155.132C238.55 155.044 238.506 154.963 238.448 154.89C238.404 154.846 238.36 154.802 238.316 154.758C238.316 154.699 238.316 154.59 238.316 154.428L238.294 154.187V153.923C238.279 153.425 238.265 152.978 238.25 152.583C238.221 151.352 238.199 150.503 238.184 150.034C237.994 144.717 238.133 139.37 238.602 133.994H238.536H238.602C238.602 133.994 238.602 133.965 238.602 133.906L238.624 133.752C238.624 133.62 238.616 133.503 238.602 133.401L238.58 133.357ZM230.691 143.31C230.794 139.824 230.933 136.462 231.109 133.225C231.27 130.207 231.395 128.581 231.482 128.347C231.629 127.893 234.888 127.607 241.26 127.49C243.252 127.446 245.611 127.424 248.335 127.424H252.664C253.953 127.409 254.656 132.229 254.773 141.882C254.832 146.716 254.766 151.55 254.576 156.384C254.971 156.355 255.264 156.296 255.455 156.208C255.674 156.106 255.799 156.238 255.828 156.604C255.872 156.955 255.806 157.241 255.63 157.461C255.44 157.71 254.305 158.017 252.225 158.384C250.145 158.764 248.899 158.882 248.489 158.735C248.343 158.691 248.321 158.244 248.423 157.395C248.848 157.351 249.134 157.182 249.28 156.889C249.368 156.699 249.368 153.279 249.28 146.628C249.28 145.617 249.266 144.306 249.236 142.695L249.214 141.728V140.805C249.2 140.088 249.192 139.487 249.192 139.004C249.148 136.382 249.126 134.69 249.126 133.928C249.126 133.855 249.097 133.569 249.039 133.071C248.965 132.558 248.921 132.273 248.907 132.214C248.833 132.038 248.438 131.98 247.72 132.038L247.303 132.082L246.907 132.126C246.6 132.156 246.409 132.17 246.336 132.17C246.175 132.185 245.911 132.192 245.545 132.192H245.018H244.446C243.406 132.192 242.52 132.199 241.788 132.214C239.444 132.243 237.935 132.295 237.261 132.368C237.1 132.383 236.946 132.405 236.8 132.434C236.639 132.463 236.536 132.5 236.492 132.544C236.419 132.632 236.353 132.859 236.294 133.225L235.833 156.78C236.448 156.882 236.814 157.021 236.932 157.197C237.063 157.402 236.998 157.761 236.734 158.274L229.043 158.537C228.882 157.922 228.86 157.534 228.978 157.373C229.095 157.226 229.454 157.153 230.054 157.153C230.347 152.539 230.56 147.925 230.691 143.31ZM267.671 133.357L267.649 133.313C267.62 133.254 267.576 133.218 267.518 133.203C267.488 133.188 267.444 133.188 267.386 133.203H267.364L267.342 133.225C267.269 133.283 267.217 133.357 267.188 133.445L267.166 133.554L267.144 133.642C267.144 133.701 267.137 133.76 267.122 133.818L267.1 133.95L267.078 134.082H267.1C266.719 140.278 266.573 144.819 266.661 147.705C266.675 148.159 266.69 148.664 266.705 149.221L266.727 149.924L266.749 150.583C266.792 151.667 266.814 152.422 266.814 152.846C266.844 153.506 266.851 153.996 266.836 154.319C266.836 154.494 266.829 154.626 266.814 154.714V154.758C266.712 154.831 266.646 154.934 266.617 155.066C266.587 155.183 266.587 155.293 266.617 155.395V155.417H266.639C266.727 155.696 266.851 155.864 267.012 155.923C267.115 155.952 267.217 155.952 267.32 155.923C267.671 155.805 267.803 155.564 267.715 155.198L267.671 155.132C267.642 155.044 267.598 154.963 267.54 154.89C267.496 154.846 267.452 154.802 267.408 154.758C267.408 154.699 267.408 154.59 267.408 154.428L267.386 154.187V153.923C267.371 153.425 267.356 152.978 267.342 152.583C267.312 151.352 267.291 150.503 267.276 150.034C267.085 144.717 267.225 139.37 267.693 133.994H267.627H267.693C267.693 133.994 267.693 133.965 267.693 133.906L267.715 133.752C267.715 133.62 267.708 133.503 267.693 133.401L267.671 133.357ZM259.783 143.31C259.886 139.824 260.025 136.462 260.201 133.225C260.362 130.207 260.486 128.581 260.574 128.347C260.721 127.893 263.98 127.607 270.352 127.49C272.344 127.446 274.703 127.424 277.427 127.424H281.756C283.045 127.409 283.748 132.229 283.865 141.882C283.924 146.716 283.858 151.55 283.667 156.384C284.063 156.355 284.356 156.296 284.546 156.208C284.766 156.106 284.891 156.238 284.92 156.604C284.964 156.955 284.898 157.241 284.722 157.461C284.532 157.71 283.396 158.017 281.316 158.384C279.236 158.764 277.991 158.882 277.581 158.735C277.435 158.691 277.413 158.244 277.515 157.395C277.94 157.351 278.226 157.182 278.372 156.889C278.46 156.699 278.46 153.279 278.372 146.628C278.372 145.617 278.357 144.306 278.328 142.695L278.306 141.728V140.805C278.292 140.088 278.284 139.487 278.284 139.004C278.24 136.382 278.218 134.69 278.218 133.928C278.218 133.855 278.189 133.569 278.13 133.071C278.057 132.558 278.013 132.273 277.999 132.214C277.925 132.038 277.53 131.98 276.812 132.038L276.395 132.082L275.999 132.126C275.691 132.156 275.501 132.17 275.428 132.17C275.267 132.185 275.003 132.192 274.637 132.192H274.109H273.538C272.498 132.192 271.612 132.199 270.879 132.214C268.536 132.243 267.027 132.295 266.353 132.368C266.192 132.383 266.038 132.405 265.892 132.434C265.73 132.463 265.628 132.5 265.584 132.544C265.511 132.632 265.445 132.859 265.386 133.225L264.925 156.78C265.54 156.882 265.906 157.021 266.023 157.197C266.155 157.402 266.089 157.761 265.826 158.274L258.135 158.537C257.974 157.922 257.952 157.534 258.069 157.373C258.187 157.226 258.545 157.153 259.146 157.153C259.439 152.539 259.651 147.925 259.783 143.31ZM299.598 141.091C299.847 140.241 300.25 138.689 300.806 136.433C301.348 134.265 301.663 132.983 301.751 132.588C301.751 132.529 301.934 132.47 302.3 132.412C302.71 132.353 303.223 132.317 303.838 132.302C304.512 132.287 305.457 135.122 306.673 140.805L299.598 141.091ZM318.714 155.593C317.938 155.754 317.41 155.608 317.132 155.154C316.707 154.436 315.945 152.583 314.847 149.594C314.422 148.452 313.895 147.002 313.265 145.244C313.045 144.614 312.767 143.83 312.43 142.893L311.573 140.498C308.643 132.28 306.958 128.039 306.519 127.776C305.962 127.468 304.629 127.417 302.52 127.622C301.744 127.695 301.019 127.79 300.345 127.907C299.7 128.01 299.349 128.098 299.29 128.171C298.924 128.523 298.543 129.314 298.147 130.544C298.074 130.779 297.986 131.057 297.884 131.379L297.62 132.28C297.386 133.056 297.188 133.679 297.027 134.148C295.928 137.356 293.453 144.724 289.6 156.252C289.454 156.34 289.139 156.465 288.655 156.626C288.377 156.728 288.516 157.212 289.073 158.076C289.278 157.988 289.732 157.922 290.435 157.878C292.076 157.761 294.075 158.047 296.434 158.735L296.785 157.615C296.8 157.322 296.448 156.999 295.73 156.648C296.243 153.689 296.771 151.345 297.312 149.616C297.415 149.323 297.51 149.052 297.598 148.803C297.671 148.613 297.745 148.445 297.818 148.298C297.847 148.225 297.876 148.166 297.906 148.122C297.92 148.078 297.935 148.042 297.95 148.012L297.972 147.969L297.994 147.947C298.008 147.932 298.016 147.925 298.016 147.925C298.323 146.826 298.638 146.094 298.96 145.727L301.993 145.617C303.604 145.588 304.798 145.559 305.574 145.53C305.647 145.515 305.743 145.5 305.86 145.486L306.146 145.42C306.395 145.376 306.614 145.383 306.805 145.442C307.347 145.632 307.896 146.365 308.453 147.639C310.372 152.077 311.631 155.102 312.232 156.714C312.115 157.021 311.88 157.3 311.529 157.549C311.309 157.695 311.492 158.127 312.078 158.845L319 156.692C319.014 155.915 318.919 155.549 318.714 155.593ZM296.653 128.874L296.631 128.83C296.617 128.772 296.587 128.728 296.543 128.698C296.5 128.684 296.448 128.669 296.39 128.655H296.368L296.346 128.677C296.243 128.691 296.17 128.735 296.126 128.808L296.06 128.896L296.016 128.984L295.972 129.05L295.928 129.116L295.884 129.204L295.796 129.314L295.818 129.336C294.998 131.211 293.833 134.389 292.325 138.872C291.797 140.454 291.226 142.175 290.611 144.035C290.391 144.724 290.164 145.442 289.93 146.189C289.842 146.467 289.747 146.76 289.644 147.068C289.585 147.273 289.505 147.522 289.402 147.815C289.285 148.21 289.153 148.642 289.007 149.111L288.809 149.704L288.633 150.276C288.355 151.184 288.157 151.821 288.04 152.187C287.85 152.759 287.703 153.176 287.601 153.44C287.557 153.572 287.513 153.674 287.469 153.747L287.447 153.791C287.315 153.835 287.212 153.901 287.139 153.989C287.081 154.077 287.051 154.172 287.051 154.275L287.073 154.297C287.073 154.56 287.154 154.736 287.315 154.824C287.417 154.868 287.527 154.897 287.645 154.912C288.055 154.912 288.26 154.743 288.26 154.406V154.341C288.245 154.253 288.223 154.172 288.194 154.099C288.165 154.055 288.128 154.004 288.084 153.945C288.099 153.872 288.128 153.784 288.172 153.681C288.216 153.535 288.26 153.388 288.304 153.242C288.436 152.861 288.56 152.488 288.677 152.121C289 151.081 289.227 150.356 289.358 149.946C289.695 148.847 290.149 147.419 290.721 145.661C291.409 143.552 292.076 141.531 292.72 139.597C294.493 134.323 295.745 130.932 296.478 129.424L296.412 129.38L296.478 129.402L296.5 129.38L296.521 129.336L296.565 129.226C296.624 129.109 296.653 129.006 296.653 128.918V128.874Z" fill="white"/>
<path d="M83.3613 179.527C83.1562 181.812 83.0171 184.185 82.9438 186.646C82.8706 188.799 82.8853 190.579 82.9878 191.985C83.1196 193.728 83.376 194.842 83.7568 195.325C84.2988 196.394 85.1997 196.944 86.4595 196.973C87.6313 197.046 88.7007 196.526 89.6675 195.413C90.6196 194.314 91.2495 193.062 91.5571 191.656C91.7769 190.557 92.0405 188.953 92.3481 186.844C92.6411 184.676 92.8242 182.383 92.8975 179.966L92.1284 179.483V178.67C93.2417 178.802 93.9741 178.831 94.3257 178.758C94.6772 178.699 95.4609 178.684 96.6768 178.714L96.6328 179.241L96.1494 179.483C95.9297 188.067 96.0762 193.201 96.5889 194.885C96.8525 195.794 97.292 196.167 97.9072 196.006C98.2148 195.933 98.4932 195.772 98.7422 195.523L98.7861 194.71L99.6431 194.556L99.7529 199.302L99.9287 200.554L99.0278 200.489C99.0132 200.342 98.9546 200.203 98.8521 200.071C98.6616 199.793 98.3687 199.668 97.9731 199.698C97.4604 199.756 96.8818 199.661 96.2373 199.412C95.5342 199.148 95.0581 198.826 94.8091 198.445C94.355 197.742 94.0693 196.834 93.9521 195.72C93.7031 196.248 93.3662 196.826 92.9414 197.456C92.1064 198.687 91.2349 199.507 90.3267 199.917C90.0776 200.034 89.792 200.152 89.4697 200.269C89.0596 200.415 88.6421 200.532 88.2173 200.62C87.104 200.884 86.0713 200.979 85.1191 200.906C82.3945 200.672 80.71 199.097 80.0654 196.182C79.084 191.67 79.1646 186.25 80.3071 179.922L79.4941 179.527L79.582 178.714C80.5781 178.845 81.2959 178.86 81.7354 178.758C82.1895 178.67 82.9438 178.611 83.9985 178.582L84.0425 179.329L83.3613 179.527ZM133.349 183.987C133.349 187.444 132.946 189.839 132.141 191.172C131.467 192.3 130.764 193.054 130.031 193.435C129.372 193.787 128.435 193.963 127.219 193.963C124.216 193.963 122.092 192.908 120.847 190.799C120.1 189.539 119.594 188.579 119.331 187.92C118.891 186.822 118.671 185.664 118.671 184.448C118.671 180.406 119.184 177.652 120.209 176.187C120.854 175.264 121.887 174.51 123.308 173.924C124.567 173.411 125.791 173.155 126.977 173.155C128.295 173.155 129.365 173.411 130.185 173.924C131.049 174.48 131.826 175.44 132.514 176.802C132.91 177.578 133.159 178.699 133.261 180.164C133.305 180.72 133.334 181.365 133.349 182.097V183.064V183.987ZM136.052 172.495C134.968 171.221 133.452 170.276 131.503 169.661C129.921 169.177 128.142 168.936 126.164 168.936C122.399 168.936 119.462 170.064 117.353 172.32C114.907 174.927 113.684 178.985 113.684 184.492C113.684 186.162 113.925 187.737 114.409 189.217C114.775 190.301 115.397 191.648 116.276 193.26C117.463 195.457 119.14 197.215 121.308 198.533C123.476 199.837 125.666 200.408 127.878 200.247C129.724 200.115 131.284 199.558 132.558 198.577C133.862 197.581 135.092 195.962 136.25 193.721C137.685 190.967 138.403 187.598 138.403 183.614C138.403 180.362 138.337 178.281 138.205 177.373C137.927 175.513 137.209 173.887 136.052 172.495ZM140.051 165.113C140.007 165.259 139.948 165.42 139.875 165.596C139.772 165.508 139.589 165.42 139.326 165.332C139.194 165.303 139.04 165.266 138.864 165.222C139.318 164.915 139.743 164.607 140.139 164.3C140.168 164.563 140.139 164.834 140.051 165.113ZM138.886 166.87C138.784 166.782 138.645 166.695 138.469 166.607L138.227 166.475L137.985 166.343C137.839 166.284 137.67 166.219 137.48 166.145L138.447 165.508C138.579 165.523 138.703 165.545 138.82 165.574C138.981 165.603 139.121 165.633 139.238 165.662C139.355 165.691 139.465 165.735 139.567 165.794C139.655 165.838 139.692 165.874 139.677 165.904L139.721 165.882C139.501 166.248 139.223 166.577 138.886 166.87ZM135.612 167.705C135.48 167.661 135.319 167.595 135.129 167.508L135.766 167.156L135.92 167.2L136.096 167.244C136.462 167.346 136.77 167.449 137.019 167.552C137.121 167.595 137.224 167.647 137.326 167.705C136.74 167.852 136.169 167.852 135.612 167.705ZM135.92 164.783C136.052 165.003 136.03 165.384 135.854 165.926L135.744 166.277C135.715 166.38 135.678 166.482 135.634 166.585L135.568 166.717L135.524 166.804L135.502 166.848V166.87L135.48 166.936L134.909 167.2C134.924 166.819 134.975 166.475 135.063 166.167C135.239 165.596 135.524 165.135 135.92 164.783ZM136.162 164.585C136.499 164.336 136.916 164.16 137.414 164.058C137.443 164.292 137.37 164.629 137.194 165.069L137.062 165.42C137.033 165.523 136.989 165.625 136.931 165.728C136.901 165.816 136.872 165.889 136.843 165.948L136.821 166.013L136.799 166.035L136.733 166.211H136.755C136.506 166.372 136.242 166.526 135.964 166.673C136.052 166.453 136.125 166.233 136.184 166.013C136.271 165.706 136.323 165.457 136.337 165.266C136.352 164.988 136.301 164.754 136.184 164.563L136.162 164.585ZM136.667 167.068C136.521 167.024 136.359 166.973 136.184 166.914L137.128 166.365C137.231 166.409 137.333 166.453 137.436 166.497C137.583 166.555 137.714 166.607 137.832 166.651C138.125 166.782 138.388 166.929 138.623 167.09C138.33 167.295 138.029 167.464 137.722 167.595C137.634 167.508 137.443 167.39 137.15 167.244C137.004 167.185 136.843 167.127 136.667 167.068ZM138.513 163.948L138.469 163.97V164.014V164.102C138.454 164.175 138.439 164.256 138.425 164.344C138.396 164.431 138.359 164.534 138.315 164.651C138.271 164.739 138.227 164.834 138.183 164.937L138.139 165.069L138.095 165.156L138.051 165.222V165.244L137.941 165.442L137.238 165.904C137.282 165.801 137.326 165.691 137.37 165.574C137.429 165.442 137.48 165.31 137.524 165.178C137.7 164.622 137.773 164.226 137.744 163.992L137.963 163.97C138.139 163.955 138.322 163.948 138.513 163.948ZM139.787 164.058C139.348 164.409 138.93 164.724 138.535 165.003C138.623 164.783 138.696 164.593 138.754 164.431C138.798 164.256 138.82 164.116 138.82 164.014V163.948C139.143 163.963 139.465 163.999 139.787 164.058ZM140.424 163.838L140.314 163.816L140.292 163.794H140.271L140.205 163.772H140.117C139.941 163.728 139.765 163.692 139.589 163.662C139.003 163.589 138.447 163.582 137.919 163.64C137.187 163.699 136.564 163.897 136.052 164.234C135.407 164.658 134.968 165.266 134.733 166.057C134.631 166.438 134.572 166.87 134.558 167.354C134.279 167.486 134.045 167.617 133.854 167.749C133.693 167.881 133.613 167.984 133.613 168.057C133.613 168.145 133.701 168.159 133.876 168.101C134.096 168.057 134.389 167.932 134.755 167.727C135.019 167.859 135.275 167.962 135.524 168.035C136.828 168.401 138.022 168.108 139.106 167.156C139.75 166.599 140.175 165.955 140.38 165.222C140.512 164.754 140.534 164.322 140.446 163.926L140.424 163.838ZM160.727 178.823C160.551 180.083 159.899 181.057 158.771 181.746C157.878 182.288 156.699 182.632 155.234 182.779C153.579 182.954 151.953 182.896 150.356 182.603C150.136 181.094 149.975 179.563 149.873 178.01C149.799 176.663 149.807 175.579 149.895 174.759C149.997 173.748 150.231 173.198 150.598 173.111C151.228 172.935 152.084 172.847 153.168 172.847C154.501 172.847 155.71 173.001 156.794 173.308C159.841 174.158 161.152 175.996 160.727 178.823ZM144.599 169.661C144.423 170.613 144.57 171.455 145.039 172.188L145.588 199.126L144.182 199.456L144.687 200.357L151.85 200.423L152.026 198.95L150.466 198.467L150.114 187.832C155.256 188.316 159.262 187.385 162.133 185.042C163.481 183.943 164.44 182.595 165.012 180.999C165.583 179.373 165.715 177.6 165.407 175.681C164.895 172.429 162.419 170.364 157.98 169.485C156.369 169.163 154.465 168.994 152.268 168.98C151.447 168.98 150.539 168.994 149.543 169.024C149.162 169.038 148.745 169.053 148.291 169.068L147.719 169.112L147.148 169.134C146.958 169.148 146.752 169.156 146.533 169.156H146.005C145.625 169.156 145.375 169.163 145.258 169.177C144.877 169.207 144.658 169.368 144.599 169.661ZM142.49 172.21L142.534 172.144C142.563 172.085 142.607 172.049 142.666 172.034C142.709 172.019 142.761 172.012 142.819 172.012V172.034H142.841L142.863 172.056C142.951 172.1 143.017 172.173 143.061 172.276L143.105 172.407L143.127 172.495C143.142 172.569 143.156 172.635 143.171 172.693L143.193 172.825L143.237 172.979H143.215C143.508 175.323 143.669 178.172 143.698 181.526C143.713 182.112 143.72 182.793 143.72 183.57V184.558V185.525C143.735 187.093 143.75 188.308 143.764 189.173C143.779 189.685 143.793 190.242 143.808 190.843L143.83 191.612L143.852 192.337C143.881 193.523 143.903 194.344 143.918 194.798C143.947 195.53 143.977 196.072 144.006 196.424C144.021 196.614 144.035 196.753 144.05 196.841L144.072 196.907C144.189 196.98 144.27 197.083 144.313 197.215C144.343 197.346 144.343 197.471 144.313 197.588V197.61C144.226 197.918 144.094 198.101 143.918 198.159C143.786 198.189 143.669 198.189 143.566 198.159C143.142 198.057 142.973 197.801 143.061 197.39L143.083 197.302C143.112 197.215 143.156 197.134 143.215 197.061C143.259 197.002 143.31 196.951 143.369 196.907C143.369 196.804 143.369 196.68 143.369 196.533C143.354 196.372 143.347 196.189 143.347 195.984C143.332 195.486 143.317 195.003 143.303 194.534C143.259 193.201 143.229 192.278 143.215 191.765C143.2 191.004 143.186 189.561 143.171 187.437C143.156 186.382 143.142 185.54 143.127 184.91C143.127 183.943 143.112 183.064 143.083 182.273C142.995 177.952 142.805 174.824 142.512 172.891H142.6H142.512C142.512 172.891 142.512 172.862 142.512 172.803L142.49 172.737V172.649C142.46 172.488 142.46 172.356 142.49 172.254V172.21ZM175.932 185.459C176.445 185.532 177.653 185.43 179.558 185.152L180.129 185.086L180.744 184.998C181.198 184.925 181.608 184.873 181.975 184.844C182.912 184.741 183.74 184.683 184.458 184.668C188.544 184.668 190.471 186.426 190.236 189.942C190.148 191.319 189.379 192.461 187.929 193.369C186.787 194.087 185.234 194.644 183.271 195.039C181.044 195.479 178.825 195.662 176.613 195.589L175.932 185.459ZM175.295 173.264C175.485 173.308 176.181 173.279 177.382 173.177C178.012 173.118 178.532 173.081 178.942 173.067C179.558 173.037 180.107 173.037 180.59 173.067C183.359 173.228 184.516 174.348 184.062 176.428C183.696 178.098 182.216 179.329 179.624 180.12C178.32 180.515 177.06 180.742 175.844 180.801L175.295 173.264ZM186.501 180.362C187.585 179.541 188.281 178.413 188.588 176.978C188.911 175.454 188.669 174.048 187.863 172.759C186.911 171.28 185.329 170.225 183.117 169.595C180.51 168.877 177.192 168.811 173.164 169.397C172.841 169.441 172.526 169.639 172.219 169.99C172.028 170.21 171.911 170.379 171.867 170.496C171.809 170.672 171.772 171.067 171.757 171.682C171.699 173.191 171.655 174.744 171.625 176.341C171.596 178.538 171.589 180.706 171.604 182.844C171.647 188.616 171.867 193.728 172.263 198.181C172.336 198.972 173.303 199.573 175.163 199.983C177.023 200.408 179.162 200.51 181.579 200.291C184.289 200.042 186.684 199.427 188.764 198.445C191.21 197.317 192.946 195.801 193.972 193.897C194.733 192.476 195.151 190.996 195.224 189.458C195.297 187.92 195.026 186.499 194.411 185.196C193.752 183.819 192.778 182.72 191.489 181.9C190.097 181.006 188.435 180.493 186.501 180.362ZM170.131 170.232L170.087 170.166C170.043 170.122 169.992 170.093 169.934 170.078C169.875 170.064 169.816 170.071 169.758 170.1H169.736L169.692 170.122C169.604 170.181 169.538 170.269 169.494 170.386L169.472 170.496L169.45 170.606L169.428 170.716V170.803H169.406V170.935L169.362 171.089H169.384C169.252 173.623 169.245 177.146 169.362 181.658C169.406 183.299 169.472 185.086 169.56 187.019C169.589 187.737 169.619 188.513 169.648 189.348C169.663 189.656 169.677 189.993 169.692 190.359L169.714 190.843L169.736 191.282C169.765 191.795 169.794 192.344 169.824 192.93L169.868 193.721L169.912 194.446C169.97 195.618 170.007 196.438 170.021 196.907C170.065 197.654 170.08 198.196 170.065 198.533C170.065 198.723 170.058 198.87 170.043 198.972V199.016C169.912 199.104 169.824 199.221 169.78 199.368C169.75 199.5 169.758 199.624 169.802 199.741H169.824V199.763C169.941 200.056 170.102 200.225 170.307 200.269C170.454 200.283 170.585 200.269 170.703 200.225H170.725C170.915 200.152 171.054 200.034 171.142 199.873C171.245 199.712 171.267 199.551 171.208 199.39L171.186 199.302C171.142 199.229 171.076 199.156 170.988 199.082C170.944 199.024 170.886 198.972 170.812 198.928C170.812 198.826 170.805 198.709 170.791 198.577C170.791 198.401 170.783 198.218 170.769 198.028C170.754 197.515 170.732 197.031 170.703 196.577C170.644 195.23 170.6 194.3 170.571 193.787C170.498 192.381 170.424 190.74 170.351 188.865C170.249 186.58 170.168 184.405 170.109 182.339C169.963 176.802 169.978 173.001 170.153 170.935L170.087 170.913H170.153C170.153 170.913 170.161 170.884 170.175 170.825V170.76V170.672C170.19 170.51 170.183 170.379 170.153 170.276L170.131 170.232ZM198.938 170.078C199.23 170.078 199.487 170.188 199.707 170.408C199.897 170.584 200.014 170.935 200.058 171.463C200.102 172.136 200.029 173.059 199.838 174.231C199.34 177.219 199.099 181.944 199.113 188.404C199.128 195.347 199.531 199.119 200.322 199.719C200.849 200.13 202.124 199.456 204.145 197.698C205.771 196.292 207.836 194.234 210.341 191.524C213.212 188.433 215.981 185.269 218.647 182.031C219.555 193.106 219.841 198.643 219.504 198.643C219.27 198.643 219.035 198.775 218.801 199.038L219.262 200.467L226.206 199.39C226.381 198.892 226.389 198.57 226.228 198.423C226.081 198.321 225.686 198.247 225.041 198.203C224.191 183.438 223.854 174.165 224.03 170.386C222.331 170.386 221.291 170.467 220.91 170.628C220.471 170.833 219.687 171.682 218.559 173.177C218.134 173.748 217.548 174.553 216.801 175.594L216.318 176.275L215.812 176.978C215.388 177.578 215.036 178.084 214.758 178.494C212.883 181.101 211.228 183.299 209.792 185.086C207.756 187.62 205.815 189.759 203.969 191.502L204.606 171.221C205.295 170.899 205.771 170.825 206.035 171.001C206.123 171.06 206.203 171.031 206.276 170.913C206.35 170.811 206.401 170.664 206.43 170.474C206.459 170.283 206.459 170.122 206.43 169.99C206.386 169.829 206.313 169.749 206.21 169.749C206.035 169.749 204.855 169.639 202.673 169.419L202.058 169.353L201.486 169.309C201.047 169.265 200.688 169.229 200.41 169.199C199.721 169.126 199.34 169.09 199.267 169.09L198.938 170.078ZM225.678 174.649L225.722 174.583C225.737 174.539 225.773 174.502 225.832 174.473C225.876 174.458 225.92 174.451 225.964 174.451H225.986L226.03 174.473C226.103 174.517 226.154 174.583 226.184 174.671L226.228 174.802L226.25 174.89C226.279 174.949 226.293 175.008 226.293 175.066H226.315L226.337 175.176C226.601 181.343 226.821 185.869 226.997 188.755C227.026 189.239 227.055 189.759 227.084 190.315L227.128 191.04L227.172 191.743C227.231 192.857 227.275 193.633 227.304 194.073C227.348 194.761 227.392 195.266 227.436 195.589C227.451 195.764 227.473 195.904 227.502 196.006V196.05C227.619 196.109 227.7 196.204 227.744 196.336C227.773 196.453 227.78 196.57 227.766 196.687L227.744 196.709C227.685 197.002 227.575 197.185 227.414 197.259C227.297 197.302 227.187 197.31 227.084 197.281C226.704 197.207 226.542 196.973 226.601 196.577L226.623 196.511C226.652 196.424 226.696 196.343 226.755 196.27C226.799 196.211 226.843 196.153 226.887 196.094C226.887 196.05 226.879 196.006 226.865 195.962V195.764C226.85 195.589 226.835 195.413 226.821 195.237C226.792 194.754 226.762 194.3 226.733 193.875C226.66 192.6 226.608 191.721 226.579 191.238C226.535 190.33 226.477 189.055 226.403 187.415L226.359 186.36L226.293 185.305L226.206 183.13C226.044 179.571 225.883 176.963 225.722 175.308C225.722 175.293 225.722 175.264 225.722 175.22L225.678 175.066C225.664 174.92 225.664 174.795 225.678 174.693V174.649ZM237.346 191.194C237.609 182.244 237.58 175.506 237.258 170.979C237.214 170.467 237.36 170.225 237.697 170.254L238.093 170.32C238.239 170.335 238.334 170.305 238.378 170.232C238.613 169.837 238.642 169.5 238.466 169.221C234.174 169.09 232.05 169.185 232.094 169.507C232.153 169.917 232.263 170.137 232.424 170.166L232.973 170.1C233.632 178.069 233.691 184.939 233.149 190.711C233.105 191.165 234.504 191.326 237.346 191.194ZM237.324 197.852C237.324 199.566 236.584 200.423 235.104 200.423C234.372 200.423 233.713 200.174 233.127 199.676C232.512 199.148 232.204 198.54 232.204 197.852C232.204 196.372 233.054 195.633 234.753 195.633C236.467 195.633 237.324 196.372 237.324 197.852Z" fill="white"/>
<path d="M322.809 78.3235C315.87 77.901 308.738 77.6898 301.606 77.373C284.258 76.4225 266.525 76 248.984 76C229.13 76 209.084 76.1056 189.231 76.4225C172.846 76.6337 156.655 77.1617 140.271 77.6898C131.983 77.901 123.887 78.3235 115.791 78.8515C110.009 79.274 104.033 79.8021 98.4436 80.5413C95.745 80.7526 93.2392 81.3862 90.7334 81.9143C90.1552 82.1255 89.7697 82.3368 90.1552 82.8648C90.5407 82.8648 90.9262 83.076 91.5045 82.9704C93.2392 82.8648 95.1668 82.8648 96.9016 82.6536C112.707 81.2806 128.706 80.5413 144.897 80.3301C159.354 80.3301 174.003 80.1189 188.652 80.0133C208.506 79.9077 228.552 79.5908 248.406 79.9077C259.778 80.0133 271.151 80.2245 282.716 80.4357C289.848 80.5413 296.787 80.647 303.919 80.7526C312.978 80.8582 321.845 80.8582 330.904 80.8582C333.41 80.8582 335.723 80.7526 339 80.2245C337.843 79.9077 337.265 79.8021 336.687 79.6964C331.868 79.1684 327.435 78.6403 322.809 78.3235Z" fill="white"/>
<path d="M53.5001 151.036C50.4478 151.131 47.5175 151.322 44.4652 151.418C43.8548 151.418 43.3664 151.513 42.878 151.704C42.2676 151.895 41.9013 152.277 42.0234 152.754C42.2676 154.186 43.1222 155.809 45.8083 156C46.4187 156 46.9071 156 47.5175 155.905C50.2036 155.523 53.0117 155.141 55.6977 154.759C58.1396 154.377 60.4593 153.613 62.657 152.563C63.0233 152.372 63.3895 152.086 64 151.704C63.3895 151.513 63.0233 151.418 62.657 151.322C59.6047 151.036 56.5524 150.94 53.5001 151.036Z" fill="white"/>
<path d="M49.0962 139.222C50.7967 139.514 52.6187 139.806 54.3193 139.903C55.7769 140 57.2345 140 58.6921 140C59.5424 140 60.2712 139.903 61 139.319C60.8785 139.125 60.7571 138.833 60.5141 138.736C59.0565 137.569 57.4774 136.5 55.6554 135.917C52.4973 134.944 49.3391 133.972 46.0595 133.097C45.4521 133 44.7233 133 44.116 133C43.2657 133.097 42.9013 133.486 43.0228 134.264C43.6301 136.792 46.0595 138.931 49.0962 139.222Z" fill="white"/>
<path d="M56.769 146.658C58.0987 146.566 59.4285 146.475 61 145.926C60.5165 145.743 60.1538 145.56 59.7911 145.469C54.7139 144.097 49.5158 143.274 44.1968 143C43.4715 143 42.7461 143 42.0208 143.091C41.0537 143.274 40.6911 143.823 41.2955 144.463C42.7461 146.018 44.9221 146.749 47.2189 146.84C50.4829 147.115 53.6259 147.023 56.769 146.658Z" fill="white"/>
<path d="M263.654 177.825C264.417 177.725 265.181 177.525 265.817 177.225C267.854 176.425 269.89 175.725 271.926 174.825C272.945 174.425 273.835 174.025 274.726 173.525C275.108 173.325 275.363 172.925 275.745 172.525C275.108 172.325 274.726 172.025 274.217 172.025C272.945 172.025 271.545 171.925 270.272 172.125C266.581 172.825 262.89 173.725 259.326 174.525C258.308 174.725 257.417 175.025 256.908 175.825C256.908 176.025 256.908 176.125 257.035 176.225C258.945 177.825 261.108 178.525 263.654 177.825Z" fill="white"/>
<path d="M274.327 183.725C272.673 183.525 271.018 183.425 269.236 183.325C266.945 183.325 264.655 183.325 262.364 183.325C260.582 183.325 258.8 183.325 257.145 183.925C256.764 184.025 256.382 184.325 256 184.625C257.145 185.825 258.673 186.225 260.327 186.425C262.873 186.725 265.545 186.925 268.218 186.625C270.509 186.325 272.673 186.025 274.964 185.625C275.727 185.525 276.491 185.525 277 184.825C276.364 184.025 275.218 183.925 274.327 183.725Z" fill="white"/>
<path d="M273.325 195.725C268.616 194.325 263.653 193.825 258.689 193.425C258.053 193.425 257.289 193.425 256.525 194.025C257.034 194.425 257.289 194.725 257.798 194.925C259.071 195.425 260.344 195.925 261.744 196.225C266.071 197.125 270.398 197.125 274.853 197.225C275.107 197.225 275.362 197.025 275.744 196.925C275.107 196.125 274.089 196.025 273.325 195.725Z" fill="white"/>
</g>
<defs>
<filter id="filter0_d" x="0.523438" y="0.267578" width="360.141" height="209.662" filterUnits="userSpaceOnUse" color-interpolation-filters="sRGB">
<feFlood flood-opacity="0" result="BackgroundImageFix"/>
<feColorMatrix in="SourceAlpha" type="matrix" values="0 0 0 0 0 0 0 0 0 0 0 0 0 0 0 0 0 0 127 0"/>
<feOffset/>
<feGaussianBlur stdDeviation="4.5"/>
<feColorMatrix type="matrix" values="0 0 0 0 0 0 0 0 0 0 0 0 0 0 0 0 0 0 0.25 0"/>
<feBlend mode="normal" in2="BackgroundImageFix" result="effect1_dropShadow"/>
<feBlend mode="normal" in="SourceGraphic" in2="effect1_dropShadow" result="shape"/>
</filter>
</defs>
</svg>
