<svg width="351" height="118" viewBox="0 0 351 118" fill="none" xmlns="http://www.w3.org/2000/svg">
<path d="M42.909 61.7566L43.053 61.2646L42.7375 60.8605L23.3669 36.0501C33.2702 27.5382 59.1178 15.2937 104.905 14.997C127.775 14.8488 150.567 18.6231 172.847 22.3127C173.384 22.4017 173.922 22.4907 174.459 22.5796C197.213 26.3454 219.439 29.9254 240.474 28.9253C261.458 27.9277 279.585 24.6678 293.475 20.526C300.419 18.4553 306.317 16.16 310.99 13.8086C314.357 12.1143 317.122 10.3736 319.187 8.64223C319.169 8.79213 319.15 8.94723 319.13 9.1073C318.886 11.099 318.524 13.8573 318.05 16.9231C317.1 23.0793 315.714 30.3898 313.963 35.2452C312.195 40.1492 309.879 45.1462 307.998 48.9265C307.059 50.8144 306.231 52.3941 305.638 53.5009C305.341 54.0543 305.104 54.4893 304.941 54.7853C304.907 54.8469 304.876 54.9025 304.849 54.9519C304.811 55.0211 304.779 55.0781 304.754 55.1224L304.706 55.2079L304.695 55.2291L304.692 55.2341L304.691 55.2353L304.691 55.2355L304.423 55.7112L304.678 56.194C306.682 59.9839 310.451 64.9426 314.589 69.7203C318.438 74.1631 322.655 78.5052 326.171 81.6827C321.682 85.7908 313.238 90.1768 300.214 93.8406C286.447 97.7134 267.666 100.75 243.272 101.833C222.481 102.755 201.281 99.1512 179.421 95.4355C175.716 94.8056 171.991 94.1725 168.246 93.5577C142.463 89.3245 115.791 85.9755 88.1326 90.7274C69.5389 93.9219 55.4962 97.7771 45.4832 101.304C37.8116 104.007 32.4703 106.529 29.2571 108.432L42.909 61.7566Z" fill="#FF0039" stroke="white" stroke-width="2"/>
<path d="M326.064 98.8514C325.398 97.5667 323.821 98.7621 324.42 99.8535C325.618 102.036 326.686 104.48 328.081 106.595C328.614 107.493 330.324 106.684 329.99 105.718C328.922 103.273 327.46 100.966 326.064 98.8514Z" fill="white"/>
<path d="M349.847 98.8621C347.855 96.3048 344.414 94.0328 341.244 93.1823C340.253 92.876 339.469 94.4461 340.329 95.0141C341.521 95.9003 343.108 96.6496 344.299 97.5358C345.756 98.5469 347.014 99.6263 348.403 100.444C349.264 101.012 350.312 99.5669 349.847 98.8621Z" fill="white"/>
<path d="M348.142 83.0209C345.564 81.9652 342.792 81.6262 339.89 81.5488C338.571 81.5726 338.778 83.449 340.097 83.4252C342.802 83.5709 344.981 84.1151 347.492 84.9775C348.68 85.2154 349.2 83.5205 348.142 83.0209Z" fill="white"/>
<path d="M1.26391 44.9254C4.50493 44.8815 8.39347 43.5094 10.9853 41.4953C11.8276 40.8902 11.0489 39.3177 10.0768 39.6607C8.65095 40.0758 7.09567 40.8885 5.66983 41.3036C3.98477 41.8542 2.36444 42.206 0.873875 42.8199C-0.0982584 43.1629 0.421206 44.8709 1.26391 44.9254Z" fill="white"/>
<path d="M9.79228 55.6272C12.1899 54.2095 14.1335 52.2042 15.9473 49.9368C16.7246 48.8708 15.1035 47.9034 14.3262 48.9693C12.5772 51.0379 10.8277 52.4469 8.62461 53.928C7.71754 54.7319 8.75543 56.169 9.79228 55.6272Z" fill="white"/>
<path d="M51.4796 17.5427C53.9614 16.968 56.4431 16.3933 59.016 15.8564C63.6303 14.7761 68.298 13.8248 73.0348 13.2226C74.7427 12.9684 76.4506 12.7143 78.0673 12.4223C78.5076 12.391 79.0235 12.1773 79.6306 12.0014C79.194 10.218 78.996 9.92227 77.6593 9.79599C77.0366 9.75174 76.5051 9.74526 75.8446 9.79221C73.4762 10.0933 71.1456 10.3032 68.8306 10.7333C63.4112 11.6938 58.1521 13.0412 52.9086 14.6088C51.7856 14.9984 50.6627 15.388 49.5931 15.9066C48.8193 16.2271 48.0612 16.7678 47.432 17.2551C47.2652 17.3997 47.1519 17.6733 47.0008 18.0381C47.4946 18.1357 47.7681 18.2491 48.1173 18.18C49.2025 17.8816 50.3945 17.8411 51.4796 17.5427Z" fill="white"/>
<path d="M276.071 106.531C273.812 106.845 271.554 107.158 269.199 107.445C265.002 108.035 260.725 108.542 256.3 108.825C254.713 108.951 253.126 109.077 251.636 109.228C251.219 109.239 250.771 109.364 250.227 109.463C251.059 110.606 251.318 110.798 252.635 110.906C253.245 110.948 253.759 110.963 254.385 110.947C256.597 110.805 258.794 110.721 260.925 110.496C265.925 109.999 270.681 109.253 275.371 108.366C276.363 108.142 277.355 107.918 278.266 107.611C278.937 107.424 279.543 107.096 280.037 106.799C280.164 106.711 280.21 106.539 280.272 106.311C279.773 106.238 279.484 106.16 279.163 106.197C278.186 106.364 277.047 106.365 276.071 106.531Z" fill="white"/>
<path fill-rule="evenodd" clip-rule="evenodd" d="M104.3 64.321L109.021 41.9893V41.9363H104.671L99.9504 64.268H95.4416C95.1764 64.268 91.6754 64.2149 92.4711 60.8201C93.3198 57.3192 96.4494 41.9893 96.4494 41.9893H92.0998C92.0998 41.9893 88.9702 56.7887 87.8032 62.3584C86.6893 67.7689 91.7285 67.8219 91.8876 67.8219H102.178C102.178 67.8219 102.284 70.1559 98.306 73.0203C98.8895 73.5507 100.056 74.2934 100.056 74.2934C100.056 74.2934 108.013 71.5881 107.111 64.321H105.732H104.3ZM221.528 50.6356C221.475 49.6808 221.316 48.832 221.051 48.3016L217.285 49.8399C217.293 49.8754 217.302 49.9107 217.311 49.9459C217.461 50.5423 217.603 51.1072 217.603 51.9086C217.603 52.6512 217.497 53.4469 217.285 54.5078L212.776 75.8316L216.966 74.8768L218.186 68.9889C218.217 68.8343 218.257 68.6482 218.298 68.4568C218.398 67.9914 218.505 67.4949 218.505 67.3445C219.459 67.928 220.892 68.1933 222.589 68.1933C224.976 68.1933 227.469 67.0793 229.22 65.1167C231.341 62.7297 232.827 58.0087 232.827 54.6669C232.827 50.9008 231.076 48.5138 227.84 48.5138C225.559 48.5138 223.119 49.7868 221.475 51.7495C221.475 51.5638 221.488 51.3782 221.502 51.1925C221.515 51.0069 221.528 50.8212 221.528 50.6356ZM226.09 62.9949C225.347 64.0558 224.021 65.0106 222.377 65.0106C221.104 65.0106 219.831 64.6393 219.247 64.0027L221.104 55.4096C222.801 53.0226 224.711 51.9086 226.249 51.9086C227.734 51.9086 228.371 52.8104 228.371 54.773C228.371 57.16 227.522 60.9262 226.09 62.9949ZM135.755 51.8025C135.967 50.6356 135.808 49.1503 135.437 48.3016L131.618 49.8929C131.936 51.0599 131.989 52.6512 131.565 54.6139L128.753 67.8219H132.785L135.384 55.5156C137.134 53.2878 139.044 52.0147 140.37 52.0147C141.325 52.0147 141.643 52.4391 141.643 53.2878C141.643 53.7121 141.537 54.4548 141.325 55.3035L138.673 67.875H142.704L145.356 55.5156C146.842 53.4469 148.698 52.0147 150.077 52.0147C151.085 52.0147 151.509 52.386 151.509 53.3408C151.509 53.7652 151.456 54.3487 151.297 55.0382L148.592 67.8219H152.623L155.435 54.6139C155.594 53.8713 155.753 52.9695 155.753 52.2799C155.753 49.8929 154.268 48.4607 152.093 48.4607C150.077 48.4607 147.849 49.3625 145.569 51.8025C145.462 49.6277 144.295 48.4607 142.227 48.4607C140.211 48.4607 137.983 49.4686 135.755 51.8025ZM262.001 53.5C262.001 50.5295 259.508 48.3547 255.636 48.3547C252.559 48.3547 249.536 49.5216 246.618 51.5904L248.156 54.0834C249.96 52.9165 252.135 51.8556 254.363 51.8556C256.325 51.8556 257.439 52.7573 257.439 54.2956C257.439 55.7278 256.643 57.2661 255.105 58.0087C254.15 58.4861 252.718 58.5922 251.127 58.5922C250.596 58.5922 250.066 58.5392 249.536 58.4861L248.846 61.7749H250.172C252.135 61.7749 252.824 61.8279 253.673 62.0931C254.999 62.5175 255.636 63.5253 255.636 64.8515C255.636 66.6019 254.522 68.4585 252.824 69.6785C250.968 71.0576 248.05 71.7472 244.868 71.7472C243.807 71.7472 243.435 71.7472 242.481 71.535L242.852 74.5055C243.966 74.6647 244.337 74.6647 245.398 74.6647C254.469 74.6647 260.357 70.2089 260.357 64.8515C260.357 62.7827 258.977 60.6609 256.643 60.2366C260.091 59.1227 262.001 56.4174 262.001 53.5ZM210.389 62.5175L213.359 48.4607L209.222 49.2034L206.623 61.2975C205.35 63.4193 203.069 65.0106 201.424 65.0106C200.523 65.0106 199.939 64.3741 199.939 63.2071C199.939 62.6766 200.098 61.6688 200.31 60.714L202.91 48.4077L198.666 49.2034L196.067 61.5097C195.855 62.5705 195.749 63.5784 195.749 64.3741C195.749 66.9202 197.393 68.2463 200.098 68.2463C202.379 68.2463 204.501 67.1324 206.304 65.1697C206.251 66.655 206.729 67.6628 207.418 68.5115L210.866 66.708C210.389 66.0715 210.177 65.3289 210.177 64.3741C210.177 63.8436 210.23 63.2071 210.389 62.5175ZM192.513 50.0521C191.081 48.6199 189.065 48.4607 187.686 48.4607C186.094 48.4607 183.283 48.6729 181.32 50.7947C179.888 52.2269 179.358 54.0834 179.04 55.5687L176.599 67.0793L180.366 67.3445L182.275 59.4409H184.927C186.147 59.4409 186.943 59.6001 187.527 59.8653C190.232 60.9262 188.534 66.1245 186.147 68.2993C182.434 71.8003 177.077 72.0655 175.379 72.0655H174.849L174.584 74.5586C174.584 74.5586 175.539 74.7177 177.077 74.7177C179.305 74.7177 182.7 74.3464 186.041 72.5429C193.043 68.8298 192.884 61.6157 192.884 61.6157C192.884 60.6079 192.619 59.7592 191.929 59.0166C191.558 58.5922 190.868 58.1148 189.861 57.9026C190.815 57.5844 191.77 57.107 192.354 56.5235C192.937 55.94 193.733 54.8261 193.733 53.1286C193.733 52.0147 193.415 50.9538 192.513 50.0521ZM185.087 56.7357H182.806L183.124 55.1974C183.283 54.4548 183.601 53.3408 184.45 52.4921C184.981 51.9086 185.829 51.4312 187.155 51.4312C187.898 51.4312 188.588 51.5904 189.012 52.0147C189.171 52.1208 189.595 52.5982 189.595 53.553C189.595 54.2956 189.277 55.1443 188.641 55.7278C187.633 56.6826 186.307 56.7357 185.299 56.7357H185.087ZM175.273 55.0913C175.273 50.9538 172.939 48.4607 168.59 48.4607C162.331 48.4607 157.875 54.1895 157.875 61.5097C157.875 65.8063 160.262 68.2463 164.452 68.2463C171.401 68.2463 175.273 61.9871 175.273 55.0913ZM170.871 54.9322C170.871 59.494 168.908 65.1167 165.248 65.1167C163.391 65.1167 162.278 64.1088 162.278 61.8279C162.278 57.5844 164.24 51.5904 168.006 51.5904C169.651 51.5904 170.871 52.4391 170.871 54.9322ZM124.775 62.5175L127.746 48.4607L123.608 49.2034L121.009 61.2975C119.736 63.4193 117.455 65.0106 115.811 65.0106C114.909 65.0106 114.325 64.3741 114.325 63.2071C114.325 62.6766 114.485 61.6688 114.697 60.714L117.296 48.4077L113.052 49.2034L110.453 61.5097C110.241 62.5705 110.135 63.5784 110.135 64.3741C110.135 66.9202 111.779 68.2463 114.485 68.2463C116.765 68.2463 118.887 67.1324 120.691 65.1697C120.638 66.655 121.115 67.6628 121.805 68.5115L125.253 66.708C124.775 66.0715 124.563 65.3289 124.563 64.3741C124.563 63.8436 124.616 63.2071 124.775 62.5175ZM243.542 61.8279L244.337 58.2209H236.168L235.373 61.8279H243.542Z" fill="white"/>
</svg>
