<svg width="230" height="128" viewBox="0 0 230 128" fill="none" xmlns="http://www.w3.org/2000/svg">
<path d="M12.997 28.0948L12.3992 11.1409C12.3673 10.567 12.5108 10.0968 12.8296 9.73011C12.9731 9.55476 13.6506 9.4352 14.8621 9.37143L21.1033 9.15622C21.6293 9.23593 21.9561 9.33158 22.0837 9.44317C22.4663 9.80982 22.5699 10.2881 22.3945 10.8779L21.175 28.2382L12.997 28.0948ZM32.0073 38.7835C33.1232 33.9214 33.8246 30.9244 34.1115 29.7925C34.2869 29.0911 33.0275 28.6686 30.3334 28.5252C28.9943 28.4455 27.6313 28.4455 26.2444 28.5252C27.0096 18.8168 27.4081 11.8822 27.44 7.72148C27.456 6.70122 27.3364 5.96791 27.0813 5.52155L27.0574 5.44982L27.0096 5.35417C26.9618 5.27446 26.906 5.20272 26.8422 5.13896C26.619 4.9636 26.3082 4.86795 25.9096 4.85201C23.9966 4.83607 21.175 4.86795 17.4447 4.94766C13.3318 5.05925 10.4703 5.18678 8.86016 5.33025C8.39786 5.36214 8.07903 5.43387 7.90367 5.54546C7.83991 5.59329 7.77614 5.64908 7.71237 5.71285L7.64064 5.8085L7.5689 5.90415C7.25007 6.33457 7.13848 6.81282 7.23413 7.33889L8.45365 28.3817L1.51909 29.1708C1.24808 29.4259 1.07273 29.6172 0.99302 29.7447C0.88143 29.936 0.833605 30.0795 0.849547 30.1751C0.865488 30.2229 0.897371 30.3266 0.945196 30.486L0.969108 30.5816L1.01693 30.7251C1.04882 30.8526 1.0807 30.9722 1.11258 31.0838C1.24011 31.4823 1.43938 32.0164 1.71039 32.6859L2.02125 33.4989L2.33211 34.3359C2.81035 35.6749 2.98571 36.9343 2.85818 38.114L2.23646 38.4009V39.6683L10.1275 39.8118V38.114L9.29058 37.9705C9.13117 38.1778 8.93987 38.1778 8.71669 37.9705C8.50945 37.7952 8.31018 37.4524 8.11888 36.9423C7.86382 36.3206 7.62469 35.4518 7.40151 34.3359C7.21022 33.3794 14.0013 33.2837 27.7748 34.0489L26.8422 38.2097L25.5749 38.4966L26.0053 39.9313H33.3463L33.4898 38.7835H32.0073Z" fill="#0062D9"/>
<path d="M60.2955 33.5468L59.5303 34.0728C53.6957 34.0888 48.0285 34.0967 42.5287 34.0967C42.433 32.8374 42.449 31.2034 42.5765 29.1947L42.6004 28.6447L42.6482 28.0948C42.6642 27.6803 42.6801 27.3375 42.6961 27.0665C42.7279 26.3332 42.7279 25.7274 42.6961 25.2492C47.7973 25.0898 51.9342 25.1775 55.1065 25.5122C55.1384 25.5282 55.1783 25.568 55.2261 25.6318C55.258 25.6956 55.2899 25.7673 55.3217 25.847C55.3377 25.9267 55.3377 25.9905 55.3217 26.0383C55.3217 26.0861 55.2899 26.0941 55.2261 26.0622C56.0072 26.381 56.3978 26.3412 56.3978 25.9426C56.3978 23.663 56.5014 21.6703 56.7087 19.9646L56.1108 19.7494L55.5369 20.1798C51.2646 19.9088 47.0401 19.7812 42.8634 19.7972C42.8634 19.3349 42.8555 18.6813 42.8395 17.8364L42.8156 16.8321V15.8038C42.7997 14.1459 42.8634 12.5279 43.0069 10.9496C46.6416 10.4395 51.3045 10.4475 56.9956 10.9736C57.155 10.9895 57.2507 11.0373 57.2825 11.117V11.1888L57.3065 11.2366C57.3224 11.2844 57.3543 11.3322 57.4021 11.3801C57.5775 11.5235 57.8644 11.5793 58.263 11.5474C58.1354 7.94466 58.2311 5.944 58.5499 5.54546L57.7608 5.35417L57.6173 5.8085C52.8986 5.63314 48.0205 5.52952 42.983 5.49764C42.4888 5.44982 41.7954 5.46576 40.9026 5.54546L40.3526 5.59329L39.8505 5.64111C39.4679 5.673 39.165 5.68894 38.9418 5.68894C38.1607 6.05559 37.7701 6.54978 37.7701 7.1715C37.7542 7.90481 37.7861 9.85765 37.8658 13.03C37.9136 14.5923 37.9455 15.9154 37.9614 16.9995C37.9774 18.5617 37.9853 20.0044 37.9853 21.3276C37.9853 22.4594 37.9694 23.7666 37.9375 25.2492L37.8897 27.1861L37.8658 28.1187L37.8419 29.0512C37.7621 32.0323 37.7462 34.1844 37.794 35.5076C37.8737 37.2611 38.4397 38.4408 39.4918 39.0466C40.2411 39.477 41.2773 39.6205 42.6004 39.477C44.9438 39.2379 47.7894 39.0944 51.1371 39.0466C54.6602 38.9828 57.5456 39.0546 59.7933 39.2618C59.873 39.2777 59.9129 39.3495 59.9129 39.477V39.6444C59.9129 39.6922 59.9288 39.7161 59.9607 39.7161C60.1839 39.8277 60.3991 39.8437 60.6064 39.764C60.6861 38.9828 60.7179 36.9981 60.702 33.8098L60.2955 33.5468Z" fill="#0062D9"/>
<path d="M64.8149 5.56938C64.7512 8.64609 64.6874 11.0054 64.6236 12.6474C64.6236 12.759 64.8548 12.759 65.3171 12.6474L65.5801 11.7866C66.8554 11.5953 68.1706 11.4598 69.5256 11.3801C72.2357 11.2366 73.8139 11.4279 74.2603 11.954C74.7704 12.5597 75.0494 17.1031 75.0972 25.584C75.1291 29.8085 75.1131 33.9772 75.0494 38.0901L73.9972 38.6162L74.2603 39.5727L82.1274 39.7161C82.2709 38.919 82.2151 38.4009 81.96 38.1618C81.8166 38.0184 81.41 38.0184 80.7405 38.1618C80.1666 20.5783 80.1028 11.659 80.5492 11.404C82.1752 10.5272 85.5788 10.4315 90.7598 11.117L91.0945 12.0257L92.2184 12.1453V5.64111L91.1902 5.83241V6.33457C79.5369 6.07951 71.2234 6.07951 66.2497 6.33457C66.1221 6.33457 66.0105 6.21501 65.9149 5.97589L65.8671 5.8085L65.8192 5.66503C65.7714 5.56938 65.7316 5.50561 65.6997 5.47373C65.5721 5.3462 65.2772 5.37808 64.8149 5.56938ZM72.7538 14.2256L72.7777 14.1778C72.8096 14.13 72.8494 14.0981 72.8973 14.0822C72.9451 14.0662 72.9929 14.0662 73.0407 14.0822H73.0647L73.0886 14.1061C73.1683 14.1379 73.2241 14.2017 73.256 14.2974L73.2799 14.393L73.3038 14.4887L73.3277 14.5604L73.3516 14.656L73.3755 14.7517L73.3994 14.8952H73.3755C73.6146 16.9038 73.7342 19.3429 73.7342 22.2123C73.7342 22.7065 73.7342 23.2884 73.7342 23.9579V24.7949L73.7103 25.6318C73.7103 26.9709 73.7103 28.015 73.7103 28.7643C73.7262 29.1947 73.7342 29.665 73.7342 30.1751L73.7581 30.8447V31.4664C73.7741 32.4707 73.79 33.1721 73.8059 33.5707C73.8219 34.2083 73.8378 34.6706 73.8538 34.9576C73.8697 35.117 73.8856 35.2366 73.9016 35.3163V35.3641C74.0132 35.4279 74.0849 35.5235 74.1168 35.651C74.1487 35.7467 74.1487 35.8503 74.1168 35.9619V35.9858C74.0371 36.2409 73.9175 36.4003 73.7581 36.4641C73.6465 36.48 73.5429 36.48 73.4473 36.4641C73.0647 36.3684 72.9212 36.1452 73.0168 35.7945V35.7228C73.0487 35.6431 73.0965 35.5713 73.1603 35.5076C73.1922 35.4597 73.24 35.4119 73.3038 35.3641C73.2878 35.2844 73.2799 35.1887 73.2799 35.0771C73.2799 34.9177 73.2799 34.7583 73.2799 34.5989C73.2639 34.1525 73.256 33.7381 73.256 33.3555C73.2241 32.2077 73.2081 31.4106 73.2081 30.9642C73.1922 30.3266 73.1922 29.0991 73.2081 27.2817C73.2081 26.3731 73.2081 25.6477 73.2081 25.1057C73.2081 24.2768 73.2002 23.5275 73.1842 22.858C73.1523 19.1595 73.0168 16.4814 72.7777 14.8234V14.7995L72.7538 14.7517L72.7299 14.6082C72.7299 14.4647 72.7379 14.3532 72.7538 14.2734V14.2256Z" fill="#0062D9"/>
<path d="M117.231 15.3973C117.326 14.4408 117.095 13.5242 116.537 12.6474C116.059 11.8663 115.365 11.2924 114.457 10.9257C113.325 10.4475 111.882 10.296 110.129 10.4714C108.295 10.6468 106.797 11.4359 105.633 12.8387C104.565 14.114 103.84 15.772 103.457 17.8125C103.091 19.7414 103.067 21.766 103.385 23.8862C103.688 26.0064 104.278 27.8875 105.155 29.5295C106.032 31.1555 107.116 32.3671 108.407 33.1642C109.523 33.8496 110.727 34.1764 112.018 34.1446C113.15 34.1286 114.194 33.8496 115.15 33.3076C116.059 32.7816 116.665 32.1439 116.968 31.3946C117.095 31.0918 117.143 30.8686 117.111 30.7251C117.079 30.6135 117 30.5577 116.872 30.5577C116.728 30.5577 116.561 30.6055 116.37 30.7012L116.155 29.6491L124.022 29.0273C124.165 29.2186 124.269 29.4179 124.333 29.6251C124.46 30.0715 124.333 30.3744 123.95 30.5338C123.854 30.5816 123.719 30.749 123.543 31.036C123.384 31.307 123.304 31.4664 123.304 31.5142C123.32 31.5939 123.304 31.7613 123.257 32.0164C123.193 32.3352 123.089 32.6779 122.946 33.0446C122.563 34.0808 122.005 35.0373 121.272 35.9141C119.024 38.6241 115.676 39.9632 111.229 39.9313C108.311 39.9154 105.721 38.9669 103.457 37.0858C101.385 35.3481 99.7986 33.0047 98.6986 30.0556C97.6146 27.1861 97.1443 24.1572 97.2878 20.9689C97.4313 17.669 98.2124 14.664 99.6312 11.954C100.779 9.75403 102.469 8.10408 104.701 7.00411C106.677 6.03168 108.869 5.56141 111.276 5.59329C113.508 5.60923 115.509 6.03965 117.278 6.88455C119.08 7.72945 120.212 8.78956 120.674 10.0649C121.391 11.2286 121.941 12.6076 122.324 14.2017C122.388 14.5205 122.515 14.7437 122.707 14.8713C122.85 14.9828 123.025 15.0307 123.233 15.0147C123.488 15.0147 123.719 14.951 123.926 14.8234V16.4016L116.107 17.9799L116.298 16.5212C116.473 16.569 116.649 16.5531 116.824 16.4734C117.143 16.3299 117.278 15.9712 117.231 15.3973ZM122.754 35.938C122.547 35.938 122.372 36.0336 122.228 36.2249C122.085 36.4003 122.013 36.6075 122.013 36.8467C122.013 36.9742 122.037 37.1017 122.085 37.2292C120.714 39.1103 118.618 40.3458 115.796 40.9357C113.405 41.4458 110.902 41.4458 108.287 40.9357C105.498 40.3936 103.035 38.8712 100.899 36.3684C99.0493 34.2163 97.6545 31.6258 96.7139 28.5969C95.6139 25.0101 95.3987 21.2 96.0683 17.1668C96.8494 12.48 98.6986 9.23593 101.616 7.43453C101.712 7.37077 101.767 7.29106 101.783 7.19541C101.783 7.1157 101.767 7.036 101.735 6.95629C101.688 6.87658 101.624 6.82876 101.544 6.81282C101.449 6.78093 101.361 6.7889 101.281 6.83673C99.4957 7.95263 98.0291 9.87359 96.8813 12.5996C95.6697 15.4531 95.0799 18.5458 95.1118 21.8776C95.1277 25.1296 95.7255 28.2223 96.9052 31.1555C98.053 33.9931 99.687 36.3525 101.807 38.2336C104.071 40.2422 106.638 41.4378 109.507 41.8204C112.01 42.1552 114.385 42.0276 116.633 41.4378C119.247 40.7364 121.224 39.4929 122.563 37.7075C122.643 37.7394 122.707 37.7553 122.754 37.7553C122.962 37.7553 123.137 37.6676 123.28 37.4923C123.44 37.3169 123.52 37.1017 123.52 36.8467C123.52 36.6075 123.44 36.4003 123.28 36.2249C123.137 36.0336 122.962 35.938 122.754 35.938Z" fill="#0062D9"/>
<path d="M127.609 5.56938C127.545 8.64609 127.481 11.0054 127.417 12.6474C127.417 12.759 127.648 12.759 128.111 12.6474L128.374 11.7866C129.649 11.5953 130.964 11.4598 132.319 11.3801C135.029 11.2366 136.608 11.4279 137.054 11.954C137.564 12.5597 137.843 17.1031 137.891 25.584C137.923 29.8085 137.907 33.9772 137.843 38.0901L136.791 38.6162L137.054 39.5727L144.921 39.7161C145.065 38.919 145.009 38.4009 144.754 38.1618C144.61 38.0184 144.204 38.0184 143.534 38.1618C142.96 20.5783 142.897 11.659 143.343 11.404C144.969 10.5272 148.372 10.4315 153.553 11.117L153.888 12.0257L155.012 12.1453V5.64111L153.984 5.83241V6.33457C142.331 6.07951 134.017 6.07951 129.043 6.33457C128.916 6.33457 128.804 6.21501 128.709 5.97589L128.661 5.8085L128.613 5.66503C128.565 5.56938 128.525 5.50561 128.493 5.47373C128.366 5.3462 128.071 5.37808 127.609 5.56938ZM135.547 14.2256L135.571 14.1778C135.603 14.13 135.643 14.0981 135.691 14.0822C135.739 14.0662 135.787 14.0662 135.834 14.0822H135.858L135.882 14.1061C135.962 14.1379 136.018 14.2017 136.05 14.2974L136.074 14.393L136.097 14.4887L136.121 14.5604L136.145 14.656L136.169 14.7517L136.193 14.8952H136.169C136.408 16.9038 136.528 19.3429 136.528 22.2123C136.528 22.7065 136.528 23.2884 136.528 23.9579V24.7949L136.504 25.6318C136.504 26.9709 136.504 28.015 136.504 28.7643C136.52 29.1947 136.528 29.665 136.528 30.1751L136.552 30.8447V31.4664C136.568 32.4707 136.584 33.1721 136.6 33.5707C136.616 34.2083 136.631 34.6706 136.647 34.9576C136.663 35.117 136.679 35.2366 136.695 35.3163V35.3641C136.807 35.4279 136.879 35.5235 136.91 35.651C136.942 35.7467 136.942 35.8503 136.91 35.9619V35.9858C136.831 36.2409 136.711 36.4003 136.552 36.4641C136.44 36.48 136.337 36.48 136.241 36.4641C135.858 36.3684 135.715 36.1452 135.811 35.7945V35.7228C135.842 35.6431 135.89 35.5713 135.954 35.5076C135.986 35.4597 136.034 35.4119 136.097 35.3641C136.082 35.2844 136.074 35.1887 136.074 35.0771C136.074 34.9177 136.074 34.7583 136.074 34.5989C136.058 34.1525 136.05 33.7381 136.05 33.3555C136.018 32.2077 136.002 31.4106 136.002 30.9642C135.986 30.3266 135.986 29.0991 136.002 27.2817C136.002 26.3731 136.002 25.6477 136.002 25.1057C136.002 24.2768 135.994 23.5275 135.978 22.858C135.946 19.1595 135.811 16.4814 135.571 14.8234V14.7995L135.547 14.7517L135.524 14.6082C135.524 14.4647 135.532 14.3532 135.547 14.2734V14.2256Z" fill="#0062D9"/>
<path d="M166.37 23.4319C166.928 23.5116 168.244 23.4 170.316 23.0971L170.938 23.0253L171.607 22.9297C172.101 22.85 172.548 22.7942 172.946 22.7623C173.967 22.6507 174.867 22.587 175.648 22.571C180.096 22.571 182.192 24.484 181.937 28.31C181.842 29.8085 181.005 31.0519 179.427 32.0403C178.183 32.8214 176.493 33.4272 174.357 33.8576C171.934 34.3359 169.519 34.5351 167.112 34.4554L166.37 23.4319ZM165.677 10.1605C165.884 10.2084 166.641 10.1765 167.949 10.0649C168.634 10.0011 169.2 9.96127 169.646 9.94533C170.316 9.91344 170.914 9.91344 171.44 9.94533C174.453 10.1207 175.712 11.3402 175.218 13.6039C174.819 15.4212 173.209 16.7603 170.388 17.6212C168.969 18.0516 167.598 18.2987 166.275 18.3625L165.677 10.1605ZM177.872 17.8842C179.052 16.9915 179.809 15.764 180.144 14.2017C180.495 12.5438 180.232 11.0134 179.355 9.61055C178.319 8.00046 176.597 6.85267 174.19 6.16718C171.352 5.38605 167.741 5.31431 163.357 5.95197C163.007 5.9998 162.664 6.21501 162.329 6.5976C162.122 6.83673 161.994 7.02006 161.947 7.14759C161.883 7.33889 161.843 7.76931 161.827 8.43885C161.763 10.0808 161.715 11.7706 161.684 13.5083C161.652 15.8995 161.644 18.2588 161.66 20.5863C161.708 26.8673 161.947 32.4308 162.377 37.2771C162.457 38.1379 163.509 38.7915 165.533 39.2379C167.558 39.7002 169.886 39.8118 172.516 39.5727C175.465 39.3016 178.071 38.6321 180.335 37.564C182.997 36.3365 184.886 34.6866 186.002 32.6142C186.831 31.0678 187.286 29.4578 187.365 27.7839C187.445 26.11 187.15 24.5637 186.481 23.1449C185.763 21.6464 184.703 20.4508 183.3 19.5581C181.786 18.5856 179.976 18.0277 177.872 17.8842ZM160.058 6.86064L160.01 6.7889C159.962 6.74108 159.906 6.7092 159.842 6.69325C159.779 6.67731 159.715 6.68528 159.651 6.71717H159.627L159.579 6.74108C159.484 6.80484 159.412 6.90049 159.364 7.02803L159.34 7.14759L159.316 7.26715L159.292 7.38671V7.48236H159.268V7.62583L159.221 7.79322H159.245C159.101 10.5511 159.093 14.385 159.221 19.295C159.268 21.0805 159.34 23.0253 159.436 25.1296C159.468 25.9108 159.5 26.7557 159.531 27.6643C159.547 27.9991 159.563 28.3658 159.579 28.7643L159.603 29.2904L159.627 29.7686C159.659 30.3266 159.691 30.9244 159.723 31.562L159.771 32.4229L159.818 33.212C159.882 34.4873 159.922 35.38 159.938 35.8902C159.986 36.7032 160.002 37.293 159.986 37.6597C159.986 37.8669 159.978 38.0263 159.962 38.1379V38.1857C159.818 38.2814 159.723 38.4089 159.675 38.5683C159.643 38.7118 159.651 38.8473 159.699 38.9748H159.723V38.9988C159.85 39.3176 160.026 39.5009 160.249 39.5487C160.408 39.5647 160.552 39.5487 160.679 39.5009H160.703C160.91 39.4212 161.062 39.2937 161.158 39.1183C161.269 38.943 161.293 38.7676 161.229 38.5922L161.205 38.4966C161.158 38.4169 161.086 38.3372 160.99 38.2575C160.942 38.1937 160.879 38.1379 160.799 38.0901C160.799 37.9785 160.791 37.851 160.775 37.7075C160.775 37.5162 160.767 37.3169 160.751 37.1097C160.735 36.5517 160.711 36.0257 160.679 35.5315C160.616 34.0649 160.568 33.0526 160.536 32.4946C160.456 30.9642 160.376 29.1788 160.297 27.1383C160.185 24.6514 160.097 22.2841 160.034 20.0363C159.874 14.0104 159.89 9.87359 160.081 7.62583L160.01 7.60192H160.081C160.081 7.60192 160.089 7.57004 160.105 7.50627V7.43453V7.33889C160.121 7.16353 160.113 7.02006 160.081 6.90846L160.058 6.86064Z" fill="#0062D9"/>
<path d="M212.856 21.8297C212.856 25.5919 212.418 28.1984 211.541 29.6491C210.807 30.8765 210.042 31.6975 209.245 32.112C208.528 32.4946 207.508 32.6859 206.184 32.6859C202.916 32.6859 200.605 31.5381 199.25 29.2425C198.437 27.8716 197.887 26.8274 197.6 26.11C197.122 24.9144 196.882 23.655 196.882 22.3319C196.882 17.932 197.44 14.935 198.556 13.3409C199.258 12.3366 200.382 11.5156 201.928 10.8779C203.299 10.32 204.63 10.041 205.921 10.041C207.356 10.041 208.52 10.32 209.413 10.8779C210.353 11.4837 211.198 12.5279 211.947 14.0104C212.378 14.8553 212.649 16.0748 212.76 17.669C212.808 18.2748 212.84 18.9762 212.856 19.7733V20.8254V21.8297ZM215.797 9.32361C214.617 7.93669 212.967 6.90846 210.847 6.23892C209.126 5.71285 207.189 5.44982 205.037 5.44982C200.94 5.44982 197.743 6.67731 195.448 9.13231C192.786 11.9699 191.454 16.3857 191.454 22.3797C191.454 24.1971 191.717 25.9108 192.244 27.5209C192.642 28.7005 193.32 30.1672 194.276 31.9207C195.567 34.3119 197.393 36.2249 199.752 37.6597C202.111 39.0785 204.495 39.7002 206.902 39.5248C208.91 39.3814 210.608 38.7756 211.995 37.7075C213.414 36.6235 214.753 34.8619 216.012 32.4229C217.575 29.4259 218.356 25.7593 218.356 21.4232C218.356 17.8842 218.284 15.6205 218.141 14.6321C217.838 12.6076 217.056 10.8381 215.797 9.32361Z" fill="#0062D9"/>
<path d="M228.781 35.4837C228.048 34.5909 227.06 34.4873 225.816 35.1728C224.366 35.9699 223.983 36.9901 224.669 38.2336C225.402 39.5727 226.478 39.8995 227.897 39.214C228.12 39.8835 227.992 40.5052 227.514 41.0791C227.418 41.1907 227.411 41.3023 227.49 41.4139C227.554 41.5255 227.65 41.5733 227.777 41.5574C228.893 41.3501 229.571 40.4733 229.81 38.927C230.065 37.3807 229.722 36.2329 228.781 35.4837Z" fill="#0062D9"/>
<path d="M1.3682 70.4204C1.51363 68.104 1.61751 65.7875 1.67984 63.471C1.73178 61.7155 1.80449 60.0222 1.89798 58.3914C1.98109 56.8851 2.04341 56.0697 2.08496 55.945C2.15768 55.7165 3.79376 55.5763 6.9932 55.5243C8.00082 55.5035 9.18503 55.4932 10.5458 55.4932C10.7744 55.4932 11.0185 55.4932 11.2782 55.4932C11.3821 55.4932 11.4911 55.4932 11.6054 55.4932H11.9014C12.3377 55.4932 12.613 55.4932 12.7273 55.4932C13.3713 55.4828 13.7245 57.9031 13.7868 62.7542C13.8076 64.2709 13.7972 65.9381 13.7557 67.756C13.7349 68.6701 13.7089 69.4284 13.6778 70.0309C13.8751 70.0205 14.0258 69.9945 14.1296 69.953C14.1816 69.9218 14.2283 69.927 14.2699 69.9686C14.301 70.0101 14.3166 70.0673 14.3166 70.14C14.3374 70.3166 14.301 70.462 14.2075 70.5763C14.114 70.7009 13.5479 70.8567 12.5091 71.0437C11.46 71.2307 10.8315 71.2878 10.6237 71.2151C10.551 71.1943 10.5406 70.971 10.5926 70.5451C10.6549 70.5451 10.7172 70.5295 10.7796 70.4984C10.8315 70.4776 10.8782 70.4516 10.9198 70.4204C10.9717 70.3789 11.0081 70.3321 11.0289 70.2802C11.0704 70.1971 11.0704 68.4831 11.0289 65.1382C11.0185 64.6292 11.0081 63.9696 10.9977 63.1594V62.6763C10.9977 62.479 10.9977 62.3231 10.9977 62.2089C10.9873 61.8453 10.9821 61.5441 10.9821 61.3051C10.9613 59.9859 10.951 59.1393 10.951 58.7653C10.951 58.7238 10.9354 58.5783 10.9042 58.329C10.8627 58.0693 10.8367 57.9239 10.8263 57.8927C10.7951 57.8096 10.603 57.7785 10.2498 57.7992C10.1875 57.8096 10.1147 57.82 10.0316 57.8304H9.92257L9.82908 57.846C9.68365 57.8668 9.59016 57.8772 9.54861 57.8772C9.4655 57.8772 9.33046 57.8772 9.14348 57.8772H9.01883H8.87859C8.76433 57.8772 8.67084 57.8772 8.59812 57.8772C8.06834 57.8875 7.62167 57.8927 7.25809 57.8927C6.08427 57.9031 5.32596 57.9291 4.98316 57.9706C4.90006 57.981 4.82735 57.9914 4.76502 58.0018C4.67153 58.0226 4.61959 58.0434 4.6092 58.0641C4.56765 58.1057 4.53129 58.22 4.50013 58.4069L4.2664 70.2335C4.57804 70.2854 4.76502 70.3581 4.82735 70.4516C4.88967 70.5555 4.85332 70.7373 4.71827 70.997L0.854007 71.1216C0.781293 70.81 0.770905 70.6126 0.822844 70.5295C0.885171 70.4568 1.06696 70.4204 1.3682 70.4204ZM0.433301 54.0441C0.360586 53.8882 0.345005 53.7376 0.386556 53.5922C0.417719 53.4468 0.495628 53.3429 0.620282 53.2806C0.755323 53.2182 0.890365 53.2182 1.02541 53.2806C1.17084 53.3429 1.27991 53.452 1.35262 53.6078C1.42534 53.7636 1.44092 53.9142 1.39937 54.0596C1.35782 54.2051 1.27471 54.3089 1.15006 54.3713C1.02541 54.4336 0.890365 54.4336 0.744935 54.3713C0.609894 54.3089 0.506016 54.1999 0.433301 54.0441Z" fill="#0062D9"/>
<path d="M25.8315 62.5517C25.8315 63.4762 25.8003 64.167 25.738 64.624C25.6445 65.32 25.4627 65.9017 25.1927 66.3692C24.8291 66.9613 24.4551 67.3612 24.0708 67.569C23.7176 67.756 23.219 67.8495 22.5749 67.8495C21.8893 67.8495 21.2661 67.7248 20.7051 67.4755C20.0507 67.1846 19.5521 66.7484 19.2093 66.1666C18.8145 65.5018 18.5445 64.9928 18.399 64.6396C18.1705 64.0579 18.0562 63.445 18.0562 62.801C18.0562 61.8038 18.103 61.0091 18.1965 60.417C18.3107 59.5756 18.5341 58.9159 18.8665 58.4381C19.2093 57.9395 19.7598 57.5396 20.5181 57.2383C21.183 56.9682 21.827 56.8332 22.4503 56.8332C23.1566 56.8332 23.7228 56.9682 24.1487 57.2383C24.6057 57.5292 25.0161 58.033 25.3796 58.7497C25.5874 59.1652 25.7224 59.7625 25.7848 60.5416C25.8055 60.8325 25.8211 61.1753 25.8315 61.57C25.8315 61.7051 25.8315 61.8713 25.8315 62.0686V62.3179V62.5517ZM27.2027 56.4904C26.6417 55.8048 25.8419 55.301 24.8031 54.979C23.9617 54.7193 23.0164 54.5894 21.9672 54.5894C19.9832 54.5894 18.4302 55.1919 17.3083 56.3969C16.0202 57.7785 15.3762 59.9236 15.3762 62.8321C15.3762 63.7151 15.506 64.5461 15.7657 65.3252C15.9527 65.9069 16.2799 66.6237 16.7474 67.4755C17.3706 68.6389 18.2588 69.5634 19.4118 70.249C20.5545 70.945 21.7127 71.2515 22.8866 71.1684C23.863 71.0956 24.6888 70.7996 25.3641 70.2802C26.0496 69.7504 26.7041 68.8934 27.3273 67.7092C27.6909 67.0132 27.9714 66.177 28.1688 65.2006C28.3661 64.2657 28.4648 63.3204 28.4648 62.3647C28.4648 60.6403 28.4285 59.5392 28.3557 59.0614C28.1999 58.0745 27.8156 57.2175 27.2027 56.4904Z" fill="#0062D9"/>
<path d="M34.6819 60.6351C34.7131 59.9495 34.817 58.6511 34.9936 56.7397C35.0351 56.2307 35.1701 55.8619 35.3987 55.6334C35.5129 55.5087 35.7363 55.436 36.0687 55.4152C36.2245 55.3945 36.3751 55.3893 36.5206 55.3997L43.2986 55.1971C43.4336 55.2075 43.5479 55.2698 43.6414 55.3841C43.7037 55.4672 43.7297 55.6801 43.7193 56.0229C43.6881 56.7293 43.657 57.8252 43.6258 59.3107C43.5843 60.952 43.5479 62.5309 43.5167 64.0475C43.444 68.1403 43.444 70.2698 43.5167 70.436C43.5895 70.623 43.6985 70.758 43.844 70.8411C43.9167 70.8827 43.9842 70.9087 44.0465 70.9191L43.9686 71.4956L40.3537 71.5579C40.3017 71.4436 40.255 71.3346 40.2134 71.2307C40.1511 71.0125 40.1615 70.8983 40.2446 70.8879C40.3692 70.8775 40.4731 70.8048 40.5562 70.6697C40.6082 70.597 40.6445 70.5295 40.6653 70.4672L40.9146 57.846L37.3776 57.9706C37.3152 59.7989 37.2062 61.6531 37.0503 63.5333C36.853 66.0056 36.3232 67.8598 35.461 69.096C34.5053 70.488 33.0874 71.1891 31.2072 71.1995C31.0825 71.2826 31.0046 71.4073 30.9735 71.5735C30.9735 71.6047 30.9423 71.6202 30.88 71.6202C30.8384 71.6202 30.7761 71.6047 30.693 71.5735C30.6099 71.5527 30.5216 71.5215 30.4281 71.48L30.6151 68.5351L30.6618 68.3325L31.0046 68.2546L31.2072 68.6597C31.3422 68.7116 31.5084 68.722 31.7058 68.6909C31.872 68.6701 32.0434 68.613 32.22 68.5195C32.4278 68.4156 32.6251 68.265 32.8121 68.0676C33.29 67.5586 33.6847 66.7795 33.9963 65.7303C34.3703 64.4215 34.5988 62.7231 34.6819 60.6351Z" fill="#0062D9"/>
<path d="M45.7917 56.0541L46.2436 56.1788C46.202 56.0645 46.1916 56.0801 46.2124 56.2255C46.2124 56.319 46.2435 56.5891 46.3059 57.0357C46.3267 57.1604 46.3422 57.2643 46.3526 57.3474C46.363 57.472 46.3734 57.5915 46.3838 57.7058C46.4253 57.9758 46.4617 58.2407 46.4929 58.5004C46.5656 59.1756 46.6331 59.8249 46.6954 60.4481C46.8616 62.1725 46.9551 63.7774 46.9759 65.2629C46.9967 67.1742 46.898 68.8571 46.6798 70.3114C46.6695 70.3737 46.6383 70.4256 46.5863 70.4672C46.5448 70.4983 46.4929 70.5191 46.4305 70.5295C46.3578 70.5503 46.2903 70.5607 46.228 70.5607L46.2591 71.0281L50.0299 71.0905C50.0715 71.0177 50.1078 70.9398 50.139 70.8567C50.1598 70.784 50.1753 70.7217 50.1857 70.6697C50.1961 70.597 50.1909 70.5451 50.1701 70.5139C50.1078 70.4204 49.9104 70.3477 49.578 70.2958C49.5573 67.1691 49.5469 65.4395 49.5469 65.1071C49.5469 64.8889 49.7806 64.7487 50.2481 64.6864C50.6116 64.6448 51.183 64.65 51.962 64.702C52.0971 64.7123 52.2633 64.7227 52.4607 64.7331L52.9749 64.7643C53.4215 64.7954 53.7591 64.8214 53.9877 64.8422C54.7667 64.8837 55.3433 64.8785 55.7172 64.8266C55.9458 64.7954 56.1276 65.6992 56.2626 67.5378C56.3041 68.2026 56.3353 68.8571 56.3561 69.5011C56.3665 70.114 56.3561 70.462 56.3249 70.5451C56.3041 70.6282 56.2574 70.6905 56.1847 70.7321C56.1327 70.7736 56.0652 70.7996 55.9821 70.81C55.8782 70.8204 55.7848 70.8204 55.7017 70.81L55.7172 71.2463L59.6594 71.1684L59.6127 70.6542C59.5088 70.6438 59.3997 70.6282 59.2854 70.6074C59.192 70.5866 59.1192 70.5659 59.0673 70.5451C59.005 70.5139 58.9738 70.4828 58.9738 70.4516C58.953 69.9634 58.9271 68.7792 58.8959 66.899C58.8855 66.016 58.8751 65.2785 58.8647 64.6864C58.844 63.845 58.8284 63.0866 58.818 62.4114C58.7245 58.703 58.5843 56.5735 58.3973 56.0229C58.3765 55.9606 58.5479 55.8723 58.9115 55.758L58.9738 55.3062L55.1563 55.6646C55.1978 55.9346 55.255 56.106 55.3277 56.1788C55.4004 56.2515 55.577 56.3242 55.8575 56.3969C55.9406 56.8332 55.9977 57.3941 56.0289 58.0797C56.0912 59.4613 56.0133 60.7909 55.7951 62.0686C55.7328 62.4011 53.5722 62.453 49.3131 62.2245L49.2197 56.0853C49.3028 56.0956 49.3859 56.0905 49.469 56.0697C49.5521 56.0489 49.6144 56.0281 49.6559 56.0074C49.7183 55.9658 49.7598 55.9191 49.7806 55.8671C49.791 55.8152 49.791 55.7632 49.7806 55.7113C49.7702 55.6697 49.7546 55.6334 49.7339 55.6022C49.7131 55.5607 49.6871 55.5243 49.6559 55.4932C48.0251 55.5866 46.6746 55.6542 45.6047 55.6957L45.7917 56.0541Z" fill="#0062D9"/>
<path d="M71.6418 62.5517C71.6418 63.4762 71.6106 64.167 71.5483 64.624C71.4548 65.32 71.273 65.9017 71.0029 66.3692C70.6393 66.9613 70.2654 67.3612 69.881 67.569C69.5278 67.756 69.0292 67.8495 68.3852 67.8495C67.6996 67.8495 67.0763 67.7248 66.5154 67.4755C65.8609 67.1846 65.3623 66.7484 65.0195 66.1666C64.6248 65.5018 64.3547 64.9928 64.2093 64.6396C63.9807 64.0579 63.8665 63.445 63.8665 62.801C63.8665 61.8038 63.9132 61.0091 64.0067 60.417C64.121 59.5756 64.3443 58.9159 64.6767 58.4381C65.0195 57.9395 65.5701 57.5396 66.3284 57.2383C66.9932 56.9682 67.6373 56.8332 68.2605 56.8332C68.9669 56.8332 69.533 56.9682 69.9589 57.2383C70.416 57.5292 70.8263 58.033 71.1899 58.7497C71.3976 59.1652 71.5327 59.7625 71.595 60.5416C71.6158 60.8325 71.6314 61.1753 71.6418 61.57C71.6418 61.7051 71.6418 61.8713 71.6418 62.0686V62.3179V62.5517ZM73.0129 56.4904C72.452 55.8048 71.6521 55.301 70.6134 54.979C69.7719 54.7193 68.8267 54.5894 67.7775 54.5894C65.7934 54.5894 64.2404 55.1919 63.1186 56.3969C61.8305 57.7785 61.1864 59.9236 61.1864 62.8321C61.1864 63.7151 61.3163 64.5461 61.576 65.3252C61.7629 65.9069 62.0902 66.6237 62.5576 67.4755C63.1809 68.6389 64.069 69.5634 65.2221 70.249C66.3647 70.945 67.523 71.2515 68.6968 71.1684C69.6733 71.0956 70.4991 70.7996 71.1743 70.2802C71.8599 69.7504 72.5143 68.8934 73.1376 67.7092C73.5012 67.0132 73.7816 66.177 73.979 65.2006C74.1764 64.2657 74.2751 63.3204 74.2751 62.3647C74.2751 60.6403 74.2387 59.5392 74.166 59.0614C74.0102 58.0745 73.6258 57.2175 73.0129 56.4904Z" fill="#0062D9"/>
<path d="M79.3547 62.5049C79.4482 61.7258 79.6975 60.9364 80.1026 60.1365C80.4558 59.4509 80.8921 58.9056 81.4115 58.5004C82.0555 58.0018 82.8087 57.7421 83.6708 57.7213C85.3329 57.6798 86.4704 58.0745 87.0832 58.9056C87.3325 59.238 87.5351 59.6846 87.6909 60.2456C87.7532 60.4637 87.8208 60.7338 87.8935 61.0558L87.9714 61.4765L88.0649 61.8972C87.5559 61.9284 84.6525 62.131 79.3547 62.5049ZM86.5223 55.5555C84.3097 55.14 82.3516 55.4152 80.648 56.3813C78.9236 57.3474 77.7706 58.8432 77.1888 60.8688C76.6071 62.9256 76.6798 64.8941 77.407 66.7743C77.7602 67.6781 78.2484 68.4675 78.8717 69.1427C79.5157 69.8387 80.2636 70.3581 81.1154 70.7009C81.9257 71.0333 82.819 71.2151 83.7955 71.2463C84.585 71.267 85.4108 71.1943 86.273 71.0281C87.2598 70.8411 88.1064 70.5918 88.8128 70.2802L89.4517 70.7477L89.7945 70.1867C89.0465 69.2103 88.5012 68.3169 88.1584 67.5067C88.1584 67.4236 87.9402 67.4132 87.5039 67.4755L87.5819 68.0676C87.3325 68.213 87.0157 68.3585 86.6314 68.5039C86.2886 68.6285 85.9458 68.7324 85.603 68.8155C85.1875 68.909 84.7771 68.961 84.372 68.9713C83.3644 69.0129 82.4762 68.7792 81.7075 68.2702C80.7519 67.6469 80.0247 66.6185 79.5261 65.185L89.6231 64.5306C89.7165 64.5306 89.81 64.489 89.9035 64.4059C89.9866 64.3332 90.0542 64.2293 90.1061 64.0943C90.158 63.9384 90.184 63.7411 90.184 63.5022C90.184 63.4502 90.1944 63.2477 90.2152 62.8945C90.2152 62.7283 90.2204 62.5828 90.2307 62.4582C90.2307 62.2712 90.2307 62.0998 90.2307 61.944C90.2307 61.0091 90.1528 60.1781 89.997 59.4509C89.5296 57.1968 88.3713 55.8983 86.5223 55.5555Z" fill="#0062D9"/>
<path d="M110.409 62.5517C110.409 63.4762 110.378 64.167 110.316 64.624C110.222 65.32 110.04 65.9017 109.77 66.3692C109.407 66.9613 109.033 67.3612 108.648 67.569C108.295 67.756 107.797 67.8495 107.152 67.8495C106.467 67.8495 105.844 67.7248 105.283 67.4755C104.628 67.1846 104.13 66.7484 103.787 66.1666C103.392 65.5018 103.122 64.9928 102.977 64.6396C102.748 64.0579 102.634 63.445 102.634 62.801C102.634 61.8038 102.681 61.0091 102.774 60.417C102.888 59.5756 103.112 58.9159 103.444 58.4381C103.787 57.9395 104.337 57.5396 105.096 57.2383C105.761 56.9682 106.405 56.8332 107.028 56.8332C107.734 56.8332 108.3 56.9682 108.726 57.2383C109.183 57.5292 109.594 58.033 109.957 58.7497C110.165 59.1652 110.3 59.7625 110.362 60.5416C110.383 60.8325 110.399 61.1753 110.409 61.57C110.409 61.7051 110.409 61.8713 110.409 62.0686V62.3179V62.5517ZM111.78 56.4904C111.219 55.8048 110.419 55.301 109.381 54.979C108.539 54.7193 107.594 54.5894 106.545 54.5894C104.561 54.5894 103.008 55.1919 101.886 56.3969C100.598 57.7785 99.9537 59.9236 99.9537 62.8321C99.9537 63.7151 100.084 64.5461 100.343 65.3252C100.53 65.9069 100.857 66.6237 101.325 67.4755C101.948 68.6389 102.836 69.5634 103.989 70.249C105.132 70.945 106.29 71.2515 107.464 71.1684C108.441 71.0956 109.266 70.7996 109.942 70.2802C110.627 69.7504 111.282 68.8934 111.905 67.7092C112.268 67.0132 112.549 66.177 112.746 65.2006C112.944 64.2657 113.042 63.3204 113.042 62.3647C113.042 60.6403 113.006 59.5392 112.933 59.0614C112.777 58.0745 112.393 57.2175 111.78 56.4904Z" fill="#0062D9"/>
<path d="M115.645 55.0413C115.613 56.4956 115.587 57.6175 115.567 58.4069C115.567 58.4589 115.676 58.4589 115.894 58.4069L116.018 57.9862C116.621 57.9031 117.244 57.8408 117.888 57.7992C118.449 57.7681 118.911 57.7681 119.275 57.7992C119.732 57.8408 120.018 57.9291 120.132 58.0641C120.371 58.3654 120.506 60.5209 120.537 64.5306C120.548 66.5458 120.537 68.5247 120.506 70.4672L120.007 70.7165L120.132 71.1839L124.027 71.2463C124.038 71.1528 124.043 71.0489 124.043 70.9346C124.053 70.7165 124.022 70.5711 123.95 70.4984C123.877 70.436 123.685 70.436 123.373 70.4984C123.3 68.4104 123.243 66.3173 123.202 64.2189C123.17 62.3803 123.155 60.9312 123.155 59.8716C123.165 58.542 123.207 57.8564 123.28 57.8148C123.654 57.6071 124.329 57.498 125.305 57.4876C126.053 57.4772 126.936 57.5396 127.954 57.6746L128.125 58.1109L128.655 58.1732V55.088L128.172 55.1659V55.4152C126.791 55.3841 125.258 55.3581 123.576 55.3373C122.111 55.3269 120.812 55.3218 119.68 55.3218C118.257 55.3321 117.14 55.3581 116.33 55.3997C116.278 55.4101 116.226 55.3529 116.174 55.2283L116.143 55.1659L116.128 55.088C116.107 55.0465 116.091 55.0205 116.081 55.0101C116.018 54.9374 115.873 54.9478 115.645 55.0413Z" fill="#0062D9"/>
<path d="M130.432 55.836C130.515 55.8983 130.598 55.971 130.681 56.0541C130.837 56.2099 130.909 56.3553 130.899 56.4904C130.847 57.3941 130.93 60.1261 131.148 64.6864C131.263 66.9717 131.382 69.1687 131.507 71.2774C131.444 71.2774 131.382 71.2878 131.32 71.3086C131.268 71.319 131.226 71.3398 131.195 71.3709C131.164 71.4125 131.148 71.4592 131.148 71.5112C131.159 71.7397 131.205 71.8747 131.289 71.9163C133.221 71.6981 134.457 71.5839 134.997 71.5735C135.163 71.5735 135.241 71.4696 135.231 71.2619C135.22 71.1891 135.2 71.1164 135.168 71.0437C135.137 70.971 135.111 70.9294 135.091 70.9191C134.997 70.8567 134.774 70.8256 134.42 70.8256L133.984 64.6552C134.13 64.624 134.301 64.5721 134.498 64.4994C134.893 64.3436 135.22 64.1566 135.48 63.9384C136.031 63.9384 136.571 64.1254 137.101 64.4994C137.641 64.8941 138.009 65.3772 138.207 65.9485C138.228 65.99 138.248 66.0472 138.269 66.1199L138.3 66.2134L138.347 66.3069C138.399 66.4731 138.446 66.6133 138.487 66.7276C138.612 67.0808 138.737 67.3976 138.861 67.6781C139.194 68.4779 139.552 69.1427 139.936 69.6725C141.017 71.1684 142.3 71.6202 143.785 71.0281C143.847 71.0905 143.92 71.1424 144.003 71.1839C144.066 71.2151 144.123 71.2411 144.175 71.2619C144.237 71.2722 144.33 71.2515 144.455 71.1995C144.58 71.1372 144.632 71.0801 144.611 71.0281C144.528 70.8411 144.445 70.5711 144.362 70.2179C144.299 69.9374 144.237 69.6154 144.175 69.2518C144.154 69.1064 144.128 68.9558 144.097 68.7999C144.086 68.6857 144.071 68.5714 144.05 68.4571C144.05 68.4156 144.045 68.374 144.034 68.3325C144.034 68.3013 144.029 68.2754 144.019 68.2546C144.019 68.2442 144.019 68.2338 144.019 68.2234C143.811 68.265 143.686 68.3117 143.645 68.3637C143.614 68.3948 143.603 68.4831 143.614 68.6285C143.562 68.6597 143.484 68.6857 143.38 68.7065C143.297 68.7272 143.214 68.7376 143.131 68.7376C143.016 68.7376 142.907 68.7272 142.803 68.7065C142.17 68.5714 141.645 68.0312 141.23 67.086C141.136 66.8678 141.022 66.5873 140.887 66.2445L140.809 66.042L140.731 65.855C140.658 65.6992 140.601 65.5641 140.56 65.4499C140.31 64.8474 140.077 64.3695 139.859 64.0164C139.578 63.5489 139.256 63.1697 138.892 62.8789C138.487 62.5361 137.999 62.2816 137.428 62.1154C138.425 61.3675 139.095 60.739 139.438 60.23C139.729 59.8041 140.061 59.2276 140.435 58.5004C140.508 58.3134 140.622 58.1161 140.778 57.9083C140.913 57.7317 141.069 57.5863 141.245 57.472C141.474 57.3266 141.718 57.2383 141.978 57.2071L142.118 57.3785C142.191 57.3578 142.263 57.3266 142.336 57.2851C142.398 57.2435 142.45 57.2071 142.492 57.176C142.533 57.1344 142.549 57.0981 142.539 57.0669C142.518 56.9942 142.466 56.8747 142.383 56.7085C142.362 56.6878 142.336 56.6514 142.305 56.5995L142.274 56.5371L142.243 56.4748C142.18 56.3709 142.128 56.2774 142.087 56.1943C141.817 55.6646 141.65 55.1607 141.588 54.6829C141.578 54.6206 141.453 54.631 141.214 54.7141L141.136 55.0724C140.793 55.1348 140.409 55.301 139.983 55.5711C139.152 56.1008 138.544 56.8643 138.16 57.8616C137.776 58.8796 136.903 59.9236 135.542 60.9935C135.044 61.3571 134.644 61.6324 134.343 61.8193C134.218 61.892 134.119 61.944 134.047 61.9751C133.984 61.9959 133.958 61.9907 133.969 61.9596C134.021 61.783 133.844 59.9495 133.439 56.4592C133.47 56.3761 133.512 56.2982 133.563 56.2255C133.678 56.0801 133.797 56.0125 133.922 56.0229C134.057 56.0333 134.098 55.9502 134.047 55.7736C134.015 55.6905 133.979 55.6022 133.937 55.5087C132.597 55.7477 131.798 55.8619 131.538 55.8515C131.278 55.8411 130.946 55.7529 130.541 55.5866L130.432 55.836Z" fill="#0062D9"/>
<path d="M154.646 60.1988C154.552 60.8429 154.214 61.3363 153.633 61.6791C153.176 61.9596 152.573 62.1414 151.825 62.2245C150.973 62.3076 150.142 62.2764 149.332 62.131C149.218 61.3519 149.135 60.5676 149.083 59.7781C149.041 59.0821 149.041 58.5264 149.083 58.1109C149.145 57.5915 149.27 57.311 149.457 57.2695C149.779 57.1864 150.215 57.1396 150.766 57.1292C151.451 57.1292 152.069 57.2071 152.62 57.363C153.316 57.5603 153.841 57.8668 154.194 58.2823C154.609 58.7809 154.76 59.4197 154.646 60.1988ZM146.387 55.4932C146.356 55.6697 146.346 55.8411 146.356 56.0074C146.377 56.1528 146.408 56.293 146.45 56.4281C146.491 56.5735 146.543 56.6929 146.605 56.7864L146.886 70.5918L146.169 70.7632L146.434 71.2151L150.096 71.2463L150.189 70.4984L149.395 70.249L149.208 64.811C150.516 64.9357 151.701 64.8682 152.76 64.6085C153.789 64.3592 154.656 63.9488 155.362 63.3775C156.048 62.8166 156.536 62.1258 156.827 61.3051C157.128 60.4741 157.196 59.5652 157.03 58.5783C156.77 56.9163 155.508 55.8619 153.243 55.4152C152.412 55.249 151.431 55.1607 150.298 55.1504C149.883 55.1504 149.42 55.1607 148.911 55.1815C148.725 55.1815 148.512 55.1867 148.273 55.1971C148.19 55.2075 148.091 55.2127 147.977 55.2127L147.836 55.2283H147.696C147.592 55.2387 147.483 55.2438 147.369 55.2438C147.296 55.2438 147.208 55.2438 147.104 55.2438C146.907 55.2438 146.777 55.2438 146.714 55.2438C146.611 55.2542 146.533 55.2802 146.481 55.3218C146.429 55.3529 146.398 55.4101 146.387 55.4932Z" fill="#0062D9"/>
<path d="M162.655 68.7688C162.26 68.6961 162.078 67.9481 162.109 66.525C162.12 65.8083 162.172 65.1019 162.265 64.4059C162.909 64.2709 163.569 64.2501 164.244 64.3436C164.836 64.4267 165.324 64.5981 165.709 64.8578C166.176 65.2006 166.457 65.6784 166.55 66.2913C166.758 67.6729 166.29 68.5143 165.148 68.8155C164.753 68.909 164.285 68.9402 163.745 68.909C163.548 68.8986 163.34 68.8779 163.122 68.8467C163.039 68.8363 162.956 68.8207 162.873 68.7999C162.81 68.7896 162.738 68.7792 162.655 68.7688ZM160.738 71.2151C161.538 71.3294 162.301 71.4021 163.029 71.4333C163.995 71.4644 164.857 71.4125 165.615 71.2774C167.63 70.9346 168.737 70.0257 168.934 68.5506C169.235 66.3276 168.799 64.6552 167.625 63.5333C166.451 62.4114 164.618 61.9076 162.125 62.0219L161.751 56.0853L162.452 55.8827L162.359 55.1659L159.008 55.4776L158.79 55.9139L159.429 56.1008L159.398 69.8439C159.419 70.3114 159.491 70.6178 159.616 70.7632C159.73 70.9087 159.839 71.0022 159.943 71.0437C160.089 71.106 160.354 71.1632 160.738 71.2151ZM170.087 55.6646L170.991 56.0385C170.928 57.5967 170.882 59.3315 170.851 61.2428C170.799 65.0551 170.851 67.8443 171.006 69.6102C171.017 69.7452 170.928 69.8335 170.741 69.8751L170.679 69.8907H170.632C170.58 69.9011 170.544 69.9114 170.523 69.9218C170.44 69.9426 170.383 69.979 170.352 70.0309C170.207 70.2802 170.186 70.6334 170.29 71.0905C170.84 71.1112 171.427 71.1476 172.05 71.1995C172.144 71.1995 172.258 71.2099 172.393 71.2307H172.549L172.705 71.2463C172.923 71.267 173.094 71.2826 173.219 71.293C173.541 71.3034 173.775 71.2826 173.92 71.2307C174.086 71.1788 174.211 71.0697 174.294 70.9035C174.356 70.7477 174.388 70.6126 174.388 70.4984C174.388 70.3945 174.362 70.3062 174.31 70.2335C174.247 70.1504 174.169 70.0984 174.076 70.0776L173.733 70.1244C173.629 68.7324 173.546 67.1119 173.484 65.2629C173.432 63.6528 173.416 62.1569 173.437 60.7754C173.448 59.0614 173.51 57.5811 173.624 56.3346C173.634 56.2515 173.692 56.1684 173.796 56.0853C173.837 56.0541 173.889 56.0229 173.951 55.9918L174.029 55.945L174.107 55.8983C174.232 55.836 174.31 55.7788 174.341 55.7269C174.393 55.6542 174.382 55.5711 174.31 55.4776C174.112 55.2179 172.746 55.1452 170.212 55.2594L170.087 55.6646Z" fill="#0062D9"/>
<path d="M176.289 55.0413C176.257 56.4956 176.231 57.6175 176.211 58.4069C176.211 58.4589 176.32 58.4589 176.538 58.4069L176.663 57.9862C177.265 57.9031 177.888 57.8408 178.532 57.7992C179.093 57.7681 179.556 57.7681 179.919 57.7992C180.376 57.8408 180.662 57.9291 180.776 58.0641C181.015 58.3654 181.15 60.5209 181.181 64.5306C181.192 66.5458 181.181 68.5247 181.15 70.4672L180.651 70.7165L180.776 71.1839L184.672 71.2463C184.682 71.1528 184.687 71.0489 184.687 70.9346C184.698 70.7165 184.666 70.5711 184.594 70.4984C184.521 70.436 184.329 70.436 184.017 70.4984C183.944 68.4104 183.887 66.3173 183.846 64.2189C183.815 62.3803 183.799 60.9312 183.799 59.8716C183.809 58.542 183.851 57.8564 183.924 57.8148C184.298 57.6071 184.973 57.498 185.949 57.4876C186.697 57.4772 187.58 57.5396 188.598 57.6746L188.77 58.1109L189.299 58.1732V55.088L188.816 55.1659V55.4152C187.435 55.3841 185.902 55.3581 184.22 55.3373C182.755 55.3269 181.457 55.3218 180.324 55.3218C178.901 55.3321 177.784 55.3581 176.974 55.3997C176.922 55.4101 176.87 55.3529 176.818 55.2283L176.787 55.1659L176.772 55.088C176.751 55.0465 176.735 55.0205 176.725 55.0101C176.663 54.9374 176.517 54.9478 176.289 55.0413Z" fill="#0062D9"/>
<path d="M194.067 56.4281C193.922 58.0486 193.823 59.7314 193.771 61.4765C193.719 63.0035 193.73 64.2657 193.802 65.2629C193.896 66.499 194.078 67.2885 194.348 67.6313C194.732 68.3896 195.371 68.7792 196.264 68.7999C197.095 68.8519 197.854 68.4831 198.539 67.6936C199.214 66.9146 199.661 66.0264 199.879 65.0292C200.035 64.2501 200.222 63.1126 200.44 61.6168C200.648 60.0794 200.778 58.4537 200.83 56.7397L200.284 56.3969V55.8204C201.074 55.9139 201.593 55.9346 201.843 55.8827C202.092 55.8411 202.648 55.8308 203.51 55.8515L203.479 56.2255L203.136 56.3969C202.98 62.4842 203.084 66.1251 203.448 67.3197C203.634 67.9637 203.946 68.2286 204.382 68.1143C204.601 68.0624 204.798 67.9481 204.975 67.7715L205.006 67.195L205.613 67.086L205.691 70.4516L205.816 71.3398L205.177 71.293C205.167 71.1891 205.125 71.0905 205.052 70.997C204.917 70.7996 204.71 70.7113 204.429 70.7321C204.066 70.7736 203.655 70.7061 203.198 70.5295C202.7 70.3425 202.362 70.114 202.185 69.8439C201.863 69.3453 201.661 68.7013 201.578 67.9118C201.401 68.2857 201.162 68.6961 200.861 69.1427C200.269 70.0153 199.651 70.597 199.007 70.8879C198.83 70.971 198.628 71.0541 198.399 71.1372C198.108 71.2411 197.812 71.3242 197.511 71.3865C196.721 71.5735 195.989 71.641 195.314 71.5891C193.382 71.4229 192.187 70.3062 191.73 68.239C191.034 65.0396 191.091 61.1961 191.901 56.7085L191.325 56.4281L191.387 55.8515C192.094 55.945 192.603 55.9554 192.914 55.8827C193.236 55.8204 193.771 55.7788 194.519 55.758L194.55 56.2878L194.067 56.4281Z" fill="#0062D9"/>
<path d="M207.468 55.6646C207.613 55.6646 207.748 55.7217 207.873 55.836C208.101 56.0541 208.122 56.7189 207.935 57.8304C207.675 59.3886 207.551 61.8453 207.561 65.2006C207.561 66.7899 207.608 68.0884 207.701 69.096C207.816 70.2594 207.977 70.9243 208.184 71.0905C208.683 71.4644 210.423 70.0413 213.404 66.8211C214.89 65.211 216.328 63.5645 217.72 61.8817C217.835 63.3256 217.944 64.7643 218.048 66.1978C218.235 69.0856 218.276 70.5295 218.172 70.5295C218.048 70.5191 217.923 70.5866 217.798 70.7321L218.032 71.4644L221.647 70.9035C221.678 70.8411 221.699 70.7736 221.709 70.7009C221.72 70.6386 221.72 70.5815 221.709 70.5295C221.709 70.4776 221.694 70.4412 221.663 70.4204C221.59 70.3581 221.382 70.3166 221.039 70.2958C220.935 68.374 220.832 66.3328 220.728 64.1722C220.645 62.2712 220.582 60.6559 220.541 59.3263C220.499 57.6642 220.494 56.4956 220.525 55.8204C219.632 55.8204 219.092 55.8671 218.905 55.9606C218.666 56.0541 218.255 56.4956 217.674 57.2851C217.455 57.5759 217.154 57.9914 216.77 58.5316C216.697 58.6251 216.609 58.7445 216.505 58.89L216.38 59.077L216.24 59.2639C216.022 59.5756 215.84 59.8353 215.695 60.043C214.718 61.4038 213.856 62.5465 213.108 63.471C212.049 64.7902 211.041 65.9017 210.085 66.8055L210.413 56.2567C210.506 56.2151 210.605 56.1788 210.709 56.1476C210.802 56.1268 210.885 56.1112 210.958 56.1008C211.041 56.1008 211.109 56.1164 211.16 56.1476C211.202 56.1788 211.244 56.1632 211.285 56.1008C211.327 56.0385 211.353 55.9606 211.363 55.8671C211.384 55.7736 211.384 55.6905 211.363 55.6178C211.342 55.5347 211.301 55.4932 211.238 55.4932C211.155 55.4932 210.548 55.436 209.415 55.3218L209.088 55.2906C208.963 55.2802 208.865 55.2698 208.792 55.2594C208.564 55.2387 208.377 55.2179 208.231 55.1971C207.868 55.1659 207.67 55.1504 207.639 55.1504L207.468 55.6646ZM212.734 52.595C212.942 52.9066 213.046 53.1819 213.046 53.4208C213.046 53.6701 213.067 53.9298 213.108 54.1999L213.077 54.8231H213.404L213.498 54.5583C214.131 54.5479 214.698 54.3765 215.196 54.0441C215.695 53.722 216.209 53.2078 216.739 52.5015L216.848 52.3456L217.237 52.5482L217.596 52.0029C217.024 51.5666 216.692 51.1926 216.598 50.881C216.515 50.5693 216.401 50.3772 216.256 50.3044L216.006 50.5226L216.131 50.7875C215.342 51.7432 214.578 52.3405 213.841 52.5794C213.56 52.6625 213.383 52.6936 213.311 52.6729C213.28 52.6625 213.254 52.6157 213.233 52.5326L213.217 52.4859L213.202 52.4391C213.191 52.408 213.176 52.3872 213.155 52.3768C213.03 52.3353 212.89 52.408 212.734 52.595Z" fill="#0062D9"/>
<path d="M227.334 68.4883C226.856 67.9066 226.212 67.8391 225.402 68.2857C224.457 68.8051 224.208 69.47 224.654 70.2802C225.132 71.1528 225.833 71.3657 226.758 70.9191C226.903 71.3553 226.82 71.7605 226.508 72.1344C226.446 72.2071 226.441 72.2799 226.493 72.3526C226.534 72.4253 226.597 72.4565 226.68 72.4461C227.407 72.311 227.848 71.7397 228.004 70.7321C228.171 69.7245 227.947 68.9765 227.334 68.4883Z" fill="#0062D9"/>
<path d="M48.5444 93.2674C49.7334 93.0807 50.8881 93.0364 52.0084 93.1347C53.0009 93.2232 53.7478 93.4344 54.2489 93.7686C54.8779 94.1813 55.1039 94.7758 54.927 95.5521C54.6518 96.8198 53.5168 97.4831 51.5219 97.5421C50.5294 97.5716 49.5615 97.4782 48.6181 97.262C48.5984 96.2695 48.5886 95.6013 48.5886 95.2573C48.5886 94.9036 48.5739 94.2402 48.5444 93.2674ZM53.5709 84.541C53.4923 84.4035 53.3694 84.3592 53.2024 84.4084C53.1139 84.428 53.0353 84.4624 52.9665 84.5115L52.8781 84.8801C52.6815 84.9489 52.2737 85.0176 51.6546 85.0864C51.1043 85.1454 50.4557 85.1945 49.7089 85.2338C48.7753 85.283 47.7189 85.3124 46.5397 85.3223C46.3726 85.3223 46.2301 85.3763 46.1122 85.4844C46.0336 85.563 45.9894 85.622 45.9795 85.6613C45.9697 85.7203 45.9697 85.8677 45.9795 86.1035C46.0188 86.6833 46.0532 87.6464 46.0827 88.9926C46.0925 89.8672 46.1122 91.1791 46.1417 92.9283C46.181 96.525 46.2203 98.6034 46.2596 99.1636C46.2694 99.2618 46.4218 99.365 46.7166 99.4731C47.0212 99.591 47.4143 99.6893 47.8958 99.7679C49.0652 99.9841 50.2641 100.043 51.4925 99.9448C53.0156 99.8269 54.2538 99.4878 55.2071 98.9277C56.3765 98.23 57.0447 97.2326 57.2118 95.9354C57.4181 94.3434 57.1086 93.1101 56.2831 92.2355C55.6247 91.5378 54.6518 91.0858 53.3645 90.8794C52.4408 90.7222 51.3893 90.7025 50.21 90.8205C50.0135 90.8401 49.8121 90.8598 49.6057 90.8794C49.4485 90.8991 49.2863 90.9236 49.1193 90.9531L48.6328 91.0268C48.4461 91.0268 48.3233 89.7985 48.2643 87.3417C48.8048 87.3909 49.419 87.4105 50.1069 87.4007C51.4826 87.3712 52.5292 87.1894 53.2466 86.8553C53.2957 86.8356 53.3596 86.8946 53.4382 87.0322L53.4824 87.1206L53.5266 87.1943C53.566 87.2434 53.6004 87.268 53.6298 87.268C53.7478 87.2975 53.9345 87.1599 54.19 86.8553C53.905 85.5385 53.6986 84.7671 53.5709 84.541Z" fill="#0062D9"/>
<path d="M61.4718 91.7196C61.5602 90.9826 61.796 90.2358 62.1793 89.4791C62.5134 88.8305 62.9261 88.3146 63.4175 87.9313C64.0268 87.4596 64.7392 87.214 65.5549 87.1943C67.1272 87.155 68.2032 87.5284 68.783 88.3146C69.0189 88.629 69.2105 89.0516 69.3579 89.5823C69.4169 89.7886 69.4807 90.0441 69.5495 90.3488L69.6232 90.7468L69.7117 91.1448C69.2301 91.1742 66.4835 91.3659 61.4718 91.7196ZM68.2524 85.1454C66.1592 84.7523 64.3068 85.0127 62.6952 85.9266C61.0639 86.8405 59.9731 88.2556 59.4228 90.1719C58.8725 92.1176 58.9413 93.9798 59.6292 95.7585C59.9633 96.6135 60.4252 97.3603 61.0148 97.9991C61.6241 98.6575 62.3316 99.1488 63.1374 99.4731C63.9039 99.7876 64.749 99.9595 65.6728 99.989C66.4196 100.009 67.2009 99.9399 68.0165 99.7827C68.9501 99.6058 69.751 99.3699 70.4192 99.0751L71.0236 99.5173L71.3479 98.9867C70.6403 98.0629 70.1244 97.2178 69.8001 96.4513C69.8001 96.3727 69.5937 96.3629 69.181 96.4218L69.2547 96.982C69.0189 97.1195 68.7191 97.2571 68.3555 97.3947C68.0313 97.5126 67.707 97.6109 67.3827 97.6895C66.9896 97.778 66.6014 97.8271 66.2182 97.8369C65.265 97.8762 64.4248 97.6551 63.6976 97.1736C62.7935 96.584 62.1056 95.6111 61.6339 94.255L71.1857 93.6359C71.2742 93.6359 71.3626 93.5966 71.451 93.518C71.5297 93.4492 71.5935 93.3509 71.6427 93.2232C71.6918 93.0758 71.7164 92.889 71.7164 92.663C71.7164 92.6139 71.7262 92.4223 71.7458 92.0881C71.7458 91.9309 71.7508 91.7933 71.7606 91.6754C71.7606 91.4985 71.7606 91.3364 71.7606 91.189C71.7606 90.3045 71.6869 89.5184 71.5395 88.8305C71.0973 86.6981 70.0016 85.4697 68.2524 85.1454Z" fill="#0062D9"/>
<path d="M77.9221 93.3411C77.7354 93.459 77.5978 93.5229 77.5094 93.5327C77.4602 93.5425 77.4357 93.5327 77.4357 93.5032C77.1998 92.7859 76.9984 92.2503 76.8313 91.8965C76.8116 91.8474 76.9689 91.8081 77.303 91.7786C78.5019 91.4248 79.4207 90.9531 80.0595 90.3635C80.6098 89.8427 80.9095 89.2825 80.9586 88.6831C80.9979 88.1426 80.826 87.6807 80.4427 87.2975C80.0595 86.9044 79.5681 86.6981 78.9687 86.6784C78.0646 86.6587 77.3472 87.0371 76.8166 87.8134C76.5414 88.1967 76.3596 88.5848 76.2712 88.9779L76.566 89.0663L76.5955 89.3464C75.4064 89.3759 74.6104 89.3022 74.2075 89.1253L74.3402 88.8452H74.6055C74.6153 88.6978 74.6448 88.5111 74.6939 88.2851C74.802 87.8331 74.9642 87.4056 75.1804 87.0027C75.485 86.4524 75.883 85.9954 76.3743 85.6318C76.9836 85.1798 77.7206 84.8899 78.5854 84.7621C79.1849 84.6737 79.7892 84.7179 80.3985 84.8948C81.0176 85.0717 81.5581 85.3567 82.0199 85.7497C82.5211 86.1821 82.87 86.6931 83.0665 87.2828C83.2827 87.9313 83.3024 88.634 83.1255 89.3906C82.9781 89.9999 82.5653 90.6583 81.8873 91.3659C81.8578 91.3953 81.8136 91.4297 81.7546 91.469L81.6957 91.5133C81.6662 91.5329 81.6465 91.5477 81.6367 91.5575C81.5482 91.6164 81.5139 91.6852 81.5335 91.7639C81.5433 91.7737 81.5482 91.7884 81.5482 91.8081V91.8228C81.5482 91.8326 81.5532 91.8376 81.563 91.8376L81.5777 91.8228H81.6072C81.617 91.8228 81.6367 91.8277 81.6662 91.8376C81.7251 91.8474 81.7988 91.867 81.8873 91.8965C82.1821 92.0046 82.4867 92.1569 82.8012 92.3535C83.5087 92.8153 84.0099 93.4099 84.3047 94.1371C84.6978 95.1001 84.6929 96.2351 84.29 97.5421C84.231 97.719 84.1278 97.9254 83.9804 98.1612C83.6758 98.6526 83.2925 99.08 82.8307 99.4436C82.1919 99.9546 81.45 100.308 80.6049 100.505C79.5337 100.741 78.325 100.726 76.9787 100.461C76.055 100.284 75.2836 99.8662 74.6645 99.2078C74.4679 98.9916 74.2812 98.7508 74.1043 98.4855C74.0748 98.4364 74.0404 98.3872 74.0011 98.3381C73.9913 98.3184 73.9766 98.2939 73.9569 98.2644L73.9422 98.2349L73.9274 98.2054C73.8685 98.117 73.8292 98.058 73.8095 98.0285L73.3526 98.058L73.2346 97.8222C74.8266 97.0164 75.7356 96.5447 75.9616 96.4071C75.9911 96.3874 76.0157 96.3924 76.0353 96.4218C76.055 96.4415 76.0697 96.471 76.0795 96.5103C76.0992 96.5594 76.1139 96.6135 76.1238 96.6724L75.9911 96.9525C76.0402 97.0802 76.1188 97.2276 76.2269 97.3947C76.335 97.5323 76.453 97.6551 76.5807 97.7632C76.7379 97.9106 76.9099 98.0236 77.0966 98.1022C77.4799 98.2693 77.8926 98.3823 78.3348 98.4413C78.836 98.5199 79.3077 98.515 79.7499 98.4265C80.2609 98.3381 80.6933 98.1514 81.0471 97.8664C81.45 97.5421 81.735 97.1048 81.902 96.5545C82.1575 95.7389 82.133 95.0559 81.8283 94.5056C81.5728 94.0535 81.1453 93.7096 80.5459 93.4737C80.0545 93.287 79.519 93.1888 78.9392 93.1789C78.4282 93.1789 78.0892 93.233 77.9221 93.3411Z" fill="#0062D9"/>
<path d="M94.682 79.8683C96.1855 79.9371 97.7775 79.942 99.4579 79.883C100.932 79.8241 102.18 79.716 103.202 79.5588C104.47 79.3524 105.349 79.0723 105.841 78.7186L105.664 78.3943L106.445 78.2026C106.573 78.6842 106.735 79.1755 106.931 79.6767C107.098 80.1189 107.261 80.4727 107.418 80.738C107.604 81.0721 107.776 81.2637 107.934 81.3129L107.329 81.9467L107.108 81.6666C106.253 81.9811 105.246 82.2808 104.086 82.5658C101.748 83.1456 99.7871 83.3667 98.205 83.2291C98.3425 84.6442 98.3818 87.4302 98.3229 91.587C98.2639 95.9207 98.1214 98.2546 97.8954 98.5887L98.8093 98.9572L98.7061 99.6205L93.5765 99.8564L93.3848 99.2078L94.2103 98.795C94.849 92.0341 95.0112 86.8946 94.6967 83.3765C94.6869 83.2979 94.6722 83.1653 94.6525 82.9785L94.6378 82.7427L94.6083 82.4774C94.5592 82.0253 94.5297 81.647 94.5198 81.3424C94.4609 80.4088 94.5149 79.9174 94.682 79.8683Z" fill="#0062D9"/>
<path d="M121.362 85.4992C121.244 86.3443 120.807 86.9978 120.05 87.4596C119.451 87.8232 118.66 88.0542 117.677 88.1524C116.567 88.2704 115.476 88.2311 114.405 88.0345C114.257 87.0223 114.149 85.9954 114.08 84.9538C114.031 84.0497 114.036 83.3225 114.095 82.7722C114.164 82.0941 114.321 81.7256 114.567 81.6666C114.989 81.5487 115.564 81.4898 116.291 81.4898C117.186 81.4898 117.996 81.5929 118.724 81.7993C120.768 82.3693 121.647 83.6026 121.362 85.4992ZM110.543 79.3524C110.425 79.9911 110.523 80.5562 110.838 81.0475L111.206 99.1193L110.263 99.3404L110.602 99.9448L115.407 99.989L115.525 99.0014L114.478 98.6771L114.243 91.5427C117.692 91.867 120.38 91.243 122.306 89.6707C123.21 88.9337 123.853 88.0296 124.237 86.9585C124.62 85.8677 124.708 84.6786 124.502 83.3913C124.158 81.2097 122.497 79.8241 119.52 79.2345C118.439 79.0183 117.161 78.9053 115.687 78.8954C115.137 78.8954 114.528 78.9053 113.859 78.9249C113.604 78.9347 113.324 78.9446 113.019 78.9544L112.636 78.9839L112.253 78.9986C112.125 79.0084 111.987 79.0134 111.84 79.0134H111.486C111.231 79.0134 111.064 79.0183 110.985 79.0281C110.729 79.0478 110.582 79.1559 110.543 79.3524ZM109.128 81.0623L109.157 81.0181C109.177 80.9788 109.206 80.9542 109.246 80.9444C109.275 80.9345 109.309 80.9296 109.349 80.9296V80.9444H109.363L109.378 80.9591C109.437 80.9886 109.481 81.0377 109.511 81.1065L109.54 81.1949L109.555 81.2539C109.565 81.303 109.575 81.3473 109.585 81.3866L109.599 81.475L109.629 81.5782H109.614C109.811 83.1505 109.919 85.0619 109.938 87.3122C109.948 87.7053 109.953 88.1623 109.953 88.6831V89.3464V89.995C109.963 91.0465 109.973 91.8621 109.983 92.4419C109.992 92.7859 110.002 93.1593 110.012 93.5622L110.027 94.0781L110.042 94.5645C110.061 95.3605 110.076 95.9108 110.086 96.2155C110.105 96.7068 110.125 97.0704 110.145 97.3063C110.155 97.434 110.164 97.5274 110.174 97.5863L110.189 97.6306C110.268 97.6797 110.322 97.7485 110.351 97.8369C110.371 97.9254 110.371 98.0089 110.351 98.0875V98.1022C110.292 98.3086 110.204 98.4314 110.086 98.4708C109.997 98.4904 109.919 98.4904 109.85 98.4708C109.565 98.402 109.452 98.23 109.511 97.9548L109.526 97.8959C109.545 97.8369 109.575 97.7829 109.614 97.7337C109.644 97.6944 109.678 97.66 109.717 97.6306C109.717 97.5618 109.717 97.4782 109.717 97.38C109.707 97.2719 109.703 97.149 109.703 97.0115C109.693 96.6773 109.683 96.353 109.673 96.0386C109.644 95.1443 109.624 94.5252 109.614 94.1813C109.604 93.6703 109.594 92.7023 109.585 91.2774C109.575 90.5699 109.565 90.0048 109.555 89.5823C109.555 88.9337 109.545 88.3441 109.526 87.8134C109.467 84.9145 109.339 82.8164 109.142 81.5192H109.201H109.142C109.142 81.5192 109.142 81.4996 109.142 81.4603L109.128 81.4161V81.3571C109.108 81.249 109.108 81.1606 109.128 81.0918V81.0623Z" fill="#0062D9"/>
<path d="M126.625 79.6325C126.821 79.6325 126.993 79.7062 127.14 79.8536C127.268 79.9715 127.347 80.2073 127.376 80.5611C127.406 81.0131 127.357 81.6322 127.229 82.4184C126.895 84.4231 126.733 87.5923 126.742 91.926C126.752 96.584 127.023 99.1144 127.553 99.5173C127.907 99.7925 128.762 99.3404 130.118 98.1612C131.209 97.2178 132.594 95.8371 134.275 94.0191C136.201 91.9457 138.058 89.823 139.847 87.6513C140.456 95.0805 140.648 98.795 140.422 98.795C140.264 98.795 140.107 98.8835 139.95 99.0604L140.259 100.019L144.917 99.2962C145.035 98.9621 145.04 98.7459 144.932 98.6476C144.834 98.5789 144.569 98.5297 144.136 98.5002C143.566 88.5947 143.34 82.3742 143.458 79.8388C142.318 79.8388 141.621 79.8929 141.365 80.001C141.07 80.1385 140.544 80.7085 139.788 81.7109C139.503 82.0941 139.11 82.6346 138.609 83.3323L138.284 83.7893L137.945 84.261C137.66 84.6639 137.424 85.0029 137.238 85.2781C135.98 87.0273 134.869 88.5013 133.906 89.7002C132.54 91.4003 131.238 92.835 130 94.0044L130.428 80.399C130.889 80.1828 131.209 80.1336 131.386 80.2516C131.445 80.2909 131.499 80.2712 131.548 80.1926C131.597 80.1238 131.631 80.0255 131.651 79.8978C131.671 79.77 131.671 79.6619 131.651 79.5735C131.622 79.4654 131.572 79.4114 131.504 79.4114C131.386 79.4114 130.595 79.3377 129.13 79.1902L128.718 79.146L128.334 79.1165C128.04 79.0871 127.799 79.0625 127.612 79.0428C127.15 78.9937 126.895 78.9691 126.846 78.9691L126.625 79.6325ZM144.564 82.6985L144.593 82.6543C144.603 82.6248 144.628 82.6002 144.667 82.5806C144.696 82.5707 144.726 82.5658 144.755 82.5658H144.77L144.8 82.5806C144.849 82.61 144.883 82.6543 144.903 82.7132L144.932 82.8017L144.947 82.8606C144.967 82.8999 144.976 82.9392 144.976 82.9785H144.991L145.006 83.0522C145.183 87.1894 145.33 90.2259 145.448 92.1618C145.468 92.4861 145.487 92.835 145.507 93.2084L145.537 93.6949L145.566 94.1665C145.605 94.9134 145.635 95.4342 145.654 95.729C145.684 96.1909 145.713 96.5299 145.743 96.7461C145.753 96.864 145.767 96.9574 145.787 97.0262V97.0557C145.866 97.095 145.92 97.1589 145.949 97.2473C145.969 97.3259 145.974 97.4045 145.964 97.4831L145.949 97.4979C145.91 97.6944 145.836 97.8173 145.728 97.8664C145.65 97.8959 145.576 97.9008 145.507 97.8811C145.252 97.832 145.143 97.6748 145.183 97.4094L145.198 97.3652C145.217 97.3063 145.247 97.2522 145.286 97.2031C145.315 97.1638 145.345 97.1245 145.374 97.0852C145.374 97.0557 145.369 97.0262 145.36 96.9967V96.864C145.35 96.7461 145.34 96.6282 145.33 96.5103C145.311 96.186 145.291 95.8814 145.271 95.5964C145.222 94.7414 145.188 94.1518 145.168 93.8275C145.139 93.2182 145.099 92.3633 145.05 91.2627L145.021 90.5551L144.976 89.8476L144.917 88.3883C144.809 86.0003 144.701 84.2511 144.593 83.1407C144.593 83.1309 144.593 83.1112 144.593 83.0817L144.564 82.9785C144.554 82.8803 144.554 82.7967 144.564 82.728V82.6985Z" fill="#0062D9"/>
<path d="M154.027 82.8901L154.012 82.8606C153.993 82.8213 153.963 82.7967 153.924 82.7869C153.904 82.7771 153.875 82.7771 153.835 82.7869H153.821L153.806 82.8017C153.757 82.841 153.722 82.8901 153.703 82.9491L153.688 83.0228L153.673 83.0817C153.673 83.121 153.668 83.1603 153.659 83.1996L153.644 83.2881L153.629 83.3765H153.644C153.388 87.5333 153.29 90.5797 153.349 92.5156C153.359 92.8203 153.369 93.1593 153.378 93.5327L153.393 94.0044L153.408 94.4466C153.437 95.1738 153.452 95.6799 153.452 95.9649C153.472 96.4071 153.477 96.7363 153.467 96.9525C153.467 97.0704 153.462 97.1589 153.452 97.2178V97.2473C153.383 97.2964 153.339 97.3652 153.32 97.4537C153.3 97.5323 153.3 97.606 153.32 97.6748V97.6895H153.334C153.393 97.8762 153.477 97.9892 153.585 98.0285C153.654 98.0482 153.722 98.0482 153.791 98.0285C154.027 97.9499 154.115 97.7878 154.057 97.5421L154.027 97.4979C154.007 97.4389 153.978 97.3849 153.939 97.3357C153.909 97.3063 153.88 97.2768 153.85 97.2473C153.85 97.208 153.85 97.1343 153.85 97.0262L153.835 96.864V96.6872C153.826 96.353 153.816 96.0533 153.806 95.788C153.786 94.9625 153.772 94.3926 153.762 94.0781C153.634 90.5109 153.727 86.9241 154.042 83.3176H153.998H154.042C154.042 83.3176 154.042 83.2979 154.042 83.2586L154.057 83.1554C154.057 83.067 154.052 82.9884 154.042 82.9196L154.027 82.8901ZM148.735 89.5675C148.804 87.2287 148.897 84.9734 149.015 82.8017C149.123 80.7773 149.207 79.6865 149.266 79.5293C149.364 79.2246 151.551 79.033 155.825 78.9544C157.162 78.9249 158.744 78.9102 160.572 78.9102H163.476C164.34 78.9004 164.812 82.1334 164.891 88.6094C164.93 91.8523 164.886 95.0952 164.758 98.3381C165.023 98.3184 165.22 98.2791 165.348 98.2202C165.495 98.1514 165.579 98.2398 165.598 98.4855C165.628 98.7213 165.584 98.913 165.466 99.0604C165.338 99.2274 164.576 99.4338 163.181 99.6795C161.785 99.935 160.95 100.014 160.675 99.9153C160.577 99.8858 160.562 99.5861 160.631 99.0162C160.916 98.9867 161.107 98.8737 161.206 98.6771C161.265 98.5494 161.265 96.2548 161.206 91.7933C161.206 91.1153 161.196 90.2358 161.176 89.1548L161.161 88.5062V87.8871C161.152 87.4056 161.147 87.0027 161.147 86.6784C161.117 84.9194 161.102 83.7844 161.102 83.2734C161.102 83.2242 161.083 83.0326 161.044 82.6985C160.994 82.3545 160.965 82.1629 160.955 82.1236C160.906 82.0057 160.641 81.9664 160.159 82.0057L159.879 82.0352L159.614 82.0646C159.407 82.0843 159.28 82.0941 159.23 82.0941C159.122 82.1039 158.945 82.1089 158.7 82.1089H158.346H157.963C157.265 82.1089 156.671 82.1138 156.179 82.1236C154.607 82.1433 153.595 82.1776 153.143 82.2268C153.035 82.2366 152.931 82.2513 152.833 82.271C152.725 82.2907 152.656 82.3152 152.627 82.3447C152.578 82.4037 152.533 82.556 152.494 82.8017L152.184 98.6034C152.597 98.6722 152.843 98.7656 152.922 98.8835C153.01 99.0211 152.966 99.2618 152.789 99.6058L147.63 99.7827C147.522 99.3699 147.507 99.1095 147.585 99.0014C147.664 98.9031 147.905 98.854 148.308 98.854C148.504 95.7585 148.647 92.663 148.735 89.5675Z" fill="#0062D9"/>
<path d="M173.543 82.8901L173.529 82.8606C173.509 82.8213 173.48 82.7967 173.44 82.7869C173.421 82.7771 173.391 82.7771 173.352 82.7869H173.337L173.322 82.8017C173.273 82.841 173.239 82.8901 173.219 82.9491L173.204 83.0228L173.19 83.0817C173.19 83.121 173.185 83.1603 173.175 83.1996L173.16 83.2881L173.145 83.3765H173.16C172.905 87.5333 172.806 90.5797 172.865 92.5156C172.875 92.8203 172.885 93.1593 172.895 93.5327L172.91 94.0044L172.924 94.4466C172.954 95.1738 172.969 95.6799 172.969 95.9649C172.988 96.4071 172.993 96.7363 172.983 96.9525C172.983 97.0704 172.978 97.1589 172.969 97.2178V97.2473C172.9 97.2964 172.856 97.3652 172.836 97.4537C172.816 97.5323 172.816 97.606 172.836 97.6748V97.6895H172.851C172.91 97.8762 172.993 97.9892 173.101 98.0285C173.17 98.0482 173.239 98.0482 173.308 98.0285C173.543 97.9499 173.632 97.7878 173.573 97.5421L173.543 97.4979C173.524 97.4389 173.494 97.3849 173.455 97.3357C173.425 97.3063 173.396 97.2768 173.367 97.2473C173.367 97.208 173.367 97.1343 173.367 97.0262L173.352 96.864V96.6872C173.342 96.353 173.332 96.0533 173.322 95.788C173.303 94.9625 173.288 94.3926 173.278 94.0781C173.15 90.5109 173.244 86.9241 173.558 83.3176H173.514H173.558C173.558 83.3176 173.558 83.2979 173.558 83.2586L173.573 83.1554C173.573 83.067 173.568 82.9884 173.558 82.9196L173.543 82.8901ZM168.252 89.5675C168.32 87.2287 168.414 84.9734 168.532 82.8017C168.64 80.7773 168.723 79.6865 168.782 79.5293C168.881 79.2246 171.067 79.033 175.342 78.9544C176.678 78.9249 178.26 78.9102 180.088 78.9102H182.992C183.857 78.9004 184.329 82.1334 184.407 88.6094C184.446 91.8523 184.402 95.0952 184.274 98.3381C184.54 98.3184 184.736 98.2791 184.864 98.2202C185.011 98.1514 185.095 98.2398 185.115 98.4855C185.144 98.7213 185.1 98.913 184.982 99.0604C184.854 99.2274 184.093 99.4338 182.697 99.6795C181.302 99.935 180.467 100.014 180.191 99.9153C180.093 99.8858 180.078 99.5861 180.147 99.0162C180.432 98.9867 180.624 98.8737 180.722 98.6771C180.781 98.5494 180.781 96.2548 180.722 91.7933C180.722 91.1153 180.712 90.2358 180.693 89.1548L180.678 88.5062V87.8871C180.668 87.4056 180.663 87.0027 180.663 86.6784C180.634 84.9194 180.619 83.7844 180.619 83.2734C180.619 83.2242 180.599 83.0326 180.56 82.6985C180.511 82.3545 180.481 82.1629 180.471 82.1236C180.422 82.0057 180.157 81.9664 179.675 82.0057L179.395 82.0352L179.13 82.0646C178.924 82.0843 178.796 82.0941 178.747 82.0941C178.639 82.1039 178.462 82.1089 178.216 82.1089H177.862H177.479C176.781 82.1089 176.187 82.1138 175.696 82.1236C174.123 82.1433 173.111 82.1776 172.659 82.2268C172.551 82.2366 172.448 82.2513 172.349 82.271C172.241 82.2907 172.173 82.3152 172.143 82.3447C172.094 82.4037 172.05 82.556 172.01 82.8017L171.701 98.6034C172.114 98.6722 172.359 98.7656 172.438 98.8835C172.526 99.0211 172.482 99.2618 172.305 99.6058L167.146 99.7827C167.038 99.3699 167.023 99.1095 167.102 99.0014C167.18 98.9031 167.421 98.854 167.824 98.854C168.021 95.7585 168.163 92.663 168.252 89.5675Z" fill="#0062D9"/>
<path d="M194.961 88.0787C195.128 87.5088 195.399 86.4671 195.772 84.9538C196.136 83.4994 196.347 82.6395 196.406 82.3742C196.406 82.3349 196.529 82.2956 196.774 82.2563C197.05 82.217 197.393 82.1924 197.806 82.1826C198.258 82.1727 198.892 84.0742 199.708 87.8871L194.961 88.0787ZM207.785 97.8074C207.265 97.9155 206.911 97.8173 206.724 97.5126C206.439 97.0311 205.928 95.788 205.191 93.7833C204.906 93.0168 204.552 92.0439 204.13 90.8647C203.982 90.4421 203.796 89.9164 203.57 89.2875L202.995 87.6807C201.029 82.1678 199.899 79.3229 199.605 79.146C199.231 78.9397 198.337 78.9053 196.922 79.0428C196.401 79.092 195.914 79.1559 195.462 79.2345C195.03 79.3033 194.794 79.3622 194.755 79.4114C194.509 79.6472 194.254 80.1779 193.988 81.0033C193.939 81.1606 193.88 81.3473 193.812 81.5635L193.635 82.1678C193.477 82.6886 193.345 83.1063 193.237 83.4208C192.5 85.5729 190.839 90.5158 188.254 98.2497C188.156 98.3086 187.945 98.3921 187.621 98.5002C187.434 98.569 187.527 98.8933 187.901 99.4731C188.038 99.4141 188.343 99.3699 188.815 99.3404C189.915 99.2618 191.257 99.4535 192.839 99.9153L193.075 99.1636C193.084 98.967 192.848 98.7508 192.367 98.515C192.711 96.5299 193.065 94.9576 193.428 93.798C193.497 93.6015 193.561 93.4197 193.62 93.2526C193.669 93.1249 193.718 93.0119 193.767 92.9136C193.787 92.8645 193.807 92.8252 193.826 92.7957C193.836 92.7662 193.846 92.7416 193.856 92.722L193.87 92.6925L193.885 92.6778C193.895 92.6679 193.9 92.663 193.9 92.663C194.106 91.926 194.318 91.4346 194.534 91.189L196.568 91.1153C197.649 91.0956 198.45 91.076 198.971 91.0563C199.02 91.0465 199.084 91.0367 199.162 91.0268L199.354 90.9826C199.521 90.9531 199.668 90.958 199.796 90.9973C200.16 91.1251 200.528 91.6164 200.902 92.4714C202.189 95.449 203.034 97.4782 203.437 98.5592C203.358 98.7656 203.201 98.9523 202.965 99.1193C202.818 99.2176 202.941 99.5075 203.334 99.989L207.977 98.5445C207.987 98.0236 207.923 97.778 207.785 97.8074ZM192.986 79.883L192.971 79.8536C192.961 79.8143 192.942 79.7848 192.912 79.7651C192.883 79.7553 192.848 79.7455 192.809 79.7356H192.794L192.78 79.7504C192.711 79.7602 192.662 79.7897 192.632 79.8388L192.588 79.8978L192.559 79.9568L192.529 80.001L192.5 80.0452L192.47 80.1042L192.411 80.1779L192.426 80.1926C191.876 81.4504 191.094 83.5829 190.082 86.59C189.728 87.6513 189.345 88.8059 188.932 90.054C188.785 90.5158 188.633 90.9973 188.475 91.4985C188.417 91.6852 188.353 91.8818 188.284 92.0881C188.245 92.2257 188.191 92.3928 188.122 92.5893C188.043 92.8546 187.955 93.1445 187.856 93.459L187.724 93.857L187.606 94.2402C187.419 94.8495 187.286 95.277 187.208 95.5227C187.08 95.9059 186.982 96.186 186.913 96.3629C186.884 96.4513 186.854 96.5201 186.825 96.5692L186.81 96.5987C186.721 96.6282 186.653 96.6724 186.603 96.7314C186.564 96.7903 186.544 96.8542 186.544 96.923L186.559 96.9378C186.559 97.1146 186.613 97.2326 186.721 97.2915C186.79 97.321 186.864 97.3407 186.942 97.3505C187.218 97.3505 187.355 97.2375 187.355 97.0115V96.9672C187.345 96.9083 187.331 96.8542 187.311 96.8051C187.291 96.7756 187.267 96.7412 187.237 96.7019C187.247 96.6528 187.267 96.5938 187.296 96.525C187.326 96.4267 187.355 96.3285 187.385 96.2302C187.473 95.9747 187.557 95.7241 187.635 95.4784C187.851 94.7807 188.004 94.2943 188.092 94.0191C188.318 93.2821 188.623 92.324 189.006 91.1448C189.468 89.7297 189.915 88.3735 190.348 87.0764C191.537 83.5387 192.377 81.2637 192.868 80.2516L192.824 80.2221L192.868 80.2368L192.883 80.2221L192.898 80.1926L192.927 80.1189C192.966 80.0403 192.986 79.9715 192.986 79.9125V79.883Z" fill="#0062D9"/>
<path d="M83.4328 116.856C83.4328 119.175 83.1626 120.782 82.6221 121.676C82.1701 122.432 81.6984 122.939 81.207 123.194C80.7648 123.43 80.1359 123.548 79.3202 123.548C77.3057 123.548 75.8808 122.84 75.0455 121.425C74.5443 120.58 74.2053 119.936 74.0284 119.494C73.7336 118.757 73.5862 117.981 73.5862 117.165C73.5862 114.453 73.9301 112.605 74.618 111.623C75.0504 111.004 75.7432 110.498 76.6964 110.105C77.5415 109.761 78.3621 109.589 79.1581 109.589C80.0425 109.589 80.7599 109.761 81.3102 110.105C81.89 110.478 82.4108 111.122 82.8727 112.036C83.138 112.556 83.3051 113.308 83.3739 114.291C83.4033 114.664 83.423 115.097 83.4328 115.588V116.237V116.856ZM85.2459 109.146C84.5187 108.291 83.5016 107.658 82.1946 107.245C81.1333 106.921 79.9393 106.758 78.6127 106.758C76.0872 106.758 74.1169 107.515 72.7018 109.028C71.0607 110.778 70.2401 113.5 70.2401 117.195C70.2401 118.315 70.4023 119.371 70.7265 120.364C70.9722 121.091 71.3899 121.995 71.9795 123.076C72.7755 124.55 73.9007 125.729 75.355 126.614C76.8094 127.488 78.2786 127.872 79.7624 127.764C81.0006 127.675 82.0472 127.302 82.9022 126.643C83.7768 125.975 84.6022 124.889 85.3786 123.386C86.3416 121.538 86.8231 119.278 86.8231 116.605C86.8231 114.423 86.7789 113.028 86.6905 112.419C86.5037 111.171 86.0222 110.08 85.2459 109.146Z" fill="#0062D9"/>
<path d="M101.799 113.392C101.681 114.237 101.244 114.89 100.488 115.352C99.8881 115.716 99.097 115.947 98.1143 116.045C97.0039 116.163 95.9131 116.124 94.8419 115.927C94.6945 114.915 94.5864 113.888 94.5176 112.846C94.4685 111.942 94.4734 111.215 94.5324 110.665C94.6012 109.987 94.7584 109.618 95.0041 109.559C95.4266 109.441 96.0015 109.382 96.7287 109.382C97.623 109.382 98.4337 109.485 99.1609 109.692C101.205 110.262 102.084 111.495 101.799 113.392ZM90.9799 107.245C90.862 107.884 90.9603 108.449 91.2747 108.94L91.6432 127.012L90.6999 127.233L91.0389 127.837L95.8443 127.881L95.9622 126.894L94.9156 126.57L94.6798 119.435C98.129 119.76 100.817 119.135 102.743 117.563C103.647 116.826 104.291 115.922 104.674 114.851C105.057 113.76 105.146 112.571 104.939 111.284C104.595 109.102 102.934 107.717 99.9569 107.127C98.8759 106.911 97.5984 106.798 96.1243 106.788C95.574 106.788 94.9648 106.798 94.2965 106.817C94.041 106.827 93.761 106.837 93.4563 106.847L93.0731 106.876L92.6898 106.891C92.5621 106.901 92.4245 106.906 92.2771 106.906H91.9233C91.6678 106.906 91.5008 106.911 91.4221 106.921C91.1666 106.94 91.0192 107.048 90.9799 107.245ZM89.5648 108.955L89.5943 108.911C89.614 108.871 89.6435 108.847 89.6828 108.837C89.7122 108.827 89.7466 108.822 89.786 108.822V108.837H89.8007L89.8154 108.852C89.8744 108.881 89.9186 108.93 89.9481 108.999L89.9776 109.087L89.9923 109.146C90.0021 109.196 90.012 109.24 90.0218 109.279L90.0365 109.367L90.066 109.471H90.0513C90.2478 111.043 90.3559 112.954 90.3756 115.205C90.3854 115.598 90.3903 116.055 90.3903 116.576V117.239V117.887C90.4001 118.939 90.41 119.755 90.4198 120.334C90.4296 120.678 90.4394 121.052 90.4493 121.455L90.464 121.971L90.4788 122.457C90.4984 123.253 90.5131 123.803 90.523 124.108C90.5426 124.599 90.5623 124.963 90.5819 125.199C90.5918 125.326 90.6016 125.42 90.6114 125.479L90.6262 125.523C90.7048 125.572 90.7588 125.641 90.7883 125.729C90.808 125.818 90.808 125.901 90.7883 125.98V125.995C90.7293 126.201 90.6409 126.324 90.523 126.363C90.4345 126.383 90.3559 126.383 90.2871 126.363C90.0021 126.294 89.8891 126.122 89.9481 125.847L89.9628 125.788C89.9825 125.729 90.012 125.675 90.0513 125.626C90.0808 125.587 90.1152 125.552 90.1545 125.523C90.1545 125.454 90.1545 125.371 90.1545 125.272C90.1446 125.164 90.1397 125.041 90.1397 124.904C90.1299 124.57 90.1201 124.246 90.1102 123.931C90.0808 123.037 90.0611 122.418 90.0513 122.074C90.0415 121.563 90.0316 120.595 90.0218 119.17C90.012 118.462 90.0021 117.897 89.9923 117.475C89.9923 116.826 89.9825 116.237 89.9628 115.706C89.9039 112.807 89.7761 110.709 89.5796 109.412C89.5796 109.412 89.5796 109.392 89.5796 109.353L89.5648 109.309V109.25C89.5452 109.141 89.5452 109.053 89.5648 108.984V108.955Z" fill="#0062D9"/>
<path d="M112 117.843C112.344 117.892 113.154 117.824 114.432 117.637L114.815 117.593L115.228 117.534C115.533 117.485 115.808 117.45 116.053 117.431C116.682 117.362 117.238 117.322 117.719 117.313C120.461 117.313 121.753 118.492 121.596 120.85C121.537 121.774 121.021 122.541 120.048 123.15C119.282 123.631 118.24 124.005 116.923 124.27C115.429 124.565 113.941 124.688 112.457 124.639L112 117.843ZM111.572 109.662C111.7 109.692 112.167 109.672 112.973 109.603C113.395 109.564 113.744 109.539 114.019 109.53C114.432 109.51 114.8 109.51 115.125 109.53C116.982 109.638 117.758 110.389 117.454 111.785C117.208 112.905 116.216 113.731 114.476 114.261C113.602 114.527 112.756 114.679 111.941 114.718L111.572 109.662ZM119.09 114.423C119.817 113.873 120.284 113.116 120.49 112.153C120.707 111.131 120.544 110.188 120.004 109.323C119.365 108.331 118.304 107.623 116.82 107.201C115.071 106.719 112.845 106.675 110.143 107.068C109.926 107.097 109.715 107.23 109.509 107.466C109.381 107.613 109.302 107.726 109.273 107.805C109.234 107.923 109.209 108.188 109.199 108.601C109.16 109.613 109.13 110.655 109.111 111.726C109.091 113.2 109.086 114.654 109.096 116.089C109.125 119.961 109.273 123.391 109.538 126.378C109.587 126.909 110.236 127.312 111.484 127.587C112.732 127.872 114.167 127.94 115.788 127.793C117.606 127.626 119.213 127.213 120.608 126.555C122.249 125.798 123.414 124.781 124.102 123.504C124.613 122.55 124.893 121.558 124.942 120.526C124.991 119.494 124.809 118.541 124.397 117.666C123.954 116.743 123.301 116.006 122.436 115.455C121.502 114.856 120.387 114.512 119.09 114.423ZM108.108 107.628L108.079 107.584C108.049 107.554 108.015 107.535 107.976 107.525C107.936 107.515 107.897 107.52 107.858 107.54H107.843L107.814 107.554C107.755 107.594 107.71 107.653 107.681 107.731L107.666 107.805L107.651 107.879L107.637 107.952V108.011H107.622V108.1L107.592 108.203H107.607C107.519 109.903 107.514 112.266 107.592 115.293C107.622 116.394 107.666 117.593 107.725 118.89C107.745 119.371 107.764 119.892 107.784 120.452C107.794 120.659 107.804 120.885 107.814 121.13L107.828 121.455L107.843 121.749C107.863 122.093 107.882 122.462 107.902 122.855L107.931 123.386L107.961 123.872C108 124.658 108.025 125.209 108.035 125.523C108.064 126.024 108.074 126.388 108.064 126.614C108.064 126.742 108.059 126.84 108.049 126.909V126.938C107.961 126.997 107.902 127.076 107.872 127.174C107.853 127.262 107.858 127.346 107.887 127.425H107.902V127.439C107.981 127.636 108.089 127.749 108.226 127.778C108.325 127.788 108.413 127.778 108.492 127.749H108.506C108.634 127.7 108.727 127.621 108.786 127.513C108.855 127.405 108.87 127.297 108.831 127.189L108.816 127.13C108.786 127.081 108.742 127.031 108.683 126.982C108.654 126.943 108.614 126.909 108.565 126.879C108.565 126.81 108.56 126.732 108.551 126.643C108.551 126.525 108.546 126.403 108.536 126.275C108.526 125.931 108.511 125.607 108.492 125.302C108.452 124.398 108.423 123.774 108.403 123.43C108.354 122.486 108.305 121.386 108.256 120.128C108.187 118.595 108.133 117.136 108.094 115.75C107.995 112.036 108.005 109.485 108.123 108.1L108.079 108.085H108.123C108.123 108.085 108.128 108.065 108.138 108.026V107.982V107.923C108.148 107.815 108.143 107.726 108.123 107.658L108.108 107.628Z" fill="#0062D9"/>
<path d="M127.433 107.525C127.63 107.525 127.802 107.599 127.949 107.746C128.077 107.864 128.155 108.1 128.185 108.454C128.214 108.906 128.165 109.525 128.037 110.311C127.703 112.316 127.541 115.485 127.551 119.818C127.561 124.476 127.831 127.007 128.362 127.41C128.715 127.685 129.57 127.233 130.927 126.054C132.017 125.11 133.403 123.73 135.083 121.912C137.009 119.838 138.867 117.715 140.655 115.544C141.265 122.973 141.456 126.688 141.23 126.688C141.073 126.688 140.916 126.776 140.758 126.953L141.068 127.911L145.726 127.189C145.844 126.855 145.849 126.638 145.741 126.54C145.642 126.471 145.377 126.422 144.945 126.393C144.375 116.487 144.149 110.267 144.267 107.731C143.127 107.731 142.429 107.785 142.174 107.893C141.879 108.031 141.353 108.601 140.596 109.603C140.311 109.987 139.918 110.527 139.417 111.225L139.093 111.682L138.754 112.153C138.469 112.556 138.233 112.895 138.046 113.171C136.788 114.92 135.678 116.394 134.715 117.593C133.349 119.293 132.047 120.727 130.809 121.897L131.236 108.291C131.698 108.075 132.017 108.026 132.194 108.144C132.253 108.183 132.307 108.164 132.356 108.085C132.406 108.016 132.44 107.918 132.46 107.79C132.479 107.663 132.479 107.554 132.46 107.466C132.43 107.358 132.381 107.304 132.312 107.304C132.194 107.304 131.403 107.23 129.939 107.083L129.526 107.038L129.143 107.009C128.848 106.98 128.607 106.955 128.421 106.935C127.959 106.886 127.703 106.862 127.654 106.862L127.433 107.525ZM145.372 110.591L145.402 110.547C145.411 110.517 145.436 110.493 145.475 110.473C145.505 110.463 145.534 110.458 145.564 110.458H145.579L145.608 110.473C145.657 110.502 145.692 110.547 145.711 110.606L145.741 110.694L145.755 110.753C145.775 110.792 145.785 110.832 145.785 110.871H145.8L145.814 110.945C145.991 115.082 146.139 118.118 146.257 120.054C146.276 120.379 146.296 120.727 146.316 121.101L146.345 121.587L146.375 122.059C146.414 122.806 146.443 123.327 146.463 123.621C146.492 124.083 146.522 124.422 146.551 124.639C146.561 124.757 146.576 124.85 146.596 124.919V124.948C146.674 124.987 146.728 125.051 146.758 125.14C146.777 125.218 146.782 125.297 146.773 125.376L146.758 125.39C146.718 125.587 146.645 125.71 146.537 125.759C146.458 125.788 146.384 125.793 146.316 125.774C146.06 125.724 145.952 125.567 145.991 125.302L146.006 125.258C146.026 125.199 146.055 125.145 146.094 125.096C146.124 125.056 146.153 125.017 146.183 124.978C146.183 124.948 146.178 124.919 146.168 124.889V124.757C146.158 124.639 146.149 124.521 146.139 124.403C146.119 124.078 146.099 123.774 146.08 123.489C146.031 122.634 145.996 122.044 145.977 121.72C145.947 121.111 145.908 120.256 145.859 119.155L145.829 118.448L145.785 117.74L145.726 116.281C145.618 113.893 145.51 112.144 145.402 111.033C145.402 111.023 145.402 111.004 145.402 110.974L145.372 110.871C145.362 110.773 145.362 110.689 145.372 110.62V110.591Z" fill="#0062D9"/>
<path d="M153.199 121.691C153.376 115.686 153.357 111.166 153.14 108.129C153.111 107.785 153.209 107.623 153.435 107.643L153.701 107.687C153.799 107.697 153.863 107.677 153.892 107.628C154.049 107.363 154.069 107.137 153.951 106.95C151.072 106.862 149.647 106.925 149.676 107.142C149.716 107.417 149.789 107.564 149.898 107.584L150.266 107.54C150.708 112.886 150.748 117.494 150.384 121.366C150.354 121.671 151.293 121.779 153.199 121.691ZM153.185 126.157C153.185 127.307 152.688 127.881 151.696 127.881C151.204 127.881 150.762 127.714 150.369 127.38C149.956 127.027 149.75 126.619 149.75 126.157C149.75 125.164 150.32 124.668 151.46 124.668C152.61 124.668 153.185 125.164 153.185 126.157Z" fill="#0062D9"/>
<path d="M210.533 45.9708C205.877 45.6874 201.093 45.5457 196.308 45.3332C184.671 44.6955 172.774 44.4121 161.007 44.4121C147.688 44.4121 134.24 44.483 120.921 44.6955C109.93 44.8372 99.0677 45.1915 88.0764 45.5457C82.5161 45.6874 77.0851 45.9708 71.6541 46.3251C67.7748 46.6085 63.7662 46.9627 60.0162 47.4587C58.2059 47.6004 56.5249 48.0255 54.8438 48.3797C54.4559 48.5214 54.1973 48.6631 54.4559 49.0174C54.7145 49.0174 54.9731 49.1591 55.3611 49.0883C56.5249 49.0174 57.818 49.0174 58.9817 48.8757C69.5851 47.9546 80.3178 47.4587 91.1798 47.317C100.878 47.317 110.706 47.1753 120.533 47.1044C133.852 47.0336 147.3 46.821 160.619 47.0336C168.248 47.1044 175.878 47.2461 183.636 47.3878C188.421 47.4587 193.076 47.5295 197.86 47.6004C203.938 47.6712 209.886 47.6712 215.964 47.6712C217.645 47.6712 219.196 47.6004 221.395 47.2461C220.619 47.0336 220.231 46.9627 219.843 46.8919C216.61 46.5376 213.636 46.1834 210.533 45.9708Z" fill="#0062D9"/>
<path d="M29.8656 94.7502C27.818 94.8143 25.8522 94.9423 23.8046 95.0064C23.395 95.0064 23.0674 95.0704 22.7398 95.1985C22.3303 95.3266 22.0845 95.5828 22.1665 95.903C22.3303 96.8636 22.9036 97.9524 24.7055 98.0805C25.1151 98.0805 25.4427 98.0805 25.8522 98.0164C27.6542 97.7603 29.538 97.5041 31.3399 97.2479C32.9781 96.9917 34.5343 96.4794 36.0086 95.7749C36.2543 95.6468 36.5 95.4547 36.9096 95.1985C36.5 95.0704 36.2543 95.0064 36.0086 94.9423C33.9609 94.7502 31.9133 94.6862 29.8656 94.7502Z" fill="#0062D9"/>
<path d="M26.9113 86.825C28.0521 87.0206 29.2744 87.2163 30.4152 87.2815C31.3931 87.3467 32.3709 87.3467 33.3488 87.3467C33.9192 87.3467 34.4081 87.2815 34.897 86.8902C34.8155 86.7597 34.7341 86.5641 34.5711 86.4989C33.5932 85.7162 32.5339 84.9987 31.3116 84.6074C29.1929 83.9552 27.0743 83.303 24.8741 82.716C24.4667 82.6508 23.9778 82.6508 23.5703 82.6508C22.9999 82.716 22.7554 82.9769 22.8369 83.4986C23.2444 85.1944 24.8741 86.6293 26.9113 86.825Z" fill="#0062D9"/>
<path d="M32.0585 91.8131C32.9506 91.7518 33.8427 91.6904 34.8969 91.3224C34.5726 91.1997 34.3293 91.077 34.086 91.0156C30.6799 90.0955 27.1927 89.5434 23.6244 89.3594C23.1378 89.3594 22.6513 89.3594 22.1647 89.4207C21.5159 89.5434 21.2726 89.9115 21.6781 90.3409C22.6513 91.3837 24.111 91.8744 25.6519 91.9358C27.8415 92.1198 29.95 92.0585 32.0585 91.8131Z" fill="#0062D9"/>
<path d="M170.848 112.722C171.36 112.655 171.873 112.521 172.299 112.319C173.666 111.783 175.032 111.313 176.398 110.709C177.081 110.441 177.678 110.173 178.276 109.837C178.532 109.703 178.703 109.435 178.959 109.166C178.532 109.032 178.276 108.831 177.935 108.831C177.081 108.831 176.142 108.764 175.288 108.898C172.812 109.368 170.336 109.971 167.945 110.508C167.262 110.642 166.664 110.843 166.323 111.38C166.323 111.514 166.323 111.581 166.408 111.648C167.689 112.722 169.14 113.191 170.848 112.722Z" fill="#0062D9"/>
<path d="M178.009 116.68C176.899 116.546 175.789 116.479 174.593 116.411C173.056 116.411 171.52 116.411 169.983 116.411C168.787 116.411 167.592 116.411 166.482 116.814C166.226 116.881 165.97 117.082 165.714 117.284C166.482 118.089 167.507 118.357 168.617 118.491C170.324 118.692 172.117 118.827 173.91 118.625C175.447 118.424 176.899 118.223 178.435 117.954C178.948 117.887 179.46 117.887 179.802 117.418C179.375 116.881 178.606 116.814 178.009 116.68Z" fill="#0062D9"/>
<path d="M177.337 124.73C174.177 123.791 170.848 123.455 167.518 123.187C167.091 123.187 166.578 123.187 166.066 123.59C166.408 123.858 166.578 124.059 166.92 124.193C167.774 124.529 168.628 124.864 169.567 125.065C172.47 125.669 175.373 125.669 178.361 125.736C178.532 125.736 178.703 125.602 178.959 125.535C178.532 124.998 177.849 124.931 177.337 124.73Z" fill="#0062D9"/>
<path d="M48.6387 115.686C48.5181 116.989 48.4363 118.342 48.3933 119.746C48.3502 120.974 48.3588 121.989 48.4191 122.791C48.4966 123.786 48.6473 124.42 48.8711 124.696C49.1897 125.306 49.7193 125.619 50.4597 125.636C51.1486 125.678 51.7771 125.381 52.3454 124.746C52.9051 124.12 53.2753 123.405 53.4561 122.603C53.5853 121.977 53.7403 121.062 53.9211 119.859C54.0933 118.622 54.2009 117.315 54.244 115.936L53.7919 115.661V115.197C54.4463 115.272 54.8768 115.289 55.0835 115.247C55.2901 115.214 55.7508 115.205 56.4654 115.222L56.4396 115.523L56.1554 115.661C56.0263 120.556 56.1124 123.485 56.4137 124.446C56.5687 124.964 56.827 125.177 57.1887 125.085C57.3695 125.043 57.5331 124.951 57.6795 124.809L57.7053 124.345L58.209 124.258L58.2736 126.964L58.3769 127.679L57.8474 127.641C57.8387 127.558 57.8043 127.478 57.744 127.403C57.6321 127.244 57.4599 127.173 57.2274 127.19C56.9261 127.223 56.586 127.169 56.2071 127.027C55.7938 126.877 55.514 126.693 55.3676 126.476C55.1007 126.075 54.9328 125.557 54.8639 124.922C54.7175 125.223 54.5195 125.553 54.2698 125.912C53.779 126.614 53.2667 127.081 52.7329 127.315C52.5865 127.382 52.4186 127.449 52.2292 127.516C51.9881 127.599 51.7427 127.666 51.493 127.716C50.8386 127.867 50.2316 127.921 49.6719 127.879C48.0704 127.746 47.0802 126.848 46.7014 125.185C46.1245 122.612 46.1718 119.52 46.8434 115.911L46.3656 115.686L46.4172 115.222C47.0027 115.297 47.4246 115.305 47.6829 115.247C47.9498 115.197 48.3933 115.163 49.0132 115.147L49.039 115.573L48.6387 115.686Z" fill="#0062D9"/>
<path fill-rule="evenodd" clip-rule="evenodd" d="M88.0906 103.187C88.1279 103.309 88.0349 103.511 87.9264 103.649C88.1206 104.001 88.3406 104.408 88.1023 104.882C88.0836 104.918 88.0551 104.951 88.0313 104.99C88.0084 105.058 88.0639 105.125 88.0669 105.217C88.0801 105.587 87.7801 106.085 87.4678 106.215C87.1943 106.781 86.7694 107.065 86.3019 107.066C86.1567 107.193 85.9254 107.393 85.7089 107.443C85.6137 107.466 85.4687 107.473 85.3786 107.424C85.2227 107.341 85.1962 107.161 85.2055 107.001C85.0259 107.123 84.7705 107.017 84.693 106.822C84.6239 106.647 84.6534 106.371 84.6844 106.206C84.6383 106.105 84.5694 106.003 84.5654 105.884C84.5569 105.636 84.6844 105.334 84.831 105.098C84.8641 105.045 84.931 104.996 84.9563 104.933C84.9817 104.871 84.9498 104.797 84.9587 104.726C85.0071 104.339 85.3593 103.907 85.6504 103.827C85.6974 103.711 85.773 103.603 85.862 103.525C86.2206 103.214 86.7569 103.182 87.2064 103.223C87.2971 103.03 87.4021 102.92 87.5485 102.881C87.6949 102.843 88.0272 102.981 88.0906 103.187ZM87.5422 103.075C87.4839 103.105 87.4089 103.207 87.3871 103.273C87.5375 103.338 87.6489 103.443 87.7526 103.543C87.8079 103.47 87.885 103.346 87.8915 103.263C87.8494 103.169 87.6436 103.061 87.5422 103.075ZM86.8973 103.865C86.7555 104.064 86.6316 104.467 86.8218 104.546C86.8936 104.576 87.0561 104.492 87.1621 104.411C87.4284 104.209 87.7981 103.68 87.404 103.49C87.2549 103.558 87.0498 103.65 86.8973 103.865ZM86.2755 103.505C86.0955 103.574 85.9012 103.698 85.815 103.93C85.8718 104.026 86.0013 104.057 86.0844 104.063C86.1668 104.068 86.2753 104.037 86.3642 104.018C86.4657 103.996 86.5633 103.965 86.6407 103.935C86.7708 103.67 86.9432 103.548 87.1135 103.419C87.1186 103.422 87.1284 103.418 87.1186 103.41C86.8581 103.404 86.5298 103.408 86.2755 103.505ZM87.4313 104.41C87.4751 104.522 87.4646 104.69 87.5628 104.798C87.6304 104.873 87.757 104.94 87.843 104.888C87.9253 104.839 87.9844 104.651 87.9989 104.532C88.0293 104.276 87.9046 104.017 87.7724 103.823C87.7433 104.024 87.5757 104.291 87.4313 104.41ZM86.3238 104.228C86.2477 104.244 86.1639 104.239 86.1066 104.27C86.0016 104.326 85.8578 104.544 85.7959 104.665C85.742 104.77 85.704 104.919 85.702 105.042C85.7002 105.149 85.7205 105.324 85.797 105.363C85.8501 105.389 85.9772 105.341 86.0483 105.303C86.2981 105.168 86.4751 104.9 86.6734 104.686C86.5479 104.539 86.5404 104.356 86.566 104.163C86.4916 104.192 86.4139 104.21 86.3238 104.228ZM87.0768 104.683C87.0006 104.719 86.9044 104.719 86.8535 104.759C86.8171 104.787 86.7501 104.876 86.694 104.942C86.5648 105.093 86.5187 105.174 86.4938 105.335C86.4723 105.476 86.478 105.756 86.627 105.81C86.6858 105.832 86.7915 105.768 86.8604 105.716C87.0995 105.54 87.262 105.255 87.4329 104.949C87.3317 104.834 87.2959 104.699 87.2632 104.564C87.2008 104.603 87.1483 104.65 87.0768 104.683ZM87.3401 106.024C87.4807 106.074 87.7146 105.771 87.8121 105.532C87.88 105.367 87.8748 105.176 87.8409 105.096C87.7595 105.097 87.6755 105.09 87.5832 105.055C87.457 105.296 87.3262 105.523 87.1741 105.678C87.2103 105.76 87.2211 105.982 87.3401 106.024ZM85.6389 104.03C85.3997 104.175 85.0603 104.608 85.1836 104.898C85.3199 104.914 85.4362 104.86 85.5468 104.788C85.5947 104.575 85.7562 104.381 85.8828 104.211C85.7671 104.187 85.7019 104.095 85.6389 104.03ZM85.6199 105.488C85.5198 105.613 85.4056 105.808 85.3741 105.967C85.3502 106.085 85.336 106.431 85.4724 106.484C85.5297 106.507 85.645 106.441 85.7153 106.395C85.959 106.234 86.1461 105.985 86.3408 105.754C86.3051 105.633 86.2989 105.502 86.3055 105.368C86.1041 105.49 85.8906 105.685 85.6199 105.488ZM87.0099 105.846C87.0082 105.844 87.0022 105.843 87.0005 105.841C86.8516 105.954 86.7069 106.078 86.4881 105.956C86.3862 106.106 86.2076 106.384 86.1843 106.587C86.1775 106.644 86.1874 106.766 86.2156 106.8C86.3127 106.915 86.5265 106.853 86.6229 106.812C86.8527 106.713 87.0825 106.5 87.2472 106.219C87.0976 106.148 87.0871 105.966 87.0099 105.846ZM85.4953 105.041C85.3686 105.086 85.2418 105.129 85.0862 105.077C84.8898 105.374 84.6135 105.929 84.9145 106.073C85.0051 106.117 85.0835 106.079 85.1652 106.038C85.1878 105.803 85.3419 105.453 85.5396 105.298C85.5122 105.216 85.5171 105.125 85.4953 105.041ZM85.6575 106.682C85.5755 106.714 85.5216 106.694 85.4832 106.735C85.416 106.805 85.3821 106.991 85.3856 107.073C85.3879 107.119 85.4118 107.219 85.4709 107.254C85.5204 107.283 85.6235 107.27 85.6772 107.255C85.8279 107.214 85.9896 107.074 86.1183 106.979C86.0676 106.952 86.072 106.908 86.0257 106.88C85.9863 106.752 85.9809 106.613 86.0202 106.461C86.0223 106.453 86.0183 106.446 86.0066 106.442C85.9181 106.539 85.7658 106.641 85.6575 106.682ZM85.1437 106.258C85.0641 106.301 84.9774 106.321 84.8783 106.299C84.8547 106.422 84.8359 106.655 84.8967 106.761C85.0135 106.967 85.1964 106.769 85.3083 106.653C85.1808 106.543 85.1913 106.392 85.1437 106.258Z" fill="#0062D9"/>
<path fill-rule="evenodd" clip-rule="evenodd" d="M221.07 1.77177C221.126 1.95509 220.985 2.26078 220.821 2.47044C221.115 3.00267 221.448 3.61784 221.087 4.33399C221.059 4.38911 221.016 4.43929 220.98 4.49779C220.945 4.60145 221.029 4.70255 221.034 4.84104C221.054 5.40077 220.6 6.1545 220.128 6.35004C219.714 7.2057 219.071 7.63509 218.365 7.6376C218.145 7.8288 217.795 8.13169 217.468 8.20815C217.324 8.24215 217.105 8.25228 216.968 8.17883C216.732 8.05313 216.692 7.78157 216.706 7.53835C216.435 7.72291 216.049 7.56275 215.931 7.26787C215.827 7.00435 215.872 6.58577 215.918 6.33659C215.849 6.18357 215.745 6.02954 215.739 5.8504C215.726 5.47495 215.919 5.0186 216.14 4.66113C216.19 4.58108 216.291 4.50644 216.33 4.41161C216.368 4.31769 216.32 4.20529 216.333 4.0986C216.406 3.51273 216.939 2.85966 217.379 2.73927C217.45 2.56359 217.565 2.3997 217.699 2.28272C218.242 1.8122 219.053 1.7634 219.732 1.82506C219.869 1.5343 220.028 1.36717 220.25 1.309C220.471 1.25084 220.974 1.46035 221.07 1.77177ZM220.24 1.60197C220.152 1.64692 220.039 1.80212 220.006 1.90132C220.233 2.0003 220.402 2.15771 220.558 2.31027C220.642 2.19872 220.759 2.01233 220.768 1.8869C220.705 1.74397 220.394 1.58149 220.24 1.60197ZM219.265 2.79615C219.051 3.09788 218.863 3.70629 219.151 3.82628C219.259 3.87186 219.505 3.74519 219.665 3.62294C220.068 3.31649 220.627 2.51711 220.031 2.2293C219.806 2.3325 219.496 2.47173 219.265 2.79615ZM218.325 2.25226C218.052 2.35619 217.759 2.54401 217.628 2.89422C217.714 3.0399 217.91 3.08743 218.036 3.09561C218.16 3.10316 218.324 3.05712 218.459 3.02796C218.612 2.99454 218.76 2.94803 218.877 2.90182C219.074 2.50182 219.334 2.31754 219.592 2.12233C219.6 2.12647 219.614 2.11999 219.6 2.10812C219.206 2.09902 218.709 2.10498 218.325 2.25226ZM220.073 3.6201C220.139 3.78956 220.123 4.04476 220.271 4.20821C220.374 4.32067 220.565 4.42161 220.695 4.3442C220.82 4.26993 220.909 3.98561 220.931 3.80548C220.977 3.41822 220.788 3.02682 220.588 2.73313C220.544 3.03744 220.291 3.44119 220.073 3.6201ZM218.398 3.3459C218.283 3.37021 218.156 3.3623 218.069 3.4088C217.91 3.49439 217.693 3.8228 217.599 4.00624C217.518 4.16568 217.46 4.39079 217.457 4.57718C217.455 4.73862 217.485 5.0036 217.601 5.06142C217.681 5.10166 217.874 5.02877 217.981 4.97056C218.359 4.76684 218.627 4.36229 218.926 4.03779C218.737 3.81538 218.725 3.53864 218.764 3.24681C218.651 3.29165 218.534 3.3177 218.398 3.3459ZM219.536 4.03425C219.421 4.08833 219.276 4.08859 219.199 4.148C219.144 4.19091 219.042 4.3251 218.957 4.42459C218.762 4.65409 218.692 4.77628 218.655 5.01971C218.622 5.23231 218.631 5.65665 218.856 5.73843C218.945 5.7711 219.105 5.6738 219.209 5.59624C219.571 5.32949 219.816 4.89934 220.075 4.43557C219.922 4.26207 219.868 4.05776 219.818 3.85299C219.724 3.9122 219.645 3.98327 219.536 4.03425ZM219.935 6.06167C220.147 6.13736 220.501 5.67908 220.648 5.31825C220.751 5.06859 220.743 4.77992 220.692 4.65751C220.569 4.65993 220.442 4.6487 220.302 4.5956C220.111 4.96059 219.914 5.3034 219.684 5.53791C219.738 5.66222 219.755 5.99746 219.935 6.06167ZM217.362 3.04646C217 3.26569 216.487 3.92083 216.673 4.35848C216.88 4.38255 217.055 4.30076 217.223 4.19225C217.295 3.87043 217.539 3.57709 217.731 3.3195C217.556 3.28402 217.457 3.14368 217.362 3.04646ZM217.333 5.2503C217.182 5.43928 217.009 5.73532 216.961 5.97484C216.925 6.15335 216.904 6.67698 217.11 6.75759C217.197 6.79141 217.371 6.69273 217.478 6.62245C217.846 6.37936 218.129 6.00292 218.423 5.6533C218.369 5.46975 218.36 5.27277 218.37 5.06944C218.065 5.25454 217.743 5.5483 217.333 5.2503ZM219.435 5.79233C219.433 5.78865 219.424 5.78838 219.421 5.7847C219.196 5.95528 218.977 6.14379 218.646 5.95848C218.492 6.18497 218.222 6.60659 218.187 6.91326C218.176 6.99868 218.191 7.18409 218.234 7.23467C218.381 7.40859 218.704 7.31547 218.85 7.25265C219.198 7.10369 219.545 6.78118 219.794 6.35594C219.568 6.24917 219.552 5.9738 219.435 5.79233ZM217.145 4.57527C216.953 4.64247 216.761 4.70875 216.526 4.62999C216.229 5.0791 215.811 5.91719 216.266 6.13591C216.403 6.20218 216.522 6.14458 216.646 6.08202C216.68 5.7281 216.913 5.19862 217.212 4.96313C217.17 4.8398 217.178 4.70166 217.145 4.57527ZM217.39 7.05692C217.266 7.10473 217.185 7.07528 217.126 7.13645C217.025 7.24296 216.974 7.52419 216.979 7.64856C216.982 7.71694 217.018 7.86869 217.108 7.92153C217.183 7.96492 217.339 7.94511 217.42 7.92312C217.648 7.8618 217.892 7.64968 218.087 7.50618C218.01 7.46484 218.017 7.39886 217.947 7.35651C217.887 7.16227 217.879 6.953 217.939 6.72284C217.942 6.71 217.936 6.69989 217.918 6.69336C217.784 6.83984 217.554 6.99463 217.39 7.05692ZM216.613 6.41613C216.493 6.48119 216.362 6.51135 216.212 6.4772C216.176 6.66354 216.148 7.01522 216.24 7.17641C216.416 7.48806 216.693 7.18844 216.862 7.01292C216.669 6.84697 216.685 6.61855 216.613 6.41613Z" fill="#0062D9"/>
<path fill-rule="evenodd" clip-rule="evenodd" d="M126.709 62.0073C126.796 62.0836 126.822 62.2858 126.804 62.4462C127.126 62.6261 127.493 62.8363 127.537 63.32C127.54 63.3574 127.534 63.397 127.534 63.4386C127.549 63.503 127.625 63.5282 127.671 63.598C127.861 63.8796 127.868 64.4125 127.688 64.6641C127.749 65.2366 127.555 65.663 127.192 65.8902C127.14 66.0588 127.057 66.3265 126.913 66.4705C126.85 66.534 126.74 66.6094 126.647 66.6151C126.485 66.6259 126.378 66.4989 126.307 66.3693C126.227 66.5511 125.977 66.5922 125.822 66.4779C125.684 66.3757 125.573 66.1461 125.518 66.0029C125.433 65.9464 125.33 65.9005 125.27 65.8103C125.143 65.6212 125.096 65.3247 125.096 65.0699C125.096 65.0127 125.124 64.942 125.114 64.881C125.104 64.8203 125.043 64.7779 125.016 64.7188C124.866 64.3939 124.931 63.8876 125.119 63.6849C125.1 63.5718 125.106 63.4509 125.138 63.3477C125.266 62.9322 125.668 62.6478 126.038 62.4622C126.015 62.2688 126.044 62.132 126.139 62.0313C126.234 61.9306 126.56 61.8777 126.709 62.0073ZM126.228 62.1851C126.197 62.2364 126.188 62.3525 126.203 62.4141C126.351 62.3923 126.488 62.4194 126.618 62.4478C126.625 62.3636 126.626 62.2305 126.591 62.1628C126.512 62.1096 126.3 62.1255 126.228 62.1851ZM126.108 63.1113C126.094 63.3351 126.192 63.7081 126.378 63.6778C126.449 63.6666 126.535 63.5229 126.578 63.4087C126.687 63.1223 126.719 62.5322 126.321 62.5747C126.238 62.6998 126.123 62.8707 126.108 63.1113ZM125.45 63.1321C125.343 63.2726 125.252 63.4632 125.297 63.685C125.388 63.7326 125.504 63.6944 125.571 63.6584C125.637 63.6225 125.707 63.5463 125.767 63.4883C125.835 63.4221 125.896 63.3509 125.942 63.2897C125.915 63.021 125.99 62.8428 126.06 62.6601C126.066 62.6598 126.071 62.6517 126.06 62.6503C125.854 62.7716 125.601 62.9333 125.45 63.1321ZM126.787 63.2771C126.875 63.3431 126.948 63.4795 127.077 63.5161C127.165 63.5413 127.296 63.532 127.338 63.4506C127.379 63.3726 127.334 63.1977 127.287 63.0981C127.187 62.8841 126.965 62.743 126.768 62.6558C126.843 62.8264 126.842 63.1152 126.787 63.2771ZM125.837 63.6715C125.786 63.7208 125.718 63.7572 125.688 63.8088C125.634 63.9036 125.627 64.1422 125.637 64.2665C125.647 64.3745 125.689 64.5087 125.747 64.6056C125.797 64.6895 125.898 64.8161 125.976 64.8088C126.03 64.8039 126.106 64.7049 126.142 64.6406C126.271 64.415 126.28 64.1213 126.33 63.8584C126.162 63.8047 126.067 63.6659 125.994 63.5034C125.95 63.5624 125.898 63.6134 125.837 63.6715ZM126.643 63.6616C126.601 63.7262 126.526 63.7729 126.506 63.828C126.491 63.8677 126.482 63.9692 126.47 64.0475C126.443 64.228 126.446 64.3132 126.505 64.4505C126.556 64.5703 126.696 64.7859 126.838 64.7559C126.894 64.7443 126.945 64.6431 126.974 64.5699C127.075 64.317 127.064 64.0172 127.049 63.6959C126.914 63.6555 126.821 63.5677 126.73 63.4782C126.701 63.5388 126.682 63.6008 126.643 63.6616ZM127.496 64.5774C127.63 64.5484 127.665 64.1995 127.626 63.9667C127.599 63.8054 127.502 63.6594 127.437 63.6128C127.374 63.6534 127.305 63.6883 127.217 63.7056C127.235 63.9544 127.243 64.194 127.2 64.3882C127.267 64.4347 127.383 64.6019 127.496 64.5774ZM125.209 63.8485C125.092 64.077 125.038 64.5781 125.274 64.7437C125.387 64.6902 125.452 64.5919 125.503 64.4826C125.438 64.2939 125.469 64.0648 125.486 63.8711C125.384 63.9088 125.289 63.8681 125.209 63.8485ZM125.898 64.9917C125.881 65.1373 125.887 65.3448 125.939 65.4833C125.977 65.5867 126.134 65.863 126.265 65.8385C126.321 65.8282 126.379 65.7217 126.411 65.6515C126.523 65.4086 126.548 65.1245 126.588 64.8505C126.502 64.7733 126.434 64.6749 126.374 64.5671C126.276 64.7598 126.204 65.0141 125.898 64.9917ZM127.153 64.5985C127.151 64.5974 127.146 64.6002 127.143 64.5991C127.082 64.7589 127.03 64.9258 126.8 64.9363C126.793 65.1021 126.789 65.4053 126.869 65.5744C126.891 65.6216 126.958 65.7123 126.996 65.7246C127.127 65.7672 127.264 65.6159 127.319 65.537C127.45 65.3492 127.526 65.0722 127.518 64.7738C127.367 64.7912 127.271 64.6546 127.153 64.5985ZM125.586 64.7046C125.508 64.8004 125.431 64.8958 125.285 64.9305C125.275 65.2566 125.328 65.8213 125.633 65.7884C125.724 65.7787 125.767 65.7111 125.81 65.6394C125.715 65.4464 125.665 65.0995 125.744 64.8827C125.683 64.8325 125.643 64.759 125.586 64.7046ZM126.505 65.903C126.457 65.9673 126.405 65.9782 126.395 66.0282C126.377 66.1155 126.44 66.2766 126.483 66.3389C126.506 66.373 126.573 66.4395 126.636 66.4381C126.689 66.4365 126.763 66.3765 126.797 66.3392C126.895 66.2348 126.953 66.0475 127.007 65.9114C126.955 65.9146 126.937 65.8786 126.887 65.8792C126.795 65.7983 126.724 65.6932 126.681 65.5558C126.678 65.5482 126.672 65.5449 126.661 65.5472C126.639 65.6653 126.569 65.8186 126.505 65.903ZM125.9 65.8217C125.859 65.8937 125.802 65.9512 125.714 65.9815C125.755 66.0888 125.853 66.2788 125.951 66.3324C126.142 66.4362 126.188 66.1937 126.219 66.0492C126.067 66.0255 126.002 65.9029 125.9 65.8217Z" fill="#0062D9"/>
</svg>
