<svg width="43" height="33" viewBox="0 0 43 33" fill="none" xmlns="http://www.w3.org/2000/svg">
<path d="M37.3682 10.985C35.323 5.34373 30.2334 1.23302 24.2883 0.237031C24.1895 0.200853 24.0841 0.172617 23.964 0.166219C23.8894 0.162138 23.8101 0.1628 23.735 0.159491C23.0002 0.0611051 22.2547 0 21.4998 0C14.3973 0 7.99046 4.47778 5.63063 10.9852C2.61904 11.0197 0.179688 13.4801 0.179688 16.5001C0.179688 19.52 2.61904 21.9808 5.63052 22.0151C7.98957 28.5225 14.3972 33.0009 21.4997 33.0009C28.6014 33.0009 35.0087 28.5225 37.3682 22.0151C40.3797 21.9808 42.8198 19.52 42.8198 16.5001C42.8198 13.4801 40.3803 11.0202 37.3682 10.985ZM37.3043 19.9518C37.1551 19.9518 36.9926 19.9377 36.7924 19.9095L35.9147 19.7799L35.656 20.6294C33.8051 26.6982 27.9834 30.9375 21.4996 30.9375C15.0154 30.9375 9.19304 26.6982 7.34245 20.6281L7.0838 19.7792L6.20572 19.9082C6.00619 19.9377 5.84438 19.9512 5.6946 19.9512C3.79085 19.9512 2.24282 18.4024 2.24282 16.4987C2.24282 14.595 3.79096 13.047 5.6946 13.047C5.84604 13.047 6.00829 13.0607 6.2034 13.0896L7.08325 13.2209L7.34256 12.3703C8.59776 8.2556 11.6795 4.98747 15.5535 3.30575C14.6891 5.22119 15.8631 7.583 17.8209 8.50443C20.2606 9.6522 24.2076 9.80231 25.8719 7.30516C26.6228 6.17979 25.9566 4.75705 25.0485 3.98673C23.7778 2.90912 21.9322 2.75569 20.4234 3.35472C19.202 3.83959 19.7337 5.83544 20.9721 5.3445C21.8691 4.98879 22.6857 4.96199 23.5468 5.43439C24.7274 6.0835 23.6395 6.82492 22.814 7.06206C21.2753 7.50425 19.0052 7.14335 17.8023 6.06375C16.2837 4.70069 18.2398 3.15387 19.4501 2.7301C20.7624 2.27071 22.2048 2.1689 23.5937 2.21898C29.2065 3.01754 34.0079 6.96335 35.6574 12.3702L35.9166 13.2208L36.7966 13.0895C36.9926 13.0606 37.1539 13.0468 37.3056 13.0468C39.209 13.0468 40.7579 14.595 40.7579 16.4986C40.7579 18.4024 39.2076 19.9518 37.3043 19.9518Z" fill="white"/>
<path d="M17.1429 15.7837C15.369 15.7837 15.369 18.5343 17.1429 18.5343C18.9167 18.5343 18.9172 15.7837 17.1429 15.7837Z" fill="white"/>
<path d="M25.8557 15.6113C24.082 15.6113 24.082 18.3619 25.8557 18.3619C27.6295 18.3619 27.6301 15.6113 25.8557 15.6113Z" fill="white"/>
<path d="M21.4996 26.2876C23.7362 26.2876 25.5566 24.4682 25.5566 22.2318C25.5566 21.6609 25.0952 21.2001 24.525 21.2001C23.9548 21.2001 23.4934 21.6609 23.4934 22.2318C23.4934 23.3305 22.5995 24.2245 21.4996 24.2245C20.4009 24.2245 19.5062 23.3305 19.5062 22.2318C19.5062 21.6609 19.0455 21.2001 18.4746 21.2001C17.905 21.2001 17.4429 21.6609 17.4429 22.2318C17.443 24.4682 19.2631 26.2876 21.4996 26.2876Z" fill="white"/>
</svg>
