<svg width="147" height="116" viewBox="0 0 147 116" fill="none" xmlns="http://www.w3.org/2000/svg">
<path d="M31.7563 102.46C28.8611 105.265 25.9707 107.302 22.7783 109.188C21.1054 110.287 22.4524 112.882 24.2739 112.243C28.3722 110.805 31.7228 107.84 34.1674 104.426C35.2363 103.028 33.1272 101.212 31.7563 102.46Z" fill="white"/>
<path d="M23.6998 72.9606C16.7699 73.5203 10.0284 73.765 3.21377 74.8213C0.942242 75.1734 1.44558 78.4675 3.52877 78.4304C10.2703 78.1857 16.8965 77.4445 23.5228 76.7032C25.7943 76.3511 26.2749 72.7901 23.6998 72.9606Z" fill="white"/>
<path d="M27.8202 40.027C20.1421 38.4102 12.8129 36.47 5.13474 34.5299C3.3897 34.2065 2.34268 36.47 3.73871 37.4401C10.7189 40.997 19.4441 43.5839 27.4712 43.9073C29.5653 43.5839 29.9143 40.6737 27.8202 40.027Z" fill="white"/>
<path d="M48.943 18.0658C45.966 13.4737 42.6169 8.8816 40.012 3.93624C38.8956 2.17004 35.9186 3.583 36.6629 5.70244C39.2678 10.6478 41.5005 16.6529 45.5939 20.1853C47.4545 21.9515 49.6872 20.1853 48.943 18.0658Z" fill="white"/>
<path d="M98.6659 0.61153C94.9844 4.5222 92.4073 9.49942 90.9348 14.8321C90.5666 16.6097 93.8799 17.6763 94.2481 15.5432C95.3525 10.9215 97.9296 6.65529 100.875 3.10014C102.347 1.32256 100.138 -1.16605 98.6659 0.61153Z" fill="white"/>
<path d="M144.778 99.5826C141.075 95.6922 136.247 92.846 131.003 91.0832C129.248 90.6181 128.002 93.868 130.111 94.3526C134.666 95.7088 138.784 98.5159 142.172 101.652C143.866 103.22 146.472 101.15 144.778 99.5826Z" fill="white"/>
<path d="M138.175 25.0898C132.436 25.4427 126.697 28.2659 122.035 31.4419C120.242 32.5006 121.676 35.3237 123.828 34.265C128.849 31.7948 133.871 30.3832 138.892 28.6188C140.685 27.913 140.327 25.0898 138.175 25.0898Z" fill="white"/>
<path d="M144.2 65.9801C141.056 66.3312 137.912 66.3312 134.768 64.9267C133.021 64.2245 131.973 67.0335 133.37 68.0869C136.864 69.8425 141.056 70.8959 144.898 69.1402C147.344 68.438 146.296 65.629 144.2 65.9801Z" fill="white"/>
</svg>
