<svg width="35" height="26" viewBox="0 0 35 26" fill="none" xmlns="http://www.w3.org/2000/svg">
<path d="M14.2666 14.5005L12.5322 17.5034C12.2705 17.9585 12.1328 18.4761 12.1328 19.0005C12.1328 20.6547 13.4785 22.0005 15.1328 22.0005C16.7871 22.0005 18.1328 20.6547 18.1328 19.0005C18.1328 18.4761 17.9951 17.9585 17.7324 17.5015L15.999 14.5005C15.6416 13.8813 14.624 13.8813 14.2666 14.5005V14.5005Z" fill="white"/>
<path d="M12.1328 4.00049H15.1328C16.7871 4.00049 18.1328 2.65475 18.1328 1.00049V0.000488281H12.1328V4.00049Z" fill="white"/>
<path d="M0.999999 12.0005H13.3745C18.3453 12.0005 22.6607 8.46335 23.6353 3.58935C23.813 2.70462 23.5865 1.79635 23.0142 1.09909C22.4419 0.400888 21.5962 0.000488281 20.6939 0.000488281H20.1333V1.00049C20.1333 3.75735 17.8902 6.00049 15.1333 6.00049H11.1333C10.5806 6.00049 10.1333 5.55322 10.1333 5.00049V0.000488281H0.999999C0.447266 0.000488281 0 0.447755 0 1.00049V11.0005C0 11.5532 0.447266 12.0005 0.999999 12.0005Z" fill="white"/>
<path d="M26.7686 14.3939C25.8493 13.4745 24.4895 13.3045 23.3765 13.8299L20.9411 11.3945C20.3996 11.8104 19.8285 12.1827 19.2246 12.5061L21.9625 15.2441C21.4373 16.3571 21.6073 17.717 22.5265 18.6361L29.5977 25.7074C29.9883 26.098 30.6212 26.098 31.0118 25.7074L33.8399 22.8793C34.2305 22.4887 34.2305 21.8558 33.8399 21.4652L26.7686 14.3939Z" fill="white"/>
</svg>
