<svg width="26" height="24" viewBox="0 0 26 24" fill="none" xmlns="http://www.w3.org/2000/svg">
<path d="M25.2634 16.9506L16.725 2.15386C15.9556 0.821492 14.5341 0.000488281 12.9953 0.000488281C11.4565 0.000488281 10.035 0.821492 9.26556 2.15386L0.577048 17.204C-0.192349 18.5364 -0.192349 20.1784 0.577048 21.5108C1.34645 22.8431 2.76795 23.6641 4.30675 23.6641H21.6839C21.6886 23.6641 21.6933 23.6641 21.6933 23.6641C24.0718 23.6641 26 21.7359 26 19.3574C26 18.466 25.7279 17.6356 25.2634 16.9506ZM14.839 18.3909C14.839 19.409 14.0556 20.1877 13 20.1877C11.9444 20.1877 11.161 19.409 11.161 18.3909V18.3487C11.161 17.3353 11.9444 16.5519 13 16.5519C14.0556 16.5519 14.839 17.3307 14.839 18.3487V18.3909ZM14.8813 6.27764L13.9711 14.225C13.9101 14.7973 13.5301 15.1539 13 15.1539C12.4699 15.1539 12.0899 14.7926 12.0289 14.225L11.1187 6.27295C11.0577 5.65837 11.3909 5.19392 11.9632 5.19392H14.0321C14.6045 5.19861 14.9423 5.66306 14.8813 6.27764Z" fill="white"/>
</svg>
