<svg width="32" height="32" viewBox="0 0 32 32" fill="none" xmlns="http://www.w3.org/2000/svg">
<path d="M1.23466 24.8211L17.6939 8.36183L18.7289 7.32691C18.9948 7.06095 19.4261 7.06095 19.6921 7.32691L20.7269 8.36183L23.6386 11.2735L24.6736 12.3085C24.9395 12.5745 24.9395 13.0057 24.6736 13.2717L23.6386 14.3066L7.17936 30.7658L6.14448 31.8008C5.87846 32.0667 5.44726 32.0667 5.18127 31.8008L4.14638 30.7658L1.2347 27.8541L0.199743 26.8193C-0.0662134 26.5532 -0.0662134 26.122 0.199743 25.8561L1.23466 24.8211ZM19.2105 9.87834L15.6113 13.4775L18.523 16.3892L22.1222 12.79L19.2105 9.87834Z" fill="white"/>
<path d="M23.7551 9.06408L22.9369 8.24587C22.671 7.97991 22.671 7.54865 22.9369 7.28266L25.8453 4.3743C26.1113 4.10831 26.5425 4.10831 26.8085 4.3743L27.6267 5.19254C27.8927 5.45853 27.8927 5.88976 27.6267 6.15575L24.7183 9.06412C24.4524 9.33007 24.0211 9.33007 23.7551 9.06408Z" fill="white"/>
<path d="M17.1599 5.47572C16.7837 5.47572 16.4787 5.17079 16.4787 4.79465V0.681594C16.4787 0.305421 16.7837 0.000488281 17.1598 0.000488281H18.3169C18.6931 0.000488281 18.998 0.305421 18.998 0.681594V4.79465C18.998 5.17082 18.6931 5.47576 18.3169 5.47576L17.1599 5.47572Z" fill="white"/>
<path d="M27.2058 13.0029L31.3189 13.003C31.6951 13.003 32 13.3079 32 13.6841V14.8412C32 15.2174 31.6951 15.5223 31.3189 15.5223H27.2058C26.8297 15.5223 26.5247 15.2174 26.5247 14.8412V13.6841C26.5248 13.3079 26.8297 13.0029 27.2058 13.0029Z" fill="white"/>
</svg>
