<?xml version="1.0" encoding="utf-8"?>
<svg version="1.1" xmlns="http://www.w3.org/2000/svg" xmlns:xlink="http://www.w3.org/1999/xlink" viewBox="15 15 50 50">
	<rect width="80" height="80" fill="#ECEFF2"/>
	<path fill="#D1D5D8" d="M21,40c0,10.5,8.5,19,19,19c10.5,0,19-8.5,19-19c0-10.5-8.5-19-19-19C29.5,21,21,29.5,21,40z M27.6,40
		c0-6.6,5.1-11.9,11.6-12.4v6.6c-2.8,0.4-5,2.8-5,5.7c0,3.2,2.6,5.8,5.8,5.8s5.8-2.6,5.8-5.8c0-2.9-2.2-5.3-5-5.7v-6.6
		c6.5,0.4,11.6,5.8,11.6,12.4c0,6.8-5.5,12.4-12.4,12.4S27.6,46.8,27.6,40z M37.5,24.3c0-1.4,1.1-2.5,2.5-2.5c1.4,0,2.5,1.1,2.5,2.5
		c0,1.4-1.1,2.5-2.5,2.5C38.6,26.8,37.5,25.7,37.5,24.3z"/>
</svg>
